<svg xmlns="http://www.w3.org/2000/svg" fill="none" viewBox="0 0 40 41"><defs/><g fill="#F3F1EF" clip-path="url(#clip0)"><path d="M31.774 9.87c-3.33-1.662-.018-.133-15.045-6.883a1.174 1.174 0 00-.961 0C.739 9.737 4.078 8.196.648 9.907a1.169 1.169 0 00-.524 1.57c.29.578.993.812 1.572.523l.88-.439V29.01c0 .646.525 1.17 1.172 1.17h25.001a1.17 1.17 0 001.172-1.17V11.562c.856.427.98.525 1.328.525a1.169 1.169 0 00.525-2.216zM16.249 5.337l11.328 5.088v1.193H4.92v-1.193l11.329-5.088zM4.919 18.949h5.157v3.9H4.92v-3.9zm0 8.89v-2.651h6.33c.646 0 1.171-.524 1.171-1.17v-6.239a1.17 1.17 0 00-1.172-1.17H4.92v-2.651h22.657v2.651H21.25a1.17 1.17 0 00-1.172 1.17v6.239c0 .646.525 1.17 1.172 1.17h6.328v2.651H4.92zm22.658-4.99h-5.156v-3.9h5.156v3.9zm11.251 4.99h-.781V5.224h.781a1.17 1.17 0 100-2.34H35a1.17 1.17 0 100 2.34h.703v22.615H35a1.17 1.17 0 100 2.34h3.828a1.17 1.17 0 100-2.34zM28.75 32.83A1.17 1.17 0 0027.577 34v.702H4.92V34a1.17 1.17 0 00-1.172-1.17A1.17 1.17 0 002.576 34v3.743a1.17 1.17 0 002.344 0v-.702h22.657v.702a1.17 1.17 0 002.344 0V34a1.17 1.17 0 00-1.172-1.17z"/></g><defs><clipPath id="clip0"><path fill="#fff" d="M0 0h40v39.926H0z" transform="translate(0 .936)"/></clipPath></defs></svg>