<svg width="40" height="40" viewBox="0 0 40 40" fill="none" xmlns="http://www.w3.org/2000/svg">
<path d="M3.62367 0V5.2907H1.5625V7.62992H3.62367V12.0605H1.5625V14.3998H3.62367V18.8304H1.5625V21.1696H3.62367V25.6002H1.5625V27.9395H3.62367V32.3701H1.5625V34.7093H3.62367V40H38.4375V0H3.62367ZM36.0938 37.6608H5.96742V34.7092H8.02852V32.37H5.96742V27.9394H8.02852V25.6002H5.96742V21.1695H8.02852V18.8303H5.96742V14.3997H8.02852V12.0605H5.96742V7.62992H8.02852V5.2907H5.96742V2.33914H36.0938V37.6608Z" fill="#F3F1EF"/>
<path d="M24.1565 9.12561H31.7568V11.4648H24.1565V9.12561Z" fill="#F3F1EF"/>
<path d="M24.1565 18.8372H31.7568V21.1764H24.1565V18.8372Z" fill="#F3F1EF"/>
<path d="M24.1565 29.3149H31.7568V31.6542H24.1565V29.3149Z" fill="#F3F1EF"/>
<path d="M20.564 8.11061L18.9068 6.45654L15.1163 10.2397L13.3619 8.48873L11.7046 10.1427L15.1163 13.5477L20.564 8.11061Z" fill="#F3F1EF"/>
<path d="M20.564 17.9657L18.9068 16.3116L15.1163 20.0948L13.3619 18.3438L11.7046 19.9979L15.1163 23.4028L20.564 17.9657Z" fill="#F3F1EF"/>
<path d="M20.564 27.821L18.9068 26.167L15.1163 29.95L13.3619 28.1991L11.7046 29.8532L15.1163 33.2581L20.564 27.821Z" fill="#F3F1EF"/>
</svg>
