<svg xmlns="http://www.w3.org/2000/svg" fill="none" viewBox="0 0 80 80"><defs/><g fill="#CA6D38" clip-path="url(#clip0)"><path d="M44.412 75h-.013a.62.62 0 00-.617.625.63.63 0 00.63.625.624.624 0 100-1.25zM76.25 8.125a.624.624 0 100 1.25c1.38 0 2.5 1.121 2.5 2.5s-1.12 2.5-2.5 2.5a.625.625 0 100 1.25 3.754 3.754 0 003.75-3.75 3.754 3.754 0 00-3.75-3.75z"/><path d="M79.375 11.25a.625.625 0 00-.625.625v50a.625.625 0 101.25 0v-50a.625.625 0 00-.625-.625zm-3.125 3.125h-4.375a.625.625 0 100 1.25h4.375a.625.625 0 100-1.25zm0-6.25H3.75a.625.625 0 100 1.25h72.5a.625.625 0 100-1.25zm0 56.25h-4.375a.625.625 0 100 1.25h4.375a.625.625 0 100-1.25zm-6.875-6.25H3.75a.625.625 0 100 1.25h65.625a.625.625 0 100-1.25z"/><path d="M79.375 61.25a.624.624 0 00-.625.625c0 1.38-1.12 2.5-2.5 2.5a.625.625 0 100 1.25 3.754 3.754 0 003.75-3.75.624.624 0 00-.625-.625zM3.75 58.125c-1.379 0-2.5-1.12-2.5-2.5a.625.625 0 10-1.25 0 3.754 3.754 0 003.75 3.75.625.625 0 100-1.25zm68.125-43.75a.625.625 0 00-.625.625v50a.624.624 0 101.25 0V15a.625.625 0 00-.625-.625zM3.75 8.125a2.503 2.503 0 01-2.5-2.5c0-1.379 1.121-2.5 2.5-2.5a.625.625 0 100-1.25A3.754 3.754 0 000 5.625a3.754 3.754 0 003.75 3.75.625.625 0 100-1.25z"/><path d="M8.125 1.875H3.75a.625.625 0 100 1.25h4.375a.625.625 0 100-1.25z"/><path d="M8.125 1.875A.625.625 0 007.5 2.5v3.75a.625.625 0 101.25 0V2.5a.625.625 0 00-.625-.625zM.625 5A.625.625 0 000 5.625v50a.624.624 0 101.25 0v-50A.625.625 0 00.625 5zm13.75 11.875a.625.625 0 00-.625.625v6.25a.625.625 0 101.25 0V17.5a.625.625 0 00-.625-.625zm0 10a.625.625 0 00-.625.625v5a.625.625 0 101.25 0v-5a.625.625 0 00-.625-.625zm-3.75 5A.625.625 0 0010 32.5v6.25a.625.625 0 101.25 0V32.5a.625.625 0 00-.625-.625zm0 10A.625.625 0 0010 42.5v5a.625.625 0 101.25 0v-5a.625.625 0 00-.625-.625z"/><path d="M25.625 16.875H14.453a.625.625 0 100 1.25h11.172a.625.625 0 100-1.25zm5 15h-20a.625.625 0 100 1.25h20a.625.625 0 100-1.25zm-1.25 15h-18.75a.625.625 0 100 1.25h18.75a.625.625 0 100-1.25z"/><path d="M29.375 30.625a.625.625 0 00-.625.625V32.5a.625.625 0 101.25 0V31.25a.625.625 0 00-.625-.625zm17.5 0a.625.625 0 00-.625.625V32.5a.624.624 0 101.25 0V31.25a.625.625 0 00-.625-.625zm-17.5-13.75a.625.625 0 00-.625.625v10a.625.625 0 101.25 0v-10a.625.625 0 00-.625-.625zm8.75 0a.625.625 0 00-.625.625v10a.625.625 0 101.25 0v-10a.625.625 0 00-.625-.625z"/><path d="M40.625 26.875h-5a.624.624 0 100 1.25h5a.625.625 0 100-1.25zm-8.75 0h-2.5a.625.625 0 100 1.25h2.5a.625.625 0 100-1.25zm15 0h-2.5a.625.625 0 100 1.25h2.5a.625.625 0 100-1.25zm13.75-10h-31.25a.625.625 0 100 1.25h31.25a.625.625 0 100-1.25z"/><path d="M46.875 16.875a.625.625 0 00-.625.625v10a.625.625 0 101.25 0v-10a.625.625 0 00-.625-.625zm13.75 0A.625.625 0 0060 17.5v33.75a.625.625 0 101.25 0V17.5a.625.625 0 00-.625-.625z"/><path d="M60.625 31.875h-26.25a.625.625 0 100 1.25h26.25a.625.625 0 100-1.25zm-31.25 15a.625.625 0 00-.625.625v3.75a.625.625 0 101.25 0V47.5a.625.625 0 00-.625-.625z"/><path d="M60.625 50.625h-31.25a.625.625 0 100 1.25h31.25a.624.624 0 100-1.25zm-31.25-8.75a.625.625 0 00-.625.625v5a.625.625 0 101.25 0v-5a.625.625 0 00-.625-.625zm-12.5 21.25A4.38 4.38 0 0012.5 67.5c0 2.412 1.963 4.375 4.375 4.375s4.375-1.963 4.375-4.375a4.38 4.38 0 00-4.375-4.375zm0 7.5A3.128 3.128 0 0113.75 67.5a3.128 3.128 0 013.125-3.125A3.128 3.128 0 0120 67.5a3.128 3.128 0 01-3.125 3.125z"/><path d="M12.089 65.625H8.125a.625.625 0 100 1.25h3.964a.625.625 0 100-1.25zm0 2.5H8.125a.625.625 0 100 1.25h3.964a.625.625 0 100-1.25z"/><path d="M8.125 68.125a.626.626 0 010-1.25.625.625 0 100-1.25A1.877 1.877 0 006.25 67.5c0 1.034.841 1.875 1.875 1.875a.625.625 0 100-1.25zm8.75-2.5A1.877 1.877 0 0015 67.5c0 1.034.84 1.875 1.875 1.875A1.877 1.877 0 0018.75 67.5a1.877 1.877 0 00-1.875-1.875zm0 2.5a.626.626 0 11.001-1.251.626.626 0 01-.001 1.251zm33.75-2.5H22.907a.625.625 0 100 1.25h27.718a.625.625 0 100-1.25zm0 2.5H22.907a.625.625 0 100 1.25h27.718a.625.625 0 100-1.25zm0 5h-38.75a.644.644 0 00-.22.04l-5 1.874a.627.627 0 000 1.172l5 1.875c.07.026.145.04.22.04h38.75c.346 0 .625-.28.625-.626v-3.75a.625.625 0 00-.625-.625zM50 76.875H11.99l-3.334-1.25 3.334-1.25H50v2.5z"/><path d="M13.645 75.278l-1.25-1.875a.624.624 0 10-1.04.693l1.25 1.876a.625.625 0 101.04-.694z"/><path d="M13.472 75.105a.622.622 0 00-.867.173l-1.25 1.875a.624.624 0 101.04.694l1.25-1.875a.624.624 0 00-.173-.867zm33.403-1.98a.625.625 0 00-.625.625v3.75a.624.624 0 101.25 0v-3.75a.625.625 0 00-.625-.625zm-5 0a.625.625 0 00-.625.625v3.75a.625.625 0 101.25 0v-3.75a.625.625 0 00-.625-.625zm20-7.501h-6.25a.625.625 0 00-.625.625V77.5c0 .346.28.625.625.625h6.25c.345 0 .625-.28.625-.625V66.25a.625.625 0 00-.625-.625zm-.625 11.251h-5V66.874h5v10.001z"/><path d="M60.625 68.125h-3.75a.625.625 0 100 1.25h3.75a.625.625 0 100-1.25zm0 6.25h-3.75a.625.625 0 100 1.25h3.75a.625.625 0 100-1.25z"/></g><defs><clipPath id="clip0"><path fill="#fff" d="M0 0h80v80H0z"/></clipPath></defs></svg>