<svg width="80" height="80" viewBox="0 0 80 80" fill="none" xmlns="http://www.w3.org/2000/svg">
<g clip-path="url(#clip0)">
<path d="M26.913 46.2499H26.8996C26.5555 46.2499 26.282 46.5295 26.282 46.875C26.282 47.2203 26.5677 47.4999 26.913 47.4999C27.2573 47.4999 27.538 47.2203 27.5381 46.875C27.5381 46.5295 27.2573 46.2499 26.913 46.2499Z" fill="#CA6D38"/>
<path d="M40.6628 46.2499H40.6493C40.3052 46.2499 40.0317 46.5295 40.0317 46.875C40.0317 47.2203 40.3174 47.4999 40.6628 47.4999C41.007 47.4999 41.2877 47.2203 41.2877 46.875C41.2877 46.5295 41.007 46.2499 40.6628 46.2499Z" fill="#CA6D38"/>
<path d="M29.4127 47.4999H29.3992C29.055 47.4999 28.7815 47.7795 28.7815 48.125C28.7815 48.4703 29.0673 48.7499 29.4127 48.7499C29.757 48.7499 30.0378 48.4703 30.0378 48.125C30.0378 47.7795 29.757 47.4999 29.4127 47.4999Z" fill="#CA6D38"/>
<path d="M38.1629 47.4999H38.1495C37.8052 47.4999 37.5317 47.7795 37.5317 48.125C37.5317 48.4703 37.8174 48.7499 38.1629 48.7499C38.5072 48.7499 38.7879 48.4703 38.7879 48.125C38.7879 47.7795 38.5072 47.4999 38.1629 47.4999Z" fill="#CA6D38"/>
<path d="M23.1251 47.4999C22.7796 47.4999 22.5 47.7795 22.5 48.125V68.7498H1.25003V48.125C1.25003 47.7795 0.97046 47.4999 0.625095 47.4999C0.279574 47.4999 0 47.7795 0 48.125V69.3749C0 69.7205 0.279574 69.9999 0.625095 69.9999H23.1251C23.4704 69.9999 23.75 69.7205 23.75 69.3749V48.125C23.75 47.7795 23.4704 47.4999 23.1251 47.4999Z" fill="#CA6D38"/>
<path d="M23.1251 43.7499H0.625095C0.279574 43.7499 0 44.0295 0 44.3748V46.8749C0 47.2203 0.279574 47.4998 0.625095 47.4998H23.1251C23.4704 47.4998 23.75 47.2203 23.75 46.8749V44.3748C23.75 44.0295 23.4704 43.7499 23.1251 43.7499ZM22.5 46.2498H1.25003V44.9998H22.5V46.2498Z" fill="#CA6D38"/>
<path d="M79.3749 7.5H44.3751C44.0296 7.5 43.75 7.77942 43.75 8.12494V26.875C43.75 27.2205 44.0296 27.4999 44.3751 27.4999H79.3749C79.7204 27.4999 80 27.2205 80 26.8748V8.12494C80 7.77942 79.7204 7.5 79.3749 7.5ZM78.75 26.25H45V8.74988H78.75V26.25Z" fill="#CA6D38"/>
<path d="M23.1251 7.5H0.625095C0.279574 7.5 0 7.77942 0 8.12494V26.875C0 27.2205 0.279574 27.4999 0.625095 27.4999H23.1251C23.4704 27.4999 23.75 27.2205 23.75 26.8748V8.12494C23.75 7.77942 23.4704 7.5 23.1251 7.5ZM22.5 26.25H1.25003V8.74988H22.5V26.25Z" fill="#CA6D38"/>
<path d="M11.8749 47.4999C11.5296 47.4999 11.25 47.7795 11.25 48.125V68.1249C11.25 68.4704 11.5296 68.7498 11.8749 68.7498C12.2205 68.7498 12.5 68.4704 12.5 68.1247V48.125C12.5 47.7795 12.2205 47.4999 11.8749 47.4999Z" fill="#CA6D38"/>
<path d="M23.1251 71.25H0.625095C0.279574 71.25 0 71.5296 0 71.8751C0 72.2205 0.279574 72.5 0.625095 72.5H23.1251C23.4704 72.5 23.75 72.2205 23.75 71.8751C23.75 71.5296 23.4704 71.25 23.1251 71.25Z" fill="#CA6D38"/>
<path d="M0.625095 69.9999C0.279574 69.9999 0 70.2795 0 70.625V71.875C0 72.2204 0.279574 72.4999 0.625095 72.4999C0.970616 72.4999 1.25003 72.2204 1.25003 71.875V70.625C1.25003 70.2795 0.97046 69.9999 0.625095 69.9999Z" fill="#CA6D38"/>
<path d="M23.1251 69.9999C22.7796 69.9999 22.5 70.2795 22.5 70.625V71.875C22.5 72.2204 22.7796 72.4999 23.1251 72.4999C23.4705 72.4999 23.75 72.2204 23.75 71.875V70.625C23.75 70.2795 23.4705 69.9999 23.1251 69.9999Z" fill="#CA6D38"/>
<path d="M19.375 50H15.6249C15.2793 50 14.9998 50.2794 14.9998 50.6249C14.9998 50.9703 15.2795 51.2499 15.6249 51.2499H19.375C19.7203 51.2499 19.9999 50.9703 19.9999 50.6249C19.9999 50.2794 19.7203 50 19.375 50Z" fill="#CA6D38"/>
<path d="M8.12504 50H4.3751C4.02957 50 3.75 50.2794 3.75 50.6249C3.75 50.9703 4.02957 51.2499 4.3751 51.2499H8.12504C8.47057 51.2499 8.75014 50.9703 8.75014 50.6249C8.75014 50.2794 8.47057 50 8.12504 50Z" fill="#CA6D38"/>
<path d="M79.3748 47.4999C79.0292 47.4999 78.7498 47.7795 78.7498 48.125V68.7498H57.4999V48.125C57.4999 47.7795 57.2203 47.4999 56.8749 47.4999C56.5294 47.4999 56.25 47.7795 56.25 48.125V69.3749C56.25 69.7205 56.5294 69.9999 56.8749 69.9999H79.3749C79.7204 69.9999 80 69.7205 79.9999 69.3749V48.125C79.9999 47.7795 79.7203 47.4999 79.3748 47.4999Z" fill="#CA6D38"/>
<path d="M79.3749 43.7499H56.8749C56.5294 43.7499 56.25 44.0295 56.25 44.3748C56.25 44.7203 56.5294 44.9998 56.8749 44.9998H78.75V46.2498H56.8749C56.5294 46.2498 56.25 46.5294 56.25 46.8749C56.25 47.2203 56.5294 47.4998 56.8749 47.4998H79.3749C79.7205 47.4998 80 47.2203 80 46.8749V44.3748C80 44.0295 79.7205 43.7499 79.3749 43.7499Z" fill="#CA6D38"/>
<path d="M68.1251 47.4999C67.7796 47.4999 67.5 47.7795 67.5 48.125V68.1249C67.5 68.4704 67.7796 68.7498 68.1251 68.7498C68.4705 68.7498 68.7501 68.4704 68.7501 68.1247V48.125C68.7501 47.7795 68.4705 47.4999 68.1251 47.4999Z" fill="#CA6D38"/>
<path d="M79.3749 71.25H56.8749C56.5294 71.25 56.25 71.5296 56.25 71.8751C56.25 72.2205 56.5294 72.5 56.8749 72.5H79.3749C79.7205 72.5 80 72.2205 80 71.8751C80 71.5296 79.7205 71.25 79.3749 71.25Z" fill="#CA6D38"/>
<path d="M79.3749 69.9999C79.0294 69.9999 78.75 70.2795 78.75 70.625V71.875C78.75 72.2204 79.0294 72.4999 79.3749 72.4999C79.7204 72.4999 80 72.2204 80 71.875V70.625C80 70.2795 79.7204 69.9999 79.3749 69.9999Z" fill="#CA6D38"/>
<path d="M75.625 50H71.8751C71.5296 50 71.25 50.2794 71.25 50.6249C71.25 50.9703 71.5296 51.2499 71.8751 51.2499H75.625C75.9706 51.2499 76.25 50.9703 76.25 50.6249C76.25 50.2794 75.9706 50 75.625 50Z" fill="#CA6D38"/>
<path d="M64.3751 50H60.6252C60.2797 50 60.0002 50.2794 60.0002 50.6249C60.0002 50.9703 60.2797 51.2499 60.6252 51.2499H64.3751C64.7207 51.2499 65.0001 50.9703 65.0001 50.6249C65.0001 50.2794 64.7207 50 64.3751 50Z" fill="#CA6D38"/>
<path d="M55.6249 22.5H50.6249C50.2796 22.5 50 22.7796 50 23.1251C50 23.4705 50.2796 23.75 50.6249 23.75H55.6249C55.9704 23.75 56.25 23.4705 56.25 23.1251C56.25 22.7796 55.9704 22.5 55.6249 22.5Z" fill="#CA6D38"/>
<path d="M14.3751 22.5H9.3751C9.02957 22.5 8.75 22.7796 8.75 23.1251C8.75 23.4705 9.02957 23.75 9.3751 23.75H14.3751C14.7206 23.75 15 23.4705 15 23.1251C15 22.7796 14.7204 22.5 14.3751 22.5Z" fill="#CA6D38"/>
<path d="M73.1249 22.5H68.1251C67.7796 22.5 67.5 22.7796 67.5 23.1251C67.5 23.4705 67.7796 23.75 68.1251 23.75H73.1249C73.4704 23.75 73.75 23.4705 73.75 23.1251C73.75 22.7796 73.4704 22.5 73.1249 22.5Z" fill="#CA6D38"/>
<path d="M56.875 68.7498H45V48.125C45 47.7795 44.7205 47.4999 44.3751 47.4999C44.0296 47.4999 43.75 47.7795 43.75 48.125V69.3749C43.75 69.7205 44.0296 69.9999 44.3751 69.9999H56.875C57.2203 69.9999 57.4999 69.7205 57.4999 69.3749C57.4999 69.0294 57.2203 68.7498 56.875 68.7498Z" fill="#CA6D38"/>
<path d="M56.875 46.2498H45V44.9998H56.875C57.2203 44.9998 57.4999 44.7203 57.4999 44.3748C57.4999 44.0295 57.2203 43.7499 56.875 43.7499H44.3751C44.0296 43.7499 43.75 44.0295 43.75 44.3748V46.8749C43.75 47.2203 44.0296 47.4998 44.3751 47.4998H56.875C57.2203 47.4998 57.4999 47.2203 57.4999 46.8749C57.4999 46.5294 57.2203 46.2498 56.875 46.2498Z" fill="#CA6D38"/>
<path d="M56.875 71.25H44.3751C44.0296 71.25 43.75 71.5296 43.75 71.8751C43.75 72.2205 44.0296 72.5 44.3751 72.5H56.875C57.2203 72.5 57.4999 72.2205 57.4999 71.8751C57.4999 71.5296 57.2203 71.25 56.875 71.25Z" fill="#CA6D38"/>
<path d="M44.3751 69.9999C44.0296 69.9999 43.75 70.2795 43.75 70.625V71.875C43.75 72.2204 44.0296 72.4999 44.3751 72.4999C44.7205 72.4999 45 72.2204 45 71.875V70.625C45 70.2795 44.7205 69.9999 44.3751 69.9999Z" fill="#CA6D38"/>
<path d="M51.875 50H49.3749C49.0296 50 48.75 50.2794 48.75 50.6249C48.75 50.9703 49.0296 51.2499 49.3749 51.2499H51.875C52.2205 51.2499 52.5 50.9703 52.5 50.6249C52.5 50.2794 52.2205 50 51.875 50Z" fill="#CA6D38"/>
<path d="M55.6249 53.7499H45.6249C45.2794 53.7499 45 54.0295 45 54.3748C45 54.7203 45.2794 54.9998 45.6249 54.9998H55.6249C55.9704 54.9998 56.25 54.7203 56.25 54.3748C56.25 54.0295 55.9704 53.7499 55.6249 53.7499Z" fill="#CA6D38"/>
<path d="M51.875 57.4999H49.3749C49.0296 57.4999 48.75 57.7795 48.75 58.1248C48.75 58.4703 49.0296 58.7499 49.3749 58.7499H51.875C52.2205 58.7499 52.5 58.4703 52.5 58.1248C52.5 57.7795 52.2205 57.4999 51.875 57.4999Z" fill="#CA6D38"/>
<path d="M51.875 64.9999H49.3749C49.0296 64.9999 48.75 65.2795 48.75 65.625C48.75 65.9703 49.0296 66.2499 49.3749 66.2499H51.875C52.2205 66.2499 52.5 65.9703 52.5 65.625C52.5 65.2795 52.2205 64.9999 51.875 64.9999Z" fill="#CA6D38"/>
<path d="M55.6249 61.25H45.6249C45.2794 61.25 45 61.5296 45 61.8751C45 62.2205 45.2794 62.5 45.6249 62.5H55.6249C55.9704 62.5 56.25 62.2203 56.25 61.8751C56.25 61.5296 55.9704 61.25 55.6249 61.25Z" fill="#CA6D38"/>
<path d="M43.125 43.7499H24.3751C24.0296 43.7499 23.75 44.0294 23.75 44.3748C23.75 44.7203 24.0296 44.9997 24.3751 44.9997H43.125C43.4704 44.9997 43.7499 44.7203 43.7499 44.3748C43.7499 44.0294 43.4704 43.7499 43.125 43.7499Z" fill="#CA6D38"/>
<path d="M43.125 71.25H24.3751C24.0296 71.25 23.75 71.5296 23.75 71.8751C23.75 72.2205 24.0296 72.5 24.3751 72.5H43.125C43.4704 72.5 43.7499 72.2205 43.7499 71.8751C43.7499 71.5296 43.4704 71.25 43.125 71.25Z" fill="#CA6D38"/>
<path d="M31.8749 41.25H25.6249C25.2793 41.25 24.9998 41.5296 24.9998 41.8751C24.9998 42.2206 25.2795 42.5 25.6249 42.5H31.8749C32.2204 42.5 32.5 42.2206 32.5 41.8751C32.5 41.5296 32.2204 41.25 31.8749 41.25Z" fill="#CA6D38"/>
<path d="M41.875 41.25H35.6249C35.2796 41.25 35 41.5296 35 41.8751C35 42.2206 35.2796 42.5 35.6249 42.5H41.875C42.2205 42.5 42.4999 42.2206 42.4999 41.8751C42.4999 41.5296 42.2205 41.25 41.875 41.25Z" fill="#CA6D38"/>
<path d="M35.6249 47.4999H31.8749C31.5296 47.4999 31.25 47.7795 31.25 48.125C31.25 48.4703 31.5296 48.7499 31.8749 48.7499H35.6249C35.9704 48.7499 36.25 48.4703 36.25 48.125C36.25 47.7795 35.9704 47.4999 35.6249 47.4999Z" fill="#CA6D38"/>
<path d="M41.8748 51.2499H25.6249C25.2793 51.2499 24.9998 51.5295 24.9998 51.875V69.375C24.9998 69.7205 25.2795 69.9999 25.6249 69.9999H41.8748C42.2204 69.9999 42.4998 69.7205 42.4998 69.3748V51.875C42.4998 51.5295 42.2204 51.2499 41.8748 51.2499ZM41.2499 68.7499H26.2499V52.4999H41.2499V68.7499Z" fill="#CA6D38"/>
<path d="M39.3751 53.7499H28.1251C27.7796 53.7499 27.5 54.0295 27.5 54.3748C27.5 54.7203 27.7796 54.9998 28.1251 54.9998H39.3751C39.7206 54.9998 40.0002 54.7203 40.0002 54.3748C40.0002 54.0295 39.7205 53.7499 39.3751 53.7499Z" fill="#CA6D38"/>
<path d="M75.6251 41.25H60.6252C60.2797 41.25 60.0002 41.5296 60.0002 41.8751C60.0002 42.2206 60.2797 42.5 60.6252 42.5H75.6251C75.9706 42.5 76.2501 42.2206 76.2501 41.8751C76.2501 41.5296 75.9706 41.25 75.6251 41.25Z" fill="#CA6D38"/>
<path d="M60.6249 41.25C60.2794 41.25 60 41.5296 60 41.8751V43.125C60 43.4705 60.2794 43.7501 60.6249 43.7501C60.9705 43.7501 61.25 43.4705 61.2499 43.125V41.8751C61.2499 41.5296 60.9705 41.25 60.6249 41.25Z" fill="#CA6D38"/>
<path d="M75.6251 41.25C75.2796 41.25 75 41.5296 75 41.8751V43.125C75 43.4705 75.2796 43.7501 75.6251 43.7501C75.9706 43.7501 76.25 43.4705 76.25 43.125V41.8751C76.25 41.5296 75.9706 41.25 75.6251 41.25Z" fill="#CA6D38"/>
<path d="M68.1251 36.2501C67.7796 36.2501 67.5 36.5295 67.5 36.8751V40.625C67.5 40.9705 67.7796 41.25 68.1251 41.25C68.4705 41.25 68.7501 40.9705 68.7501 40.625V36.8751C68.7501 36.5295 68.4705 36.2501 68.1251 36.2501Z" fill="#CA6D38"/>
<path d="M70.6249 40C70.2794 40 70 40.2794 70 40.6249V41.875C70 42.2205 70.2794 42.4999 70.6249 42.4999C70.9703 42.4999 71.2499 42.2205 71.2499 41.875V40.6249C71.2499 40.2794 70.9703 40 70.6249 40Z" fill="#CA6D38"/>
<path d="M65.6251 40C65.2796 40 65 40.2794 65 40.6249V41.875C65 42.2205 65.2796 42.4999 65.6251 42.4999C65.9706 42.4999 66.25 42.2205 66.25 41.875V40.6249C66.25 40.2794 65.9706 40 65.6251 40Z" fill="#CA6D38"/>
<path d="M61.8751 8.75C61.5296 8.75 61.25 9.02957 61.25 9.3751V25.6251C61.25 25.9706 61.5296 26.2502 61.8751 26.2502C62.2205 26.2502 62.5 25.9706 62.5 25.6249V9.3751C62.5 9.02957 62.2206 8.75 61.8751 8.75Z" fill="#CA6D38"/>
<path d="M41.8748 21.2501H25.6249C25.2793 21.2501 24.9998 21.5295 24.9998 21.8751C24.9998 22.2206 25.2795 22.5 25.6249 22.5H41.8748C42.2204 22.5 42.4998 22.2206 42.4998 21.8751C42.4998 21.5295 42.2204 21.2501 41.8748 21.2501Z" fill="#CA6D38"/>
<path d="M41.8749 20.0001C41.5294 20.0001 41.25 20.2797 41.25 20.6251V21.8751C41.25 22.2206 41.5294 22.5 41.8749 22.5C42.2205 22.5 42.4999 22.2206 42.4999 21.8751V20.6251C42.4999 20.2797 42.2205 20.0001 41.8749 20.0001Z" fill="#CA6D38"/>
<path d="M25.6248 20.0001C25.2793 20.0001 24.9998 20.2797 24.9998 20.6251V21.8751C24.9998 22.2206 25.2795 22.5 25.6248 22.5C25.9704 22.5 26.2499 22.2206 26.2499 21.8751V20.6251C26.2499 20.2797 25.9704 20.0001 25.6248 20.0001Z" fill="#CA6D38"/>
<path d="M40.6248 18.75H26.8749C26.5296 18.75 26.25 19.0296 26.25 19.3751C26.25 19.7205 26.5296 20 26.8749 20H40.6248C40.9704 20 41.2499 19.7203 41.2499 19.3751C41.2499 19.0296 40.9704 18.75 40.6248 18.75Z" fill="#CA6D38"/>
<path d="M30.6251 7.50012C30.2796 7.50012 30 7.77954 30 8.12506V18.125C30 18.4705 30.2797 18.75 30.6251 18.75C30.9706 18.75 31.2502 18.4704 31.2502 18.125V8.12506C31.2502 7.77954 30.9706 7.50012 30.6251 7.50012Z" fill="#CA6D38"/>
<path d="M36.8749 7.50012C36.5296 7.50012 36.25 7.77954 36.25 8.12506V18.125C36.25 18.4705 36.5296 18.75 36.8749 18.75C37.2205 18.75 37.4999 18.4704 37.5 18.125V8.12506C37.5 7.77954 37.2205 7.50012 36.8749 7.50012Z" fill="#CA6D38"/>
<path d="M29.3751 23.75C29.0296 23.75 28.75 24.0296 28.75 24.3751V26.7456C28.75 27.0911 29.0296 27.3707 29.3751 27.3707C29.7205 27.3707 30 27.0911 30 26.7456V24.3751C30 24.0296 29.7205 23.75 29.3751 23.75Z" fill="#CA6D38"/>
<path d="M38.1251 23.75C37.7796 23.75 37.5 24.0296 37.5 24.3751V26.7456C37.5 27.0911 37.7796 27.3707 38.1251 27.3707C38.4705 27.3707 38.75 27.0911 38.75 26.7456V24.3751C38.75 24.0296 38.4705 23.75 38.1251 23.75Z" fill="#CA6D38"/>
<path d="M33.7499 23.75C33.4046 23.75 33.125 24.0296 33.125 24.3751V29.2457C33.125 29.591 33.4046 29.8706 33.7499 29.8706C34.0955 29.8706 34.3749 29.591 34.375 29.2457V24.3751C34.375 24.0296 34.0955 23.75 33.7499 23.75Z" fill="#CA6D38"/>
<path d="M26.8747 18.75C25.8408 18.75 24.9998 19.5911 24.9998 20.625C24.9998 20.9705 25.2795 21.2501 25.6249 21.2501C25.9704 21.2501 26.2499 20.9703 26.2498 20.625C26.2498 20.2809 26.5305 20 26.8747 20C27.2202 20 27.4998 19.7205 27.4998 19.3751C27.4998 19.0296 27.2202 18.75 26.8747 18.75Z" fill="#CA6D38"/>
<path d="M40.6249 18.75C40.2796 18.75 40 19.0296 40 19.3751C40 19.7205 40.2796 20 40.6249 20C40.9692 20 41.25 20.2809 41.25 20.625C41.25 20.9705 41.5295 21.2501 41.875 21.2501C42.2205 21.2501 42.4999 20.9703 42.4999 20.625C42.4999 19.5911 41.6588 18.75 40.6249 18.75Z" fill="#CA6D38"/>
</g>
<defs>
<clipPath id="clip0">
<rect width="80" height="80" fill="white"/>
</clipPath>
</defs>
</svg>
