<svg xmlns="http://www.w3.org/2000/svg" fill="none" viewBox="0 0 80 80"><defs/><g fill="#CA6D38" clip-path="url(#clip0)"><path d="M26.913 46.2499h-.0134c-.3441 0-.6176.2796-.6176.6251 0 .3453.2857.6249.631.6249.3443 0 .625-.2796.6251-.6249 0-.3455-.2808-.6251-.6251-.6251zM40.6628 46.2499h-.0135c-.3441 0-.6176.2796-.6176.6251 0 .3453.2857.6249.6311.6249.3442 0 .6249-.2796.6249-.6249 0-.3455-.2807-.6251-.6249-.6251zM29.4127 47.4999h-.0135c-.3442 0-.6177.2796-.6177.6251 0 .3453.2858.6249.6312.6249.3443 0 .6251-.2796.6251-.6249 0-.3455-.2808-.6251-.6251-.6251zM38.1629 47.4999h-.0134c-.3443 0-.6178.2796-.6178.6251 0 .3453.2857.6249.6312.6249.3443 0 .625-.2796.625-.6249 0-.3455-.2807-.6251-.625-.6251zM23.1251 47.4999c-.3455 0-.6251.2796-.6251.6251v20.6248H1.25003V48.125c0-.3455-.27957-.6251-.624935-.6251C.279574 47.4999 0 47.7795 0 48.125v21.2499c0 .3456.279574.625.625095.625H23.1251c.3453 0 .6249-.2794.6249-.625V48.125c0-.3455-.2796-.6251-.6249-.6251zM23.1251 43.7499H.625095C.279574 43.7499 0 44.0295 0 44.3748v2.5001c0 .3454.279574.6249.625095.6249H23.1251c.3453 0 .6249-.2795.6249-.6249v-2.5001c0-.3453-.2796-.6249-.6249-.6249zM22.5 46.2498H1.25003v-1.25H22.5v1.25zM79.3749 7.5H44.3751c-.3455 0-.6251.27942-.6251.62494V26.875c0 .3455.2796.6249.6251.6249h34.9998c.3455 0 .6251-.2794.6251-.6251V8.12494c0-.34552-.2796-.62494-.6251-.62494zM78.75 26.25H45V8.74988h33.75V26.25zM23.1251 7.5H.625095C.279574 7.5 0 7.77942 0 8.12494V26.875c0 .3455.279574.6249.625095.6249H23.1251c.3453 0 .6249-.2794.6249-.6251V8.12494c0-.34552-.2796-.62494-.6249-.62494zM22.5 26.25H1.25003V8.74988H22.5V26.25z"/><path d="M11.8749 47.4999c-.3453 0-.6249.2796-.6249.6251v19.9999c0 .3455.2796.6249.6249.6249.3456 0 .6251-.2794.6251-.6251V48.125c0-.3455-.2795-.6251-.6251-.6251zM23.1251 71.25H.625095C.279574 71.25 0 71.5296 0 71.8751c0 .3454.279574.6249.625095.6249H23.1251c.3453 0 .6249-.2795.6249-.6249 0-.3455-.2796-.6251-.6249-.6251z"/><path d="M.625095 69.9999C.279574 69.9999 0 70.2795 0 70.625v1.25c0 .3454.279574.6249.625095.6249.345521 0 .624935-.2795.624935-.6249v-1.25c0-.3455-.27957-.6251-.624935-.6251zM23.1251 69.9999c-.3455 0-.6251.2796-.6251.6251v1.25c0 .3454.2796.6249.6251.6249.3454 0 .6249-.2795.6249-.6249v-1.25c0-.3455-.2795-.6251-.6249-.6251zM19.375 50h-3.7501c-.3456 0-.6251.2794-.6251.6249 0 .3454.2797.625.6251.625h3.7501c.3453 0 .6249-.2796.6249-.625 0-.3455-.2796-.6249-.6249-.6249zM8.12504 50H4.3751c-.34553 0-.6251.2794-.6251.6249 0 .3454.27957.625.6251.625h3.74994c.34553 0 .6251-.2796.6251-.625 0-.3455-.27957-.6249-.6251-.6249zM79.3748 47.4999c-.3456 0-.625.2796-.625.6251v20.6248H57.4999V48.125c0-.3455-.2796-.6251-.625-.6251-.3455 0-.6249.2796-.6249.6251v21.2499c0 .3456.2794.625.6249.625h22.5c.3455 0 .6251-.2794.625-.625V48.125c0-.3455-.2796-.6251-.6251-.6251zM79.3749 43.7499h-22.5c-.3455 0-.6249.2796-.6249.6249 0 .3455.2794.625.6249.625H78.75v1.25H56.8749c-.3455 0-.6249.2796-.6249.6251 0 .3454.2794.6249.6249.6249h22.5c.3456 0 .6251-.2795.6251-.6249v-2.5001c0-.3453-.2795-.6249-.6251-.6249z"/><path d="M68.1251 47.4999c-.3455 0-.6251.2796-.6251.6251v19.9999c0 .3455.2796.6249.6251.6249.3454 0 .625-.2794.625-.6251V48.125c0-.3455-.2796-.6251-.625-.6251zM79.3749 71.25h-22.5c-.3455 0-.6249.2796-.6249.6251 0 .3454.2794.6249.6249.6249h22.5c.3456 0 .6251-.2795.6251-.6249 0-.3455-.2795-.6251-.6251-.6251z"/><path d="M79.3749 69.9999c-.3455 0-.6249.2796-.6249.6251v1.25c0 .3454.2794.6249.6249.6249.3455 0 .6251-.2795.6251-.6249v-1.25c0-.3455-.2796-.6251-.6251-.6251zM75.625 50h-3.7499c-.3455 0-.6251.2794-.6251.6249 0 .3454.2796.625.6251.625h3.7499c.3456 0 .625-.2796.625-.625 0-.3455-.2794-.6249-.625-.6249zM64.3751 50h-3.7499c-.3455 0-.625.2794-.625.6249 0 .3454.2795.625.625.625h3.7499c.3456 0 .625-.2796.625-.625 0-.3455-.2794-.6249-.625-.6249zM55.6249 22.5h-5c-.3453 0-.6249.2796-.6249.6251 0 .3454.2796.6249.6249.6249h5c.3455 0 .6251-.2795.6251-.6249 0-.3455-.2796-.6251-.6251-.6251zM14.3751 22.5h-5c-.34553 0-.6251.2796-.6251.6251 0 .3454.27957.6249.6251.6249h5c.3455 0 .6249-.2795.6249-.6249 0-.3455-.2796-.6251-.6249-.6251zM73.1249 22.5h-4.9998c-.3455 0-.6251.2796-.6251.6251 0 .3454.2796.6249.6251.6249h4.9998c.3455 0 .6251-.2795.6251-.6249 0-.3455-.2796-.6251-.6251-.6251zM56.875 68.7498H45V48.125c0-.3455-.2795-.6251-.6249-.6251-.3455 0-.6251.2796-.6251.6251v21.2499c0 .3456.2796.625.6251.625H56.875c.3453 0 .6249-.2794.6249-.625 0-.3455-.2796-.6251-.6249-.6251zM56.875 46.2498H45v-1.25h11.875c.3453 0 .6249-.2795.6249-.625 0-.3453-.2796-.6249-.6249-.6249H44.3751c-.3455 0-.6251.2796-.6251.6249v2.5001c0 .3454.2796.6249.6251.6249H56.875c.3453 0 .6249-.2795.6249-.6249 0-.3455-.2796-.6251-.6249-.6251zM56.875 71.25H44.3751c-.3455 0-.6251.2796-.6251.6251 0 .3454.2796.6249.6251.6249H56.875c.3453 0 .6249-.2795.6249-.6249 0-.3455-.2796-.6251-.6249-.6251z"/><path d="M44.3751 69.9999c-.3455 0-.6251.2796-.6251.6251v1.25c0 .3454.2796.6249.6251.6249.3454 0 .6249-.2795.6249-.6249v-1.25c0-.3455-.2795-.6251-.6249-.6251zM51.875 50h-2.5001c-.3453 0-.6249.2794-.6249.6249 0 .3454.2796.625.6249.625h2.5001c.3455 0 .625-.2796.625-.625 0-.3455-.2795-.6249-.625-.6249zM55.6249 53.7499h-10c-.3455 0-.6249.2796-.6249.6249 0 .3455.2794.625.6249.625h10c.3455 0 .6251-.2795.6251-.625 0-.3453-.2796-.6249-.6251-.6249zM51.875 57.4999h-2.5001c-.3453 0-.6249.2796-.6249.6249 0 .3455.2796.6251.6249.6251h2.5001c.3455 0 .625-.2796.625-.6251 0-.3453-.2795-.6249-.625-.6249zM51.875 64.9999h-2.5001c-.3453 0-.6249.2796-.6249.6251 0 .3453.2796.6249.6249.6249h2.5001c.3455 0 .625-.2796.625-.6249 0-.3455-.2795-.6251-.625-.6251zM55.6249 61.25h-10c-.3455 0-.6249.2796-.6249.6251 0 .3454.2794.6249.6249.6249h10c.3455 0 .6251-.2797.6251-.6249 0-.3455-.2796-.6251-.6251-.6251zM43.125 43.7499H24.3751c-.3455 0-.6251.2795-.6251.6249 0 .3455.2796.6249.6251.6249H43.125c.3454 0 .6249-.2794.6249-.6249 0-.3454-.2795-.6249-.6249-.6249zM43.125 71.25H24.3751c-.3455 0-.6251.2796-.6251.6251 0 .3454.2796.6249.6251.6249H43.125c.3454 0 .6249-.2795.6249-.6249 0-.3455-.2795-.6251-.6249-.6251zM31.8749 41.25h-6.25c-.3456 0-.6251.2796-.6251.6251s.2797.6249.6251.6249h6.25c.3455 0 .6251-.2794.6251-.6249 0-.3455-.2796-.6251-.6251-.6251zM41.875 41.25h-6.2501c-.3453 0-.6249.2796-.6249.6251s.2796.6249.6249.6249h6.2501c.3455 0 .6249-.2794.6249-.6249 0-.3455-.2794-.6251-.6249-.6251zM35.6249 47.4999h-3.75c-.3453 0-.6249.2796-.6249.6251 0 .3453.2796.6249.6249.6249h3.75c.3455 0 .6251-.2796.6251-.6249 0-.3455-.2796-.6251-.6251-.6251zM41.8748 51.2499H25.6249c-.3456 0-.6251.2796-.6251.6251v17.5c0 .3455.2797.6249.6251.6249h16.2499c.3456 0 .625-.2794.625-.6251V51.875c0-.3455-.2794-.6251-.625-.6251zm-.6249 17.5h-15v-16.25h15v16.25z"/><path d="M39.3751 53.7499h-11.25c-.3455 0-.6251.2796-.6251.6249 0 .3455.2796.625.6251.625h11.25c.3455 0 .6251-.2795.6251-.625 0-.3453-.2797-.6249-.6251-.6249zM75.6251 41.25H60.6252c-.3455 0-.625.2796-.625.6251s.2795.6249.625.6249h14.9999c.3455 0 .625-.2794.625-.6249 0-.3455-.2795-.6251-.625-.6251z"/><path d="M60.6249 41.25c-.3455 0-.6249.2796-.6249.6251v1.2499c0 .3455.2794.6251.6249.6251.3456 0 .6251-.2796.625-.6251v-1.2499c0-.3455-.2794-.6251-.625-.6251zM75.6251 41.25c-.3455 0-.6251.2796-.6251.6251v1.2499c0 .3455.2796.6251.6251.6251s.6249-.2796.6249-.6251v-1.2499c0-.3455-.2794-.6251-.6249-.6251zM68.1251 36.2501c-.3455 0-.6251.2794-.6251.625v3.7499c0 .3455.2796.625.6251.625.3454 0 .625-.2795.625-.625v-3.7499c0-.3456-.2796-.625-.625-.625zM70.6249 40c-.3455 0-.6249.2794-.6249.6249v1.2501c0 .3455.2794.6249.6249.6249.3454 0 .625-.2794.625-.6249v-1.2501c0-.3455-.2796-.6249-.625-.6249zM65.6251 40c-.3455 0-.6251.2794-.6251.6249v1.2501c0 .3455.2796.6249.6251.6249s.6249-.2794.6249-.6249v-1.2501c0-.3455-.2794-.6249-.6249-.6249zM61.8751 8.75c-.3455 0-.6251.27957-.6251.6251v16.25c0 .3455.2796.6251.6251.6251.3454 0 .6249-.2796.6249-.6253V9.3751c0-.34553-.2794-.6251-.6249-.6251zM41.8748 21.2501H25.6249c-.3456 0-.6251.2794-.6251.625 0 .3455.2797.6249.6251.6249h16.2499c.3456 0 .625-.2794.625-.6249 0-.3456-.2794-.625-.625-.625z"/><path d="M41.8749 20.0001c-.3455 0-.6249.2796-.6249.625v1.25c0 .3455.2794.6249.6249.6249.3456 0 .625-.2794.625-.6249v-1.25c0-.3454-.2794-.625-.625-.625zM25.6248 20.0001c-.3455 0-.625.2796-.625.625v1.25c0 .3455.2797.6249.625.6249.3456 0 .6251-.2794.6251-.6249v-1.25c0-.3454-.2795-.625-.6251-.625zM40.6248 18.75H26.8749c-.3453 0-.6249.2796-.6249.6251 0 .3454.2796.6249.6249.6249h13.7499c.3456 0 .6251-.2797.6251-.6249 0-.3455-.2795-.6251-.6251-.6251zM30.6251 7.50012c-.3455 0-.6251.27942-.6251.62494V18.125c0 .3455.2797.625.6251.625.3455 0 .6251-.2796.6251-.625V8.12506c0-.34552-.2796-.62494-.6251-.62494zM36.8749 7.50012c-.3453 0-.6249.27942-.6249.62494V18.125c0 .3455.2796.625.6249.625.3456 0 .625-.2796.6251-.625V8.12506c0-.34552-.2795-.62494-.6251-.62494zM29.3751 23.75c-.3455 0-.6251.2796-.6251.6251v2.3705c0 .3455.2796.6251.6251.6251.3454 0 .6249-.2796.6249-.6251v-2.3705c0-.3455-.2795-.6251-.6249-.6251zM38.1251 23.75c-.3455 0-.6251.2796-.6251.6251v2.3705c0 .3455.2796.6251.6251.6251.3454 0 .6249-.2796.6249-.6251v-2.3705c0-.3455-.2795-.6251-.6249-.6251zM33.7499 23.75c-.3453 0-.6249.2796-.6249.6251v4.8706c0 .3453.2796.6249.6249.6249.3456 0 .625-.2796.6251-.6249v-4.8706c0-.3455-.2795-.6251-.6251-.6251z"/><path d="M26.8747 18.75c-1.0339 0-1.8749.8411-1.8749 1.875 0 .3455.2797.6251.6251.6251.3455 0 .625-.2798.6249-.6251 0-.3441.2807-.625.6249-.625.3455 0 .6251-.2795.6251-.6249 0-.3455-.2796-.6251-.6251-.6251zM40.6249 18.75c-.3453 0-.6249.2796-.6249.6251 0 .3454.2796.6249.6249.6249.3443 0 .6251.2809.6251.625 0 .3455.2795.6251.625.6251s.6249-.2798.6249-.6251c0-1.0339-.8411-1.875-1.875-1.875z"/></g><defs><clipPath id="clip0"><path fill="#fff" d="M0 0h80v80H0z"/></clipPath></defs></svg>