<svg xmlns="http://www.w3.org/2000/svg" fill="none" viewBox="0 0 80 80"><defs/><g fill="#CA6D38" clip-path="url(#clip0)"><path d="M44.4116 75h-.0122c-.3442 0-.6177.2796-.6177.6251 0 .3454.2856.625.6299.625.3466 0 .6249-.2796.6249-.625 0-.3455-.2783-.6251-.6249-.6251zM76.2499 8.12488c-.3455 0-.6249.27943-.6249.6249 0 .34546.2794.62505.6249.62505 1.3793 0 2.5001 1.12117 2.5001 2.50007s-1.1208 2.5-2.5001 2.5c-.3455 0-.6249.2796-.6249.6251s.2794.6249.6249.6249c2.0679 0 3.75-1.6821 3.75-3.75 0-2.06793-1.6821-3.75002-3.75-3.75002z"/><path d="M79.3749 11.2499c-.3455 0-.6249.2796-.6249.625v50.0003c0 .3454.2794.625.6249.625.3454 0 .6249-.2797.6249-.6252V11.8749c0-.3454-.2795-.625-.6249-.625zM76.25 14.375h-4.3749c-.3457 0-.6251.2796-.6251.6251 0 .3454.2794.6249.6251.6249H76.25c.3454 0 .625-.2795.625-.6249 0-.3455-.2796-.6251-.625-.6251zM76.25 8.125H3.75005c-.34546 0-.62505.27944-.62505.6249s.27959.62505.62505.62505H76.25c.3455 0 .6251-.27959.6251-.62505s-.2796-.6249-.6251-.6249zM76.25 64.3751h-4.3749c-.3457 0-.6251.2796-.6251.6251 0 .3454.2794.6249.6251.6249H76.25c.3454 0 .625-.2795.625-.6249 0-.3455-.2796-.6251-.625-.6251zM69.3752 58.1251H3.75005c-.34546 0-.62505.2796-.62505.6249 0 .3456.27959.6251.62505.6251H69.3752c.3453 0 .6249-.2795.6249-.6251 0-.3453-.2796-.6249-.6249-.6249z"/><path d="M79.3749 61.25c-.3455 0-.6249.2794-.6249.6249 0 1.3795-1.1208 2.5001-2.5001 2.5001-.3455 0-.6249.2796-.6249.625 0 .3455.2794.6249.6249.6249 2.0679 0 3.75-1.6821 3.7499-3.75 0-.3455-.2795-.6249-.6249-.6249zM3.75001 58.1251c-1.37887 0-2.50006-1.1207-2.50006-2.5 0-.3455-.279591-.6251-.625053-.6251C.279436 55 0 55.2796 0 55.6251c0 2.0679 1.68209 3.75 3.75001 3.75.34546 0 .6249-.2795.62505-.6251 0-.3453-.27959-.6249-.62505-.6249zM71.8751 14.375c-.3457 0-.6251.2796-.6251.6251v50c0 .3455.2794.6249.6251.6249.3453 0 .6249-.2794.6249-.6249v-50c0-.3455-.2796-.6251-.6249-.6251zM3.75001 8.12495c-1.37887 0-2.50006-1.12135-2.50006-2.50006 0-1.37872 1.12134-2.50006 2.50006-2.50006.34546 0 .62505-.27944.62505-.6249s-.27959-.62505-.62505-.62505C1.68209 1.87488 0 3.55713 0 5.62504c0 2.06792 1.68209 3.75001 3.75001 3.75001.34546 0 .62505-.27975.62505-.62521 0-.34546-.27959-.62489-.62505-.62489z"/><path d="M8.12512 1.87488H3.75005c-.34546 0-.62505.27959-.62505.62505s.27959.6249.62505.6249h4.37491c.34546 0 .62505-.27944.62505-.6249s-.27943-.62505-.62489-.62505z"/><path d="M8.12481 1.87488c-.34546 0-.62505.27959-.62505.62505v3.75001c0 .34546.27959.62506.62505.62506s.62505-.2796.6249-.62506V2.49993c0-.34546-.27944-.62505-.6249-.62505zM.624897 5C.279436 5 0 5.27959 0 5.62505V55.6251c0 .3455.279436.6249.624897.6249.345462 0 .625053-.2794.625053-.6249V5.62505C1.24995 5.27959.970359 5 .624897 5zM14.3751 16.875c-.3455 0-.6251.2796-.6251.6251V23.75c0 .3454.2796.625.6251.625.3454 0 .6249-.2796.625-.625v-6.2499c0-.3455-.2796-.6251-.625-.6251zM14.3751 26.8751c-.3455 0-.6251.2795-.6251.6249v5.0001c0 .3455.2796.6249.6251.6249.3454 0 .6249-.2796.625-.6249V27.5c0-.3454-.2796-.6249-.625-.6249zM10.6251 31.875c-.3455 0-.6251.2796-.6251.6251V38.75c0 .3454.2796.625.6251.625.3454 0 .6249-.2796.6249-.625v-6.2499c0-.3455-.2795-.6251-.6249-.6251zM10.6251 41.8751c-.3455 0-.6251.2796-.6251.6249v5.0001c0 .3455.2796.6249.6251.6249.3454 0 .6249-.2794.6249-.6249V42.5c0-.3453-.2795-.6249-.6249-.6249z"/><path d="M25.625 16.875H14.453c-.3454 0-.6249.2796-.6249.6251 0 .3454.2795.6249.6249.6249h11.172c.3454 0 .6249-.2795.6249-.6249 0-.3455-.2795-.6251-.6249-.6251zM30.6251 31.875h-20c-.3455 0-.6251.2796-.6251.6251 0 .3454.2796.6249.6251.6249h20c.3454 0 .625-.2795.625-.6249 0-.3455-.2796-.6251-.625-.6251zM29.3751 46.8751h-18.75c-.3455 0-.6251.2796-.6251.6251 0 .3454.2796.6249.6251.6249h18.75c.3455 0 .6251-.2795.6251-.6249 0-.3455-.2796-.6251-.6251-.6251z"/><path d="M29.3751 30.6251c-.3455 0-.6251.2796-.6251.6251v1.2487c0 .3454.2796.6249.6251.6249.3454 0 .6249-.2795.625-.6249v-1.2487c0-.3455-.2796-.6251-.625-.6251zM46.8749 30.6251c-.3455 0-.6249.2796-.6249.6251v1.2487c0 .3454.2794.6249.6249.6249.3455 0 .625-.2795.6249-.6249v-1.2487c0-.3455-.2794-.6251-.6249-.6251zM29.3751 16.875c-.3455 0-.6251.2796-.6251.6251V27.5c0 .3454.2796.625.6251.625.3454 0 .6249-.2797.625-.625v-9.9999c0-.3455-.2796-.6251-.625-.6251zM38.1251 16.875c-.3455 0-.6251.2796-.6251.6251V27.5c0 .3454.2796.625.6251.625.3454 0 .625-.2797.625-.625v-9.9999c0-.3455-.2796-.6251-.625-.6251z"/><path d="M40.625 26.8751h-5.0001c-.3455 0-.6249.2795-.6249.6249 0 .3455.2794.6251.6249.6251h5.0001c.3455 0 .6249-.2796.6249-.6251 0-.3454-.2794-.6249-.6249-.6249zM31.8751 26.8751h-2.5c-.3455 0-.6251.2795-.6251.6249 0 .3455.2796.6251.6251.6251h2.5c.3455 0 .6251-.2796.6251-.6251 0-.3454-.2796-.6249-.6251-.6249zM46.8749 26.8751h-2.5001c-.3455 0-.625.2795-.625.6249 0 .3455.2795.6251.625.6251h2.5001c.3454 0 .6249-.2796.6249-.6251 0-.3454-.2795-.6249-.6249-.6249zM60.6251 16.875h-31.25c-.3455 0-.6251.2796-.6251.6251 0 .3454.2796.6249.6251.6249h31.25c.3454 0 .6249-.2795.6249-.6249 0-.3455-.2795-.6251-.6249-.6251z"/><path d="M46.8749 16.875c-.3455 0-.6249.2796-.6249.6251V27.5c0 .3454.2794.625.6249.625.3455 0 .625-.2797.6249-.625v-9.9999c0-.3455-.2794-.6251-.6249-.6251zM60.625 16.8749c-.3454 0-.625.2796-.625.625V51.25c0 .3455.2796.6249.625.6249.3455 0 .6249-.2794.6249-.6249V17.4999c0-.3454-.2794-.625-.6249-.625z"/><path d="M60.625 31.875H34.3749c-.3455 0-.6249.2796-.6249.6251 0 .3454.2794.6249.6249.6249H60.625c.3454 0 .6249-.2795.6249-.6249 0-.3455-.2795-.6251-.6249-.6251zM29.3751 46.875c-.3455 0-.6251.2796-.6251.6251v3.75c0 .3454.2796.6249.6251.6249.3454 0 .6249-.2795.625-.6249v-3.75c0-.3455-.2796-.6251-.625-.6251z"/><path d="M60.6251 50.6251h-31.25c-.3455 0-.6251.2795-.6251.6249 0 .3455.2796.6249.6251.6249h31.25c.3454 0 .6249-.2794.6249-.6249 0-.3454-.2795-.6249-.6249-.6249zM29.3751 41.8751c-.3455 0-.6251.2796-.6251.6249v5.0001c0 .3455.2796.6249.6251.6249.3454 0 .6249-.2794.625-.6249V42.5c0-.3453-.2796-.6249-.625-.6249zM16.8749 63.1251c-2.4121 0-4.3749 1.963-4.3749 4.3751 0 2.4121 1.9628 4.375 4.3749 4.375s4.3751-1.9629 4.3751-4.375c0-2.4121-1.963-4.3751-4.3751-4.3751zm0 7.5002c-1.7231 0-3.1249-1.4014-3.1249-3.1251 0-1.7237 1.4018-3.1251 3.1249-3.1251 1.7231 0 3.1251 1.4014 3.1251 3.1251 0 1.7237-1.402 3.1251-3.1251 3.1251z"/><path d="M12.089 65.625H8.12481c-.34546 0-.62505.2796-.62505.625 0 .3455.27959.6251.62505.6251H12.089c.3455 0 .6251-.2796.6251-.6251 0-.3454-.2796-.625-.6251-.625zM12.089 68.1251H8.12481c-.34546 0-.62505.2796-.62505.6251 0 .3454.27959.625.62505.625H12.089c.3455 0 .6251-.2796.6251-.625 0-.3455-.2796-.6251-.6251-.6251z"/><path d="M8.12501 68.1251c-.34484 0-.62506-.2806-.62506-.6249 0-.3442.28022-.6249.62506-.6249.3453 0 .62489-.2795.62489-.625s-.27943-.6251-.62489-.6251c-1.03389 0-1.87501.8412-1.87501 1.875 0 1.0339.84112 1.875 1.87501 1.875.34546 0 .62489-.2795.62489-.625s-.27943-.6251-.62489-.6251zM16.8748 65.6252c-1.0341 0-1.875.8412-1.875 1.875 0 1.0339.8411 1.875 1.875 1.875 1.034 0 1.875-.8411 1.875-1.875 0-1.0338-.841-1.875-1.875-1.875zm0 2.4998c-.3449 0-.6249-.2807-.6249-.6249s.28-.6249.6249-.6249c.3448 0 .625.2807.625.6249s-.2802.6249-.625.6249zM50.6249 65.625H22.9075c-.3454 0-.625.2796-.625.625 0 .3455.2796.6251.625.6251h27.7174c.3454 0 .625-.2796.625-.6251 0-.3454-.2796-.625-.625-.625zM50.6249 68.1251H22.9075c-.3454 0-.625.2796-.625.6251 0 .3454.2796.625.625.625h27.7174c.3454 0 .625-.2796.625-.625 0-.3455-.2796-.6251-.625-.6251zM50.6251 73.1254H11.875c-.0751 0-.1496.0134-.2197.0389l-5.00007 1.875c-.24345.0928-.40523.3247-.40523.586s.16162.4931.40523.5859l5.00007 1.875c.0701.0255.1446.039.2197.039h38.7501c.3454 0 .625-.2795.625-.6248v-3.75c0-.3456-.2796-.625-.625-.625zm-.6249 3.7498H11.9886l-3.33382-1.2501 3.33382-1.2499h38.0116v2.5z"/><path d="M13.645 75.2784l-1.2501-1.875c-.191-.2879-.5786-.3659-.8666-.1732-.2874.1917-.365.5786-.1734.8666l1.25 1.875c.1203.1806.3187.2784.5207.2784.119 0 .2394-.0341.3461-.1052.2874-.1916.365-.5784.1733-.8666z"/><path d="M13.4717 75.1053c-.2889-.1931-.6764-.115-.8668.1732l-1.25 1.875c-.1916.2881-.114.675.1734.8666.1068.0709.227.105.3461.105.202 0 .4003-.0976.5205-.2782l1.2501-1.875c.1917-.2882.1141-.6749-.1733-.8666zM46.8749 73.1252c-.3455 0-.6249.2795-.6249.6251v3.75c0 .3455.2794.6249.6249.6249.3455 0 .625-.2794.6249-.6249v-3.75c0-.3456-.2794-.6251-.6249-.6251zM41.8751 73.1252c-.3455 0-.6251.2795-.6251.6251v3.75c0 .3455.2796.6249.6251.6249.3454 0 .625-.2794.6249-.6249v-3.75c0-.3456-.2795-.6251-.6249-.6251zM61.875 65.6239h-6.2499c-.3457 0-.6251.2796-.6251.6251v11.2512c0 .3455.2794.6249.6251.6249h6.2499c.3454 0 .6252-.2794.625-.6249V66.249c0-.3455-.2796-.6251-.625-.6251zm-.6251 11.2513H56.25V66.874h4.9999v10.0012z"/><path d="M60.6251 68.1251h-3.75c-.3455 0-.6251.2796-.6251.6251 0 .3454.2796.625.6251.625h3.75c.3454 0 .6249-.2796.6249-.625 0-.3455-.2795-.6251-.6249-.6251zM60.6251 74.3751h-3.75c-.3455 0-.6251.2796-.6251.6249 0 .3456.2796.6251.6251.6251h3.75c.3454 0 .6249-.2795.6249-.6251 0-.3453-.2795-.6249-.6249-.6249z"/></g><defs><clipPath id="clip0"><path fill="#fff" d="M0 0h80v80H0z"/></clipPath></defs></svg>