<svg xmlns="http://www.w3.org/2000/svg" fill="none" viewBox="0 0 80 80"><defs/><path fill="#CA6D38" d="M32.5 49.375H15a.626.626 0 00-.625.625v5c0 .347.28.625.625.625h17.5a.624.624 0 00.625-.625v-5a.625.625 0 00-.625-.625zm-.625 5h-16.25v-3.75h16.25v3.75zM65 16.875H47.5a.625.625 0 100 1.25H65a.625.625 0 100-1.25z"/><path fill="#CA6D38" d="M65.442 17.058a.625.625 0 00-.884 0l-32.5 32.5a.625.625 0 10.884.884l32.5-32.5a.625.625 0 000-.884zm0 5.001a.624.624 0 00-.884 0l-32.5 32.5a.625.625 0 00.884.883l32.5-32.5a.624.624 0 000-.883zm-17.5-5.001a.625.625 0 00-.884 0l-32.5 32.5a.624.624 0 10.884.884l32.5-32.5a.625.625 0 000-.884z"/><path fill="#CA6D38" d="M65 16.875a.625.625 0 00-.625.625v5a.625.625 0 101.25 0v-5a.625.625 0 00-.625-.625zM42.883 39.508c-.034-.027-3.292-2.485-7.076 1.301l-8.749 8.75.884.883 8.75-8.75c2.982-2.981 5.33-1.27 5.425-1.198a.622.622 0 00.876-.11.624.624 0 00-.11-.876zm-6.816-14.949a.625.625 0 00-.884 0l-3.75 3.75a.625.625 0 10.884.884l3.75-3.75a.625.625 0 000-.884zM18.125 56.875H.625A.625.625 0 000 57.5v5c0 .347.28.625.625.625h17.5a.624.624 0 00.625-.625v-5a.625.625 0 00-.625-.625zm-.625 5H1.25v-3.75H17.5v3.75z"/><path fill="#CA6D38" d="M37.502 24.372h-4.377a.624.624 0 100 1.25h4.377a.625.625 0 100-1.25zM23.528 57.098a.624.624 0 00-.884 0l-4.96 4.96a.624.624 0 10.883.884l4.96-4.96a.625.625 0 000-.884z"/><path fill="#CA6D38" d="M33.567 24.558a.625.625 0 00-.884 0l-32.5 32.5a.625.625 0 10.884.884l32.5-32.5a.625.625 0 000-.884zm13.308 32.317h-17.5a.625.625 0 00-.625.625v5c0 .347.28.625.625.625h17.5a.624.624 0 00.625-.625v-5a.625.625 0 00-.625-.625zm-.625 5H30v-3.75h16.25v3.75zm33.125-37.5H65.006a.624.624 0 100 1.25h14.369a.625.625 0 100-1.25z"/><path fill="#CA6D38" d="M79.817 24.558a.625.625 0 00-.884 0l-32.5 32.5a.625.625 0 10.884.884l32.5-32.5a.625.625 0 000-.884zm0 5.001a.625.625 0 00-.884 0l-32.5 32.5a.624.624 0 10.884.883l32.5-32.5a.625.625 0 000-.883z"/><path fill="#CA6D38" d="M79.375 24.375a.624.624 0 00-.625.625v5A.624.624 0 1080 30v-5a.624.624 0 00-.625-.625zM41.067 52.059a.625.625 0 00-.884 0l-5 5a.624.624 0 10.884.883l5-5a.625.625 0 000-.884zm10-3.75a.625.625 0 00-.884 0l-8.75 8.747a.624.624 0 10.884.884l8.75-8.748a.625.625 0 000-.883zm16.199-23.697a.626.626 0 00-.884 0l-5.34 5.338.884.884 5.34-5.338a.625.625 0 000-.884zm-14.947-7.554a.625.625 0 00-.884 0l-6.25 6.252a.625.625 0 10.883.884l6.251-6.252a.625.625 0 000-.884zm6.248 0a.625.625 0 00-.884 0L45.184 29.557a.625.625 0 10.884.883l12.499-12.498a.625.625 0 000-.884z"/><circle cx="64" cy="56" r="14.45" fill="#fff" stroke="#CA6D38" stroke-width="1.1"/><path stroke="#CA6D38" stroke-width="1.1" d="M58 56l4 4 8-8"/></svg>