<svg xmlns="http://www.w3.org/2000/svg" fill="none" viewBox="0 0 50 50"><defs/><path fill="#CA6D38" d="M24.219 18.75a.781.781 0 101.562 0v-1.563a.781.781 0 10-1.562 0v1.563zM25 20.313a.781.781 0 00-.781.78v1.563a.781.781 0 101.562 0v-1.562a.781.781 0 00-.781-.782zm4.666 11.718l-1.404-.686a.781.781 0 10-.686 1.404l1.404.686a.78.78 0 10.686-1.404zm3.51 1.714l-1.404-.686a.782.782 0 10-.685 1.404l1.404.686a.782.782 0 00.686-1.404zm3.51 1.714l-1.403-.686a.781.781 0 00-.686 1.405l1.404.685a.781.781 0 00.686-1.404z"/><path fill="#CA6D38" d="M48.787 41.49l-7.38-3.695V17.969a.782.782 0 00-.432-.7L25.78 9.675V4.688a.781.781 0 10-1.562 0v4.986L9.025 17.27a.783.783 0 00-.431.699V37.83l-7.378 3.656a.78.78 0 10.693 1.4l7.5-3.716 15.241 7.622a.787.787 0 00.7 0l15.279-7.64 7.459 3.733a.772.772 0 00.833-.086.782.782 0 00-.134-1.31zM24.22 44.83l-13.057-6.528.833-.413a.781.781 0 10-.694-1.4l-1.145.568V19.232l14.063 7.032V44.83zM25 24.908l-13.878-6.94L24.22 11.42v3.424a.781.781 0 101.562 0V11.42l13.097 6.549L25 24.909zm14.844 12.105L38.8 36.49a.781.781 0 00-.7 1.398l.783.391L25.78 44.83V26.264l14.063-7.032v17.78z"/><path fill="#CA6D38" d="M20.775 33.514a.777.777 0 00.342-.08l1.403-.685a.781.781 0 10-.685-1.404l-1.404.686a.781.781 0 00.344 1.484zm-3.51 1.714a.779.779 0 00.341-.08l1.404-.685a.78.78 0 10-.685-1.404l-1.404.686a.781.781 0 00.343 1.483zm-3.51 1.714a.782.782 0 00.341-.08l1.404-.685a.781.781 0 00-.685-1.404l-1.404.686a.782.782 0 00.343 1.483z"/></svg>