<svg xmlns="http://www.w3.org/2000/svg" fill="none" viewBox="0 0 50 50"><defs/><path fill="#CA6D38" d="M24.2188 18.75c0 .2072.0823.4059.2288.5524.1465.1465.3452.2288.5524.2288s.4059-.0823.5524-.2288c.1465-.1465.2288-.3452.2288-.5524v-1.5625c0-.2072-.0823-.4059-.2288-.5524-.1465-.1465-.3452-.2289-.5524-.2289s-.4059.0824-.5524.2289c-.1465.1465-.2288.3452-.2288.5524V18.75zM25 20.3125c-.2072 0-.4059.0823-.5524.2288-.1465.1465-.2288.3452-.2288.5525v1.5624c0 .2073.0823.406.2288.5525.1465.1465.3452.2288.5524.2288s.4059-.0823.5524-.2288c.1465-.1465.2288-.3452.2288-.5525v-1.5624c0-.2073-.0823-.406-.2288-.5525-.1465-.1465-.3452-.2288-.5524-.2288zM29.6663 32.0312l-1.4045-.6859c-.0924-.0465-.193-.0741-.2961-.0814-.1031-.0073-.2067.006-.3046.039-.098.0331-.1884.0852-.266.1535-.0777.0682-.141.1512-.1864.2441-.0453.0929-.0718.1938-.0778.297-.0061.1032.0084.2066.0426.3041.0342.0976.0874.1874.1566.2642.0691.0768.1528.1392.2462.1835l1.404.6854c.0925.0476.1935.0762.2971.0842.1037.0081.2079-.0047.3065-.0374.0987-.0328.1898-.0849.2681-.1533.0782-.0684.1421-.1517.1877-.2451.0456-.0934.0722-.195.0781-.2988.0059-.1038-.009-.2077-.0438-.3056-.0348-.098-.0887-.188-.1587-.2649-.0701-.0768-.1547-.1389-.249-.1826zM33.1766 33.7446l-1.4041-.6855c-.0922-.045-.1924-.0715-.2948-.0778-.1024-.0063-.2051.0077-.3021.041-.196.0674-.3571.2099-.448.3961-.0909.1862-.1041.4009-.0368.5968.0674.196.2099.3572.3961.4481l1.4041.6855c.1862.0909.4009.1041.5969.0368.1959-.0674.3571-.2099.448-.3961.0909-.1862.1041-.4009.0367-.5969-.0674-.1959-.2098-.3571-.396-.448zM36.6868 35.4591l-1.4042-.6856c-.0922-.045-.1923-.0714-.2947-.0777-.1024-.0063-.2051.0076-.3021.041-.196.0674-.3571.2099-.448.3961-.0909.1862-.1041.4009-.0368.5968.0674.196.2099.3571.3961.448l1.4041.6856c.1862.0909.4009.1041.5969.0367.1959-.0674.3571-.2098.448-.396.0909-.1862.1041-.4009.0367-.5969-.0674-.1959-.2098-.3571-.396-.448z"/><path fill="#CA6D38" d="M48.7872 41.4893l-7.3809-3.6944V17.9688c0-.1452-.0404-.2874-.1166-.4109-.0763-.1235-.1853-.2233-.3151-.2884L25.7813 9.67383V4.6875c0-.2072-.0823-.40591-.2288-.55243-.1465-.14651-.3453-.22882-.5525-.22882s-.4059.08231-.5524.22882c-.1465.14652-.2288.34523-.2288.55243v4.98633L9.02543 17.2695c-.12972.0651-.23879.1649-.31501.2884-.07623.1235-.11661.2657-.11663.4109v19.8623l-7.37793 3.6562c-.09195.0455-.17404.1087-.241564.186-.06753.0772-.119182.167-.152009.2642-.032827.0972-.046186.2-.039313.3023.006873.1024.033843.2024.07937.2944.045526.0919.108718.174.185966.2415.07725.0676.16704.1192.26426.152.09721.0329.19993.0462.30231.0394.10237-.0069.20239-.0339.29434-.0794l7.49902-3.7168L24.6504 46.793c.1087.0539.2283.082.3496.082.1213 0 .241-.0281.3496-.082l15.2793-7.6397 7.459 3.7324c.1081.0547.2275.0831.3487.0831.1759 0 .3466-.0593.4846-.1684.138-.1091.2351-.2616.2757-.4328.0406-.1711.0222-.351-.0522-.5104-.0744-.1594-.2003-.289-.3575-.3679zm-24.5684 3.3408l-13.0567-6.5283.8331-.4131c.0939-.0444.1781-.107.2475-.1843.0695-.0772.1228-.1675.157-.2657.0341-.0981.0483-.202.0418-.3057-.0066-.1037-.0337-.205-.0799-.2981-.0462-.0931-.1105-.176-.1891-.2439-.0786-.0679-.1699-.1195-.2687-.1517-.0988-.0322-.203-.0443-.3065-.0357-.1036.0085-.2043.0377-.2965.0857l-1.1445.5673V19.2324l14.0625 7.0313v18.5664zM25 24.9082l-13.8779-6.9394 13.0967-6.5489v3.4239c0 .2072.0823.4059.2288.5524.1465.1465.3452.2288.5524.2288s.406-.0823.5525-.2288c.1465-.1465.2288-.3452.2288-.5524v-3.4239l13.0967 6.5489L25 24.9082zm14.8438 12.1045l-1.044-.5225c-.1853-.0927-.3998-.108-.5964-.0425-.1966.0654-.3592.2063-.4519.3917-.0927.1853-.108.3998-.0425.5964.0654.1966.2063.3592.3916.4519l.7823.3916-13.1016 6.5508V26.2637l14.0625-7.0313v17.7803z"/><path fill="#CA6D38" d="M20.7747 33.5142c.1185-.0001.2355-.0273.3418-.0795l1.404-.6854c.0935-.0443.1772-.1067.2463-.1835.0692-.0768.1224-.1666.1566-.2642.0342-.0975.0487-.2009.0426-.3041-.006-.1032-.0325-.2041-.0779-.297-.0453-.0929-.1086-.1759-.1863-.2441-.0776-.0683-.1681-.1204-.266-.1535-.0979-.033-.2015-.0463-.3046-.039-.1031.0073-.2038.0349-.2961.0814l-1.4036.6859c-.1589.0774-.2868.2065-.3629.366-.076.1595-.0957.3402-.0559.5123.0398.1722.1369.3258.2753.4358.1384.1099.31.1696.4867.1694v-.0005zM17.2646 35.2281c.1185-.0001.2354-.0272.3418-.0793l1.4041-.6855c.1862-.0909.3287-.2521.396-.4481.0674-.1959.0542-.4106-.0367-.5968-.0909-.1862-.2521-.3287-.448-.3961-.196-.0674-.4107-.0541-.5969.0368l-1.4041.6855c-.1588.0775-.2868.2065-.3628.3661-.0761.1595-.0958.3401-.0559.5123.0398.1722.1369.3258.2753.4357s.31.1696.4868.1694h.0004zM13.7545 36.9421c.1185-.0002.2353-.0273.3418-.0793l1.4041-.6855c.1862-.091.3287-.2521.396-.4481.0674-.1959.0542-.4106-.0367-.5968-.0909-.1862-.2521-.3287-.448-.3961-.196-.0674-.4107-.0542-.5969.0368l-1.4041.6855c-.1588.0775-.2868.2065-.3628.366-.0761.1596-.0958.3402-.0559.5124.0398.1722.1369.3258.2753.4357s.31.1696.4868.1694h.0004z"/></svg>