<svg xmlns="http://www.w3.org/2000/svg" fill="none" viewBox="0 0 50 50"><defs/><path fill="#CA6D38" d="M41.8953 48.6486H8.10811c-.1792 0-.35106-.0712-.47777-.1979-.12672-.1267-.19791-.2986-.19791-.4778V2.02699c0-.1792.07119-.35106.19791-.47777.12671-.12671.29857-.1979.47777-.1979H31.0878c.1791-.00014.3509.07082.4777.1973L42.3764 12.3533c.1267.1267.1979.2986.1979.4777v35.1419c0 .0891-.0176.1772-.0517.2594-.0342.0822-.0843.1568-.1474.2196s-.138.1125-.2203.1462c-.0824.0338-.1706.051-.2596.0505zM8.78379 47.2973H41.223V13.1115L30.8047 2.70267H8.78379V47.2973z"/><path fill="#CA6D38" d="M41.8953 13.5202H31.0845c-.1792 0-.351-.0712-.4778-.1979-.1267-.1267-.1979-.2985-.1979-.4777V2.02699c0-.1792.0712-.35106.1979-.47777.1268-.12671.2986-.1979.4778-.1979.1792 0 .3511.07119.4778.1979.1267.12671.1979.29857.1979.47777V12.1689h10.1351c.1792 0 .3511.0712.4778.1979.1267.1267.1979.2986.1979.4778 0 .1792-.0712.351-.1979.4777-.1267.1267-.2986.1979-.4778.1979zM37.1621 25.5068H12.8412c-.1792 0-.3511-.0712-.4778-.198-.1267-.1267-.1979-.2985-.1979-.4777 0-.1792.0712-.3511.1979-.4778.1267-.1267.2986-.1979.4778-.1979h24.3209c.1792 0 .3511.0712.4778.1979.1267.1267.1979.2986.1979.4778 0 .1792-.0712.351-.1979.4777-.1267.1268-.2986.198-.4778.198zM37.1621 20.1581H12.8412c-.1792 0-.3511-.0712-.4778-.1979-.1267-.1267-.1979-.2986-.1979-.4778 0-.1792.0712-.351.1979-.4777.1267-.1267.2986-.1979.4778-.1979h24.3209c.1792 0 .3511.0712.4778.1979.1267.1267.1979.2985.1979.4777 0 .1792-.0712.3511-.1979.4778-.1267.1267-.2986.1979-.4778.1979zM27.027 14.8101H12.8412c-.1792 0-.3511-.0712-.4778-.1979-.1267-.1267-.1979-.2986-.1979-.4778 0-.1792.0712-.351.1979-.4778.1267-.1267.2986-.1979.4778-.1979H27.027c.1792 0 .351.0712.4778.1979.1267.1268.1979.2986.1979.4778 0 .1792-.0712.3511-.1979.4778-.1268.1267-.2986.1979-.4778.1979zM27.027 9.45951H12.8412c-.1792 0-.3511-.07119-.4778-.1979-.1267-.12672-.1979-.29858-.1979-.47778 0-.1792.0712-.35106.1979-.47777.1267-.12672.2986-.19791.4778-.19791H27.027c.1792 0 .351.07119.4778.19791.1267.12671.1979.29857.1979.47777 0 .1792-.0712.35106-.1979.47778-.1268.12671-.2986.1979-.4778.1979zM25.0001 43.5527c-1.4142 0-2.7968-.4194-3.9727-1.2051-1.1759-.7857-2.0924-1.9025-2.6336-3.2091-.5413-1.3066-.6829-2.7444-.407-4.1315.276-1.3871.957-2.6612 1.957-3.6613 1.0001-1 2.2742-1.681 3.6613-1.957 1.3871-.2759 2.8249-.1343 4.1315.407 1.3066.5412 2.4234 1.4577 3.2091 2.6336.7857 1.1759 1.2051 2.5585 1.2051 3.9727-.002 1.8959-.756 3.7136-2.0966 5.0542-1.3405 1.3405-3.1582 2.0945-5.0541 2.0965zm0-12.95c-1.147 0-2.2682.3401-3.2219.9774-.9537.6372-1.697 1.5429-2.136 2.6026-.4389 1.0597-.5537 2.2258-.33 3.3507.2238 1.125.7761 2.1583 1.5872 2.9694.811.811 1.8444 1.3634 2.9693 1.5871 1.125.2238 2.291.1089 3.3507-.33 1.0597-.4389 1.9655-1.1822 2.6027-2.1359s.9774-2.075.9774-3.222c-.0017-1.5376-.6132-3.0117-1.7004-4.0989-1.0872-1.0873-2.5614-1.6988-4.099-1.7004z"/><path fill="#CA6D38" d="M23.7967 39.0837c-.1792 0-.351-.0712-.4777-.198l-1.6048-1.6047c-.123-.1274-.1911-.2981-.1896-.4753.0015-.1771.0726-.3466.1979-.4719.1252-.1252.2947-.1963.4719-.1978.1771-.0016.3478.0665.4752.1896l1.1271 1.127 3.5338-3.5344c.1274-.1231.2981-.1912.4752-.1897.1772.0016.3467.0726.4719.1979.1253.1253.1964.2948.1979.4719.0015.1772-.0666.3479-.1896.4753l-4.0115 4.0121c-.1267.1268-.2985.198-.4777.198z"/></svg>