<svg xmlns="http://www.w3.org/2000/svg" fill="none" viewBox="0 0 40 41"><defs/><g fill="#F3F1EF" clip-path="url(#clip0)"><path d="M31.7736 9.87017c-3.3304-1.66209-.0175-.13367-15.0441-6.88308-.3058-.13741-.656-.13741-.9619 0C.739421 9.73728 4.07891 8.19568.648089 9.90791c-.5789405.28889-.813564.99159-.524094 1.56949.289471.578.993495.812 1.572285.5231l.87966-.439v17.4474c0 .646.52471 1.1698 1.17194 1.1698H28.7493c.6473 0 1.172-.5238 1.172-1.1698V11.5615c.8557.427.9788.5251 1.3273.5251.4298 0 .8438-.237 1.0491-.6469.2895-.578.0548-1.2805-.5241-1.56953zm-15.525-4.53356l11.3288 5.08849v1.1932H4.91982v-1.1932L16.2486 5.33661zM4.91982 18.9489h5.15658v3.8992H4.91982v-3.8992zm0 8.8902v-2.6514h6.32848c.6472 0 1.172-.5238 1.172-1.1698v-6.2388c0-.646-.5248-1.1697-1.172-1.1697H4.91982v-2.6515H27.5774v2.6515h-6.3285c-.6472 0-1.1719.5237-1.1719 1.1697v6.2388c0 .646.5247 1.1698 1.1719 1.1698h6.3285v2.6514H4.91982zm22.65758-4.991h-5.1565v-3.8992h5.1565v3.8992zM38.8282 27.8392h-.7813V5.22369h.7813c.6472 0 1.1719-.52374 1.1719-1.16977 0-.64602-.5247-1.16976-1.1719-1.16976h-3.8284c-.6472 0-1.1719.52374-1.1719 1.16976 0 .64603.5247 1.16977 1.1719 1.16977h.7032V27.8392h-.7032c-.6472 0-1.1719.5238-1.1719 1.1698 0 .646.5247 1.1698 1.1719 1.1698h3.8284c.6472 0 1.1719-.5238 1.1719-1.1698 0-.646-.5247-1.1698-1.1719-1.1698zM28.7493 32.8301c-.6472 0-1.1719.5237-1.1719 1.1697v.7019H4.91982v-.7019c0-.646-.52472-1.1697-1.17195-1.1697-.64722 0-1.17194.5237-1.17194 1.1697v3.7433c0 .646.52472 1.1698 1.17194 1.1698.64723 0 1.17195-.5238 1.17195-1.1698v-.7018H27.5774v.7018c0 .646.5247 1.1698 1.1719 1.1698.6473 0 1.172-.5238 1.172-1.1698v-3.7433c0-.646-.5247-1.1697-1.172-1.1697z"/></g><defs><clipPath id="clip0"><path fill="#fff" d="M0 0h40v39.9258H0z" transform="translate(0 .935547)"/></clipPath></defs></svg>