<svg xmlns="http://www.w3.org/2000/svg" fill="none" viewBox="0 0 40 40"><defs/><path fill="#F3F1EF" d="M3.624 0v5.29H1.562v2.34h2.062v4.43H1.562v2.34h2.062v4.43H1.562v2.34h2.062v4.43H1.562v2.34h2.062v4.43H1.562v2.34h2.062V40h34.814V0H3.623zm32.47 37.66H5.967v-2.95H8.03v-2.34H5.967v-4.43H8.03V25.6H5.967v-4.43H8.03v-2.34H5.967V14.4H8.03v-2.34H5.967V7.63H8.03V5.29H5.967V2.34h30.127v35.32z"/><path fill="#F3F1EF" d="M24.157 9.126h7.6v2.339h-7.6v-2.34zm0 9.711h7.6v2.34h-7.6v-2.34zm0 10.478h7.6v2.34h-7.6v-2.34zM20.564 8.11l-1.657-1.654-3.79 3.783-1.755-1.751-1.657 1.654 3.411 3.405 5.448-5.437zm0 9.855l-1.657-1.654-3.79 3.783-1.755-1.751-1.657 1.654 3.411 3.405 5.448-5.437zm0 9.855l-1.657-1.654-3.79 3.783-1.755-1.75-1.657 1.653 3.411 3.405 5.448-5.437z"/></svg>