<svg xmlns="http://www.w3.org/2000/svg" fill="none" viewBox="0 0 40 40"><defs/><path fill="#F3F1EF" d="M38.8281 11.7969h-3.5937V1.17188C35.2344.524597 34.7098 0 34.0625 0h-7.0313c-.6472 0-1.1718.524597-1.1718 1.17188V11.7969h-4.6875V3.51562C21.1719 1.57715 19.5947 0 17.6562 0c-1.9384 0-3.5156 1.57715-3.5156 3.51562v8.28128H9.375c0-2.58486-2.10266-4.68752-4.6875-4.68752S0 9.21204 0 11.7969v23.5156C0 37.8973 2.10266 40 4.6875 40h34.1406C39.4754 40 40 39.4754 40 38.8281V12.9688c0-.6473-.5246-1.1719-1.1719-1.1719zm-5.9375-9.45315V32.9688h-4.6875V30.625h1.1719c.6473 0 1.1719-.5246 1.1719-1.1719s-.5246-1.1719-1.1719-1.1719h-1.1719v-2.3437h1.1719c.6473 0 1.1719-.5246 1.1719-1.1719s-.5246-1.1718-1.1719-1.1718h-1.1719v-2.4219h1.1719c.6473 0 1.1719-.5246 1.1719-1.1719s-.5246-1.1719-1.1719-1.1719h-1.1719v-2.3437h1.1719c.6473 0 1.1719-.5246 1.1719-1.1719s-.5246-1.1719-1.1719-1.1719h-1.1719v-1.1627c0-.003.0006-.0061.0006-.0091 0-.0031-.0006-.0062-.0006-.0092v-1.1627h1.1719c.6473 0 1.1719-.5246 1.1719-1.1719 0-.64728-.5246-1.17188-1.1719-1.17188h-1.1719V7.03125h1.1719c.6473 0 1.1719-.5246 1.1719-1.17187 0-.64728-.5246-1.17188-1.1719-1.17188h-1.1719V2.34375h4.6875zM18.8281 25.9375h-2.3437V7.03125h2.3437V25.9375zm-.4541 2.3437l-.7178 2.1537-.7177-2.1537h1.4355zm-.7178-25.93745c.6461 0 1.1719.52582 1.1719 1.17187V4.6875h-2.3437V3.51562c0-.64605.5258-1.17187 1.1718-1.17187zM4.6875 9.45312c1.29242 0 2.34375 1.05138 2.34375 2.34378v19.4586c-.69-.4001-1.49017-.6305-2.34375-.6305s-1.65375.2304-2.34375.6305V11.7969c0-1.2924 1.05133-2.34378 2.34375-2.34378zM37.6562 37.6562H4.6875c-1.29242 0-2.34375-1.0513-2.34375-2.3437 0-1.2924 1.05133-2.3437 2.34375-2.3437s2.34375 1.0513 2.34375 2.3437c0 .6473.5246 1.1719 1.17187 1.1719.64728 0 1.17188-.5246 1.17188-1.1719V14.1406h4.7656v12.9688c0 .1242.0241.2624.0601.3705l2.3438 7.0312c.1596.4785.6073.8014 1.1117.8014.5045 0 .9522-.3229 1.1118-.8014l2.3438-7.0312c.0009-.0028.0015-.0055.0024-.0086.0351-.1083.0577-.2402.0577-.3619V14.1406h4.6875v20c0 .6473.5246 1.1719 1.1718 1.1719h7.0313c.6473 0 1.1719-.5246 1.1719-1.1719v-20h2.4218v23.5156z"/></svg>