<svg xmlns="http://www.w3.org/2000/svg" fill="none" viewBox="0 0 40 40"><defs/><path fill="#F3F1EF" d="M38.828 11.797h-3.594V1.172C35.234.525 34.71 0 34.062 0h-7.03c-.648 0-1.173.525-1.173 1.172v10.625h-4.687V3.516A3.52 3.52 0 0017.656 0a3.52 3.52 0 00-3.515 3.516v8.28H9.375c0-2.584-2.103-4.687-4.688-4.687S0 9.212 0 11.797v23.515A4.693 4.693 0 004.688 40h34.14c.647 0 1.172-.525 1.172-1.172v-25.86c0-.646-.525-1.171-1.172-1.171zm-5.937-9.453v30.625h-4.688v-2.344h1.172a1.172 1.172 0 100-2.344h-1.172v-2.344h1.172a1.172 1.172 0 100-2.343h-1.172v-2.422h1.172a1.172 1.172 0 100-2.344h-1.172v-2.344h1.172a1.172 1.172 0 100-2.343h-1.172V11.797h1.172a1.172 1.172 0 100-2.344h-1.172V7.031h1.172a1.172 1.172 0 100-2.343h-1.172V2.344h4.688zM18.828 25.937h-2.344V7.032h2.344v18.907zm-.454 2.344l-.718 2.154-.718-2.154h1.436zm-.718-25.937c.646 0 1.172.526 1.172 1.172v1.171h-2.344V3.516c0-.646.526-1.172 1.172-1.172zM4.688 9.454a2.346 2.346 0 012.343 2.343v19.459a4.66 4.66 0 00-4.688 0v-19.46a2.346 2.346 0 012.345-2.343zm32.968 28.202H4.688a2.346 2.346 0 01-2.344-2.344c0-1.292 1.051-2.343 2.344-2.343S7.03 34.02 7.03 35.313a1.172 1.172 0 102.344 0V14.14h4.766v12.968c0 .125.024.263.06.37l2.343 7.032a1.172 1.172 0 002.224 0l2.344-7.031.002-.009c.035-.108.058-.24.058-.362V14.141h4.687v20c0 .647.525 1.172 1.172 1.172h7.031c.648 0 1.172-.525 1.172-1.172v-20h2.422v23.515z"/></svg>