<svg xmlns="http://www.w3.org/2000/svg" fill="none" viewBox="0 0 80 80"><defs/><path fill="#CA6D38" d="M32.5001 49.3752h-17.5c-.3455 0-.6251.2809-.6251.6251v4.9999c0 .3468.2796.6251.6251.6251h17.5c.3454 0 .625-.2783.6249-.6251v-4.9999c0-.3442-.2795-.6251-.6249-.6251zm-.6251 5.0001H15.6251v-3.7499H31.875v3.7499zM65.0001 16.8749H47.4999c-.3453 0-.6249.2796-.6249.625 0 .3455.2796.6249.6249.6249h17.5c.3455 0 .6251-.2794.6251-.6249 0-.3454-.2795-.625-.6249-.625z"/><path fill="#CA6D38" d="M65.4416 17.0579c-.2441-.2442-.6394-.2442-.8837 0l-32.5 32.5007c-.244.244-.244.6394 0 .8836.1222.1221.2821.1833.442.1833s.3198-.0612.442-.1833l32.4997-32.5006c.2443-.2441.2441-.6394 0-.8837zM65.4416 22.0592c-.2441-.2443-.6394-.2443-.8837 0l-32.5 32.4993c-.244.2441-.244.6396 0 .8839.1222.1219.2821.183.442.183s.3198-.061.4417-.183l32.5-32.4996c.2443-.244.2441-.6394 0-.8836zM47.9419 17.0579c-.2441-.2442-.6396-.2442-.8839 0L14.5582 49.5586c-.2443.244-.2443.6394 0 .8836.122.1221.2819.1833.4418.1833.1599 0 .32-.0612.442-.1833l32.4999-32.5006c.244-.2441.244-.6394 0-.8837z"/><path fill="#CA6D38" d="M65.0001 16.8746c-.3455 0-.6251.2796-.6251.6251v5.0012c0 .3454.2796.625.6251.625.3454 0 .6249-.2796.6249-.625v-5.0012c0-.3455-.2795-.6251-.6249-.6251zM42.8833 39.508c-.0343-.0269-3.2922-2.4849-7.0758 1.3011l-8.7495 8.7495.8838.8836 8.7493-8.7499c2.9829-2.9815 5.3314-1.2695 5.4255-1.1982.2735.2142.6666.1635.8765-.1092.2125-.2727.1635-.6651-.1098-.8769zM36.0669 24.5591c-.2442-.2442-.6396-.2442-.8838 0l-3.75 3.75c-.2443.2441-.2443.6396 0 .8839.122.122.2819.183.4418.183.16 0 .3198-.061.442-.183l3.75-3.7502c.2441-.2439.2441-.6394 0-.8837zM18.1252 56.8754H.625139c-.34546 0-.62489486.2807-.62489486.625v5c0 .3467.27943486.6249.62489486.6249H18.1252c.3454 0 .625-.2784.625-.6249v-5c0-.3443-.2796-.625-.625-.625zm-.6251 4.9998H1.25019v-3.75H17.5001v3.75z"/><path fill="#CA6D38" d="M37.5024 24.3723h-4.3775c-.3455 0-.6249.2794-.6249.6249 0 .3455.2794.6251.6249.6251h4.3775c.3455 0 .6251-.2796.6251-.6251s-.2796-.6249-.6251-.6249zM23.5278 57.0976c-.244-.2442-.6394-.2442-.8836 0l-4.961 4.961c-.2443.2441-.2443.6394 0 .8837.122.122.2821.183.4418.183.1599 0 .3198-.061.4418-.183l4.961-4.961c.2443-.2441.2441-.6395 0-.8837z"/><path fill="#CA6D38" d="M33.5669 24.5578c-.2441-.2442-.6395-.2442-.8837 0L.183174 57.0584c-.2442319.2441-.2442319.6396 0 .8839.122037.1219.281938.183.441838.183.159901 0 .319801-.0611.441838-.183L33.5669 25.4415c.2442-.2439.2442-.6395 0-.8837zM46.8751 56.8754h-17.5c-.3455 0-.6251.2807-.6251.625v5c0 .3467.2796.6249.6251.6249h17.4998c.3455 0 .6251-.2784.6251-.6249v-5c0-.3443-.2795-.625-.6249-.625zm-.6251 4.9998H29.9999v-3.75H46.25v3.75zM79.375 24.3748H65.0062c-.3457 0-.6251.2794-.6251.6249 0 .3454.2794.625.6251.625H79.375c.3454 0 .6249-.2796.6249-.625 0-.3455-.2795-.6249-.6249-.6249z"/><path fill="#CA6D38" d="M79.8169 24.5578c-.2441-.2442-.6395-.2442-.8837 0l-32.5 32.5006c-.2443.2441-.2443.6396 0 .8839.122.1219.2821.183.4418.183.1601 0 .3198-.0611.442-.183l32.4999-32.5008c.2442-.2439.244-.6395 0-.8837zM79.8169 29.559c-.2441-.244-.6395-.244-.8837 0l-32.5 32.4996c-.2443.244-.2443.6394 0 .8836.122.1221.2821.1831.4418.1831.1601 0 .3198-.061.442-.1831l32.4999-32.4993c.2442-.2441.2442-.6396 0-.8839z"/><path fill="#CA6D38" d="M79.375 24.3748c-.3454 0-.6249.2794-.6249.6249v5.0013c0 .3455.2795.6249.6249.6249.3455 0 .6249-.2794.6249-.6249v-5.0013c0-.3455-.2794-.6249-.6249-.6249zM41.0668 52.0585c-.2441-.2442-.6396-.2442-.8838 0l-4.9999 5c-.2443.2441-.2443.6396 0 .8838.122.1219.282.1831.4418.1831.16 0 .3199-.0612.4418-.1831l5.0001-5.0001c.2442-.2439.2441-.6394 0-.8837zM51.067 48.3085c-.2441-.2442-.6396-.2442-.8839 0l-8.7499 8.7475c-.2443.2441-.2443.6396 0 .8838.1219.1219.2819.1831.4418.1831.1599 0 .3198-.0612.4419-.1831l8.7501-8.7476c.244-.2441.244-.6394 0-.8837zM67.2657 24.6117c-.244-.2442-.6394-.2436-.8836-.0006l-5.3395 5.3387.8837.8837 5.3394-5.3375c.2443-.244.2441-.64 0-.8843zM52.3192 17.0579c-.2441-.2442-.6394-.2442-.8837 0l-6.2511 6.2524c-.2442.2441-.2442.6395 0 .8837.122.122.2819.1832.4418.1832.1599 0 .3198-.061.4419-.1832l6.2511-6.2524c.2442-.2441.2441-.6394 0-.8837zM58.5669 17.0579c-.2441-.2442-.6394-.2442-.8837 0L45.1844 29.5566c-.2442.2441-.2442.6396 0 .8838.122.1221.2819.1831.4418.1831.1599 0 .3198-.0609.4419-.1831l12.4988-12.4988c.2442-.2441.2441-.6394 0-.8837z"/><circle cx="64" cy="56" r="14.45" fill="#fff" stroke="#CA6D38" stroke-width="1.1"/><path stroke="#CA6D38" stroke-width="1.1" d="M58 56l4 4 8-8"/></svg>