<svg xmlns="http://www.w3.org/2000/svg" fill="none" viewBox="0 0 80 80"><defs/><g fill="#CA6D38" clip-path="url(#clip0)"><path d="M26.913 46.25H26.9a.62.62 0 00-.618.625.63.63 0 00.631.625.626.626 0 000-1.25zm13.75 0h-.014a.62.62 0 00-.617.625.63.63 0 00.63.625.625.625 0 000-1.25zm-11.25 1.25h-.014a.62.62 0 00-.618.625.63.63 0 00.632.625.625.625 0 000-1.25zm8.75 0h-.013a.62.62 0 00-.618.625.63.63 0 00.63.625.625.625 0 000-1.25zm-15.038 0a.625.625 0 00-.625.625V68.75H1.25V48.125a.625.625 0 10-1.25 0v21.25c0 .345.28.625.625.625h22.5c.345 0 .625-.28.625-.625v-21.25a.625.625 0 00-.625-.625zm0-3.75H.625a.625.625 0 00-.625.625v2.5c0 .345.28.625.625.625h22.5c.345 0 .625-.28.625-.625v-2.5a.625.625 0 00-.625-.625zm-.625 2.5H1.25V45H22.5v1.25zM79.375 7.5h-35a.625.625 0 00-.625.625v18.75c0 .345.28.625.625.625h35c.345 0 .625-.28.625-.625V8.125a.625.625 0 00-.625-.625zm-.625 18.75H45V8.75h33.75v17.5zM23.125 7.5H.625A.625.625 0 000 8.125v18.75c0 .345.28.625.625.625h22.5c.345 0 .625-.28.625-.625V8.125a.625.625 0 00-.625-.625zM22.5 26.25H1.25V8.75H22.5v17.5z"/><path d="M11.875 47.5a.625.625 0 00-.625.625v20a.625.625 0 101.25 0v-20a.625.625 0 00-.625-.625zm11.25 23.75H.625a.625.625 0 100 1.25h22.5a.625.625 0 100-1.25z"/><path d="M.625 70a.625.625 0 00-.625.625v1.25a.625.625 0 101.25 0v-1.25A.625.625 0 00.625 70zm22.5 0a.625.625 0 00-.625.625v1.25a.625.625 0 101.25 0v-1.25a.625.625 0 00-.625-.625zm-3.75-20h-3.75a.625.625 0 100 1.25h3.75a.625.625 0 100-1.25zm-11.25 0h-3.75a.625.625 0 100 1.25h3.75a.625.625 0 100-1.25zm71.25-2.5a.625.625 0 00-.625.625V68.75H57.5V48.125a.625.625 0 10-1.25 0v21.25c0 .345.28.625.625.625h22.5c.345 0 .625-.28.625-.625v-21.25a.625.625 0 00-.625-.625zm0-3.75h-22.5a.625.625 0 100 1.25H78.75v1.25H56.875a.625.625 0 100 1.25h22.5c.345 0 .625-.28.625-.625v-2.5a.625.625 0 00-.625-.625z"/><path d="M68.125 47.5a.625.625 0 00-.625.625v20a.625.625 0 101.25 0v-20a.625.625 0 00-.625-.625zm11.25 23.75h-22.5a.625.625 0 100 1.25h22.5a.625.625 0 100-1.25z"/><path d="M79.375 70a.625.625 0 00-.625.625v1.25a.624.624 0 101.25 0v-1.25a.625.625 0 00-.625-.625zm-3.75-20h-3.75a.625.625 0 100 1.25h3.75a.625.625 0 100-1.25zm-11.25 0h-3.75a.625.625 0 100 1.25h3.75a.625.625 0 100-1.25zm-8.75-27.5h-5a.625.625 0 100 1.25h5a.625.625 0 100-1.25zm-41.25 0h-5a.625.625 0 100 1.25h5a.624.624 0 100-1.25zm58.75 0h-5a.625.625 0 100 1.25h5a.625.625 0 100-1.25zm-16.25 46.25H45V48.125a.625.625 0 10-1.25 0v21.25c0 .345.28.625.625.625h12.5a.625.625 0 100-1.25zm0-22.5H45V45h11.875a.625.625 0 100-1.25h-12.5a.625.625 0 00-.625.625v2.5c0 .345.28.625.625.625h12.5a.625.625 0 100-1.25zm0 25h-12.5a.625.625 0 100 1.25h12.5a.625.625 0 100-1.25z"/><path d="M44.375 70a.625.625 0 00-.625.625v1.25a.625.625 0 101.25 0v-1.25a.625.625 0 00-.625-.625zm7.5-20h-2.5a.625.625 0 100 1.25h2.5a.625.625 0 100-1.25zm3.75 3.75h-10a.625.625 0 100 1.25h10a.625.625 0 100-1.25zm-3.75 3.75h-2.5a.625.625 0 100 1.25h2.5a.625.625 0 100-1.25zm0 7.5h-2.5a.625.625 0 100 1.25h2.5a.625.625 0 100-1.25zm3.75-3.75h-10a.625.625 0 100 1.25h10a.625.625 0 100-1.25zm-12.5-17.5h-18.75a.625.625 0 100 1.25h18.75a.624.624 0 100-1.25zm0 27.5h-18.75a.625.625 0 100 1.25h18.75a.625.625 0 100-1.25zm-11.25-30h-6.25a.625.625 0 100 1.25h6.25a.625.625 0 100-1.25zm10 0h-6.25a.625.625 0 100 1.25h6.25a.624.624 0 100-1.25zm-6.25 6.25h-3.75a.625.625 0 100 1.25h3.75a.625.625 0 100-1.25zm6.25 3.75h-16.25a.625.625 0 00-.625.625v17.5c0 .345.28.625.625.625h16.25c.345 0 .625-.28.625-.625v-17.5a.625.625 0 00-.625-.625zm-.625 17.5h-15V52.5h15v16.25z"/><path d="M39.375 53.75h-11.25a.625.625 0 100 1.25h11.25a.625.625 0 100-1.25zm36.25-12.5h-15a.625.625 0 100 1.25h15a.625.625 0 100-1.25z"/><path d="M60.625 41.25a.625.625 0 00-.625.625v1.25a.625.625 0 101.25 0v-1.25a.625.625 0 00-.625-.625zm15 0a.625.625 0 00-.625.625v1.25a.625.625 0 101.25 0v-1.25a.625.625 0 00-.625-.625zm-7.5-5a.625.625 0 00-.625.625v3.75a.625.625 0 101.25 0v-3.75a.625.625 0 00-.625-.625zm2.5 3.75a.624.624 0 00-.625.625v1.25a.624.624 0 101.25 0v-1.25a.625.625 0 00-.625-.625zm-5 0a.625.625 0 00-.625.625v1.25a.625.625 0 101.25 0v-1.25a.624.624 0 00-.625-.625zm-3.75-31.25a.625.625 0 00-.625.625v16.25a.625.625 0 101.25 0V9.375a.625.625 0 00-.625-.625zm-20 12.5h-16.25a.625.625 0 100 1.25h16.25a.624.624 0 100-1.25z"/><path d="M41.875 20a.625.625 0 00-.625.625v1.25a.624.624 0 101.25 0v-1.25a.625.625 0 00-.625-.625zm-16.25 0a.625.625 0 00-.625.625v1.25a.625.625 0 101.25 0v-1.25a.625.625 0 00-.625-.625zm15-1.25h-13.75a.625.625 0 100 1.25h13.75a.625.625 0 100-1.25zm-10-11.25a.625.625 0 00-.625.625v10a.625.625 0 101.25 0v-10a.625.625 0 00-.625-.625zm6.25 0a.625.625 0 00-.625.625v10a.625.625 0 101.25 0v-10a.625.625 0 00-.625-.625zm-7.5 16.25a.625.625 0 00-.625.625v2.37a.625.625 0 101.25 0v-2.37a.625.625 0 00-.625-.625zm8.75 0a.625.625 0 00-.625.625v2.37a.625.625 0 101.25 0v-2.37a.625.625 0 00-.625-.625zm-4.375 0a.625.625 0 00-.625.625v4.87a.625.625 0 101.25 0v-4.87a.625.625 0 00-.625-.625z"/><path d="M26.875 18.75A1.877 1.877 0 0025 20.625a.625.625 0 101.25 0c0-.344.28-.625.625-.625a.625.625 0 100-1.25zm13.75 0a.625.625 0 100 1.25c.344 0 .625.28.625.625a.625.625 0 101.25 0 1.877 1.877 0 00-1.875-1.875z"/></g><defs><clipPath id="clip0"><path fill="#fff" d="M0 0h80v80H0z"/></clipPath></defs></svg>