<svg xmlns="http://www.w3.org/2000/svg" fill="none" viewBox="0 0 50 50"><defs/><path fill="#CA6D38" d="M48.375 13.344a3.125 3.125 0 00-4.419 0l-.987.987V1.563a.781.781 0 00-.782-.782H7.813a.781.781 0 00-.782.781v46.876a.781.781 0 00.782.78h28.125a.782.782 0 00.552-.228l6.25-6.25a.782.782 0 00.229-.553V23.17l5.406-5.407a3.128 3.128 0 000-4.42zM36.719 46.552v-3.583h3.583l-3.583 3.583zm4.687-5.146h-5.469a.781.781 0 00-.78.782v5.468H8.593V2.344h32.812v13.55l-21.62 21.62a.794.794 0 00-.19.304l-1.656 4.973a.782.782 0 00.988.988l4.972-1.657a.794.794 0 00.305-.19l17.201-17.2v16.674zm-19.963-3.34l2.21 2.21-.423.421-3.314 1.106 1.105-3.315.422-.423zm3.315 1.105l-2.21-2.21 19.198-19.198 2.21 2.21L24.758 39.17zM47.27 16.658l-2.21 2.21-2.21-2.21 2.21-2.21a1.563 1.563 0 012.21 2.21z"/><path fill="#CA6D38" d="M16.84 32.42c-.465-.473-1.014-.77-1.545-1.058-.523-.283-1.017-.55-1.305-.939-.592-.796-.275-2.068.302-2.976.91-1.433 2.439-2.588 4.674-3.53.95-.401 1.957-.74 2.932-1.069 1.022-.344 2.079-.7 3.101-1.135.9-.383 2.049-.94 2.948-1.857.989-1.008 1.487-2.285 1.367-3.502-.12-1.21-.847-2.355-1.997-3.144-1.087-.746-2.369-1.055-3.238-1.223-3.467-.67-6.968-.322-10.354.014a.78.78 0 00-.678.55c-.03.099-.04.203-.03.305a.779.779 0 00.862.7c3.275-.325 6.661-.661 9.903-.035 1.18.228 1.998.53 2.65.976.758.52 1.254 1.271 1.327 2.01.073.744-.274 1.588-.928 2.255-.706.72-1.677 1.187-2.444 1.513-.966.412-1.994.758-2.988 1.092-1.002.337-2.038.686-3.041 1.11-2.538 1.07-4.3 2.422-5.386 4.132-.8 1.26-1.343 3.259-.237 4.746.495.665 1.197 1.045 1.815 1.38.45.244.875.474 1.177.78.487.494.897 1.557.454 2.928-.368 1.137-1.169 2.136-1.944 3.101a.781.781 0 101.219.978c.823-1.025 1.756-2.188 2.212-3.599.542-1.675.217-3.443-.827-4.504z"/></svg>