<svg xmlns="http://www.w3.org/2000/svg" fill="none" viewBox="0 0 50 50"><defs/><path fill="#CA6D38" d="M41.895 48.649H8.108a.676.676 0 01-.676-.676V2.027a.676.676 0 01.676-.676h22.98c.179 0 .35.071.478.198l10.81 10.804a.676.676 0 01.198.478v35.142a.677.677 0 01-.679.676zM8.784 47.297h32.439V13.112L30.805 2.701H8.784v44.595z"/><path fill="#CA6D38" d="M41.895 13.52h-10.81a.676.676 0 01-.676-.675V2.027a.676.676 0 011.351 0v10.142h10.135a.676.676 0 010 1.351zm-4.733 11.987h-24.32a.675.675 0 110-1.352h24.32a.676.676 0 010 1.352zm0-5.349h-24.32a.676.676 0 010-1.351h24.32a.676.676 0 010 1.351zM27.027 14.81H12.841a.676.676 0 010-1.351h14.186a.676.676 0 010 1.351zm0-5.35H12.841a.676.676 0 110-1.352h14.186a.676.676 0 010 1.352zM25 43.553a7.151 7.151 0 117.15-7.151 7.158 7.158 0 01-7.15 7.15zm0-12.95A5.799 5.799 0 1025 42.2a5.799 5.799 0 000-11.597z"/><path fill="#CA6D38" d="M23.797 39.084a.675.675 0 01-.478-.198l-1.605-1.605a.676.676 0 01.956-.955l1.127 1.127 3.534-3.535a.676.676 0 01.955.956l-4.012 4.012a.675.675 0 01-.477.198z"/></svg>