<svg xmlns="http://www.w3.org/2000/svg" fill="none" viewBox="0 0 50 50"><defs/><path fill="#CA6D38" d="M48.375 13.3438c-.586-.586-1.3808-.9151-2.2095-.9151-.8287 0-1.6234.3291-2.2094.9151l-.9873.9873V1.5625c0-.2072-.0824-.40591-.2289-.55243-.1465-.14651-.3452-.22882-.5524-.22882H7.8125c-.2072 0-.40591.08231-.55243.22882-.14651.14652-.22882.34523-.22882.55243v46.875c0 .2072.08231.4059.22882.5524.14652.1465.34523.2289.55243.2289h28.125c.2072 0 .406-.0822.5527-.2286l6.25-6.25c.1464-.1467.2286-.3455.2286-.5527V23.1699l5.4062-5.4072c.5853-.5864.914-1.381.914-2.2095 0-.8285-.3287-1.6231-.914-2.2094zm-11.6562 33.208v-3.583h3.583l-3.583 3.583zm4.6874-5.1456h-5.4687c-.2072 0-.4059.0824-.5524.2289-.1465.1465-.2289.3452-.2289.5524v5.4687H8.59375V2.34375H41.4062V15.8936L19.7861 37.5137c-.0855.0857-.1503.19-.1894.3047l-1.6572 4.9726c-.0389.1175-.0493.2424-.0305.3647.0188.1222.0664.2383.1387.3386.0723.1003.1674.1821.2774.2386.11.0565.2319.0861.3556.0864.0839-.0002.1673-.0137.247-.04l4.9727-1.6572c.1147-.0391.2189-.1039.3047-.1895l17.2011-17.2002v16.6738zm-19.9628-3.3408l2.2099 2.21-.4228.4219-3.3145 1.1054 1.1055-3.3144.4219-.4229zm3.3144 1.1055l-2.2099-2.21 19.1982-19.1982 2.21 2.21-19.1983 19.1982zm22.5127-22.5127l-2.21 2.21-2.2099-2.21 2.2099-2.21c.2931-.293.6906-.4577 1.105-.4577.4145 0 .8119.1647 1.105.4577.2931.2931.4577.6906.4577 1.105 0 .4145-.1646.8119-.4577 1.105z"/><path fill="#CA6D38" d="M16.8406 32.4193c-.4654-.4725-1.0146-.7699-1.5458-1.0574-.5227-.2832-1.0165-.5504-1.305-.9386-.5921-.7964-.2751-2.0686.3018-2.9763.9103-1.4329 2.4393-2.5879 4.6742-3.5309.9497-.4004 1.9575-.7399 2.9321-1.068 1.0221-.3441 2.0789-.6998 3.1015-1.1348.9001-.3829 2.0486-.9401 2.9476-1.8572.9886-1.0084 1.4867-2.2846 1.3665-3.502-.1191-1.2093-.8468-2.3554-1.9967-3.1445-1.0867-.7456-2.3685-1.0547-3.2382-1.2229-3.4662-.669-6.9675-.3216-10.3535.0145-.1029.0091-.2029.0386-.2943.0867-.0913.048-.1723.1137-.2381.1932-.0659.0796-.1153.1714-.1454.2701-.0302.0988-.0404.2025-.0302.3053.0101.1027.0406.2024.0896.2933.0489.0909.1154.1712.1956.2363.0802.065.1725.1135.2715.1427.0991.0291.2029.0384.3056.0271 3.2746-.325 6.6607-.6609 9.903-.035 1.1801.2278 1.9975.5292 2.6503.9765.7575.5198 1.2531 1.2709 1.3258 2.0091.0733.7449-.2735 1.5881-.9278 2.2559-.7058.72-1.6765 1.1867-2.4434 1.513-.9668.4113-1.9944.7572-2.9883 1.0918-1.0018.3372-2.0377.6859-3.0411 1.1091-2.5375 1.0709-4.2991 2.4226-5.3856 4.1326-.8007 1.2597-1.3429 3.2587-.237 4.7461.4948.6655 1.1962 1.0449 1.8151 1.3802.4499.2442.875.4738 1.1766.78.4865.4938.8972 1.5567.454 2.9274-.3676 1.1374-1.169 2.136-1.944 3.1016-.1297.1616-.1899.3681-.1673.5741.0226.206.126.3945.2876.5242.1617.1297.3682.1899.5741.1673.206-.0226.3946-.126.5242-.2876.8231-1.0254 1.7561-2.1882 2.2122-3.599.5424-1.6754.2175-3.4436-.8272-4.5039z"/></svg>