<svg width="227" height="40" viewBox="0 0 227 40" fill="none" xmlns="http://www.w3.org/2000/svg">
<rect width="17.76" height="17.76" fill="#CA6D38"/>
<rect y="22.24" width="17.76" height="17.76" fill="#454545"/>
<rect x="22.24" width="17.76" height="17.76" fill="#454545"/>
<rect x="22.24" y="22.24" width="17.76" height="17.76" fill="#CA6D38"/>
<path d="M75.74 15.75C75.74 15.87 76.22 15.81 76.31 15.69C76.34 14.43 76.64 12.21 76.85 11.37C75.44 11.25 73.49 10.8 71.3 10.8C68.72 10.8 66.74 11.31 65.15 12.18C61.91 13.92 60.47 17.04 60.47 20.31C60.47 26.64 64.25 30.18 70.7 30.18C72.56 30.18 74.15 29.82 75.02 29.55C75.71 29.19 76.88 27.03 77.27 25.56C77.24 25.44 76.91 25.29 76.82 25.32C76.16 26.49 75.65 27.3 74.87 28.08C73.73 29.16 72.2 29.28 71.3 29.28C66.2 29.28 63.17 25.62 63.17 20.04C63.17 14.67 65.87 11.49 70.28 11.49C71.81 11.49 73.01 11.67 74.06 12.21C75.08 12.72 75.47 13.47 75.74 15.75Z" fill="#F3F1EF"/>
<path d="M77.697 18.84C78.207 18.9 78.747 18.96 78.987 19.08C79.347 19.23 79.377 19.59 79.407 20.13C79.467 21.48 79.437 24.6 79.437 26.01C79.437 28.05 80.007 30 82.827 30C83.757 30 85.047 29.55 86.697 28.11C86.787 28.05 86.877 28.14 86.877 28.2C86.877 28.71 86.847 29.55 86.877 29.91C86.877 30.06 86.967 30.15 87.057 30.15C87.747 29.88 89.637 29.25 90.717 28.95C90.807 28.89 90.777 28.5 90.777 28.44C90.387 28.47 90.267 28.5 89.847 28.5C89.217 28.5 89.007 28.29 89.007 27.03L88.977 21.09C88.977 19.83 89.007 18.48 89.097 17.91C88.347 18.09 86.067 18.36 84.447 18.36C84.357 18.42 84.327 18.78 84.387 18.84C85.197 18.93 85.857 18.99 86.277 19.11C86.757 19.26 86.817 19.68 86.847 19.98C86.907 21.51 86.937 26.22 86.877 26.79C86.847 27.12 86.727 27.48 86.517 27.63C85.917 28.11 85.227 28.5 84.177 28.5C82.617 28.5 81.957 27.63 81.717 26.67C81.567 26.07 81.567 24.78 81.567 23.49C81.567 19.11 81.627 18.36 81.717 17.88C80.937 18.12 78.987 18.36 77.787 18.36C77.727 18.39 77.667 18.75 77.697 18.84Z" fill="#F3F1EF"/>
<path d="M101.969 27.6C102.029 27.51 102.059 27.15 102.059 27.03C102.059 26.97 101.999 26.94 101.969 26.94C101.039 27.93 99.7493 28.32 98.7593 28.32C97.4393 28.32 96.2993 27.93 95.3693 26.7C94.6493 25.83 94.2593 24.48 94.2593 22.89C94.2593 20.76 95.3693 18.72 97.4993 18.72C99.0293 18.72 100.109 19.71 100.649 20.28C100.709 20.31 100.829 20.31 100.919 20.28C101.189 20.16 101.639 19.62 101.819 19.23C101.879 19.14 101.879 18.96 101.879 18.87C101.759 18.54 101.249 18.24 101.009 18.12C100.439 17.88 99.8693 17.76 98.8193 17.76C97.7093 17.76 96.0893 18.33 95.0393 18.96C93.0893 20.1 92.1593 22.05 92.1593 24.12C92.1593 25.59 92.5493 27 93.3293 28.05C94.2893 29.34 95.4893 30 97.3193 30C98.5793 30 100.409 29.49 101.969 27.6Z" fill="#F3F1EF"/>
<path d="M106.886 13.5C106.886 13.32 106.826 12.99 106.646 12.81C106.556 12.72 106.226 12.54 105.836 12.54C105.416 12.54 104.846 12.75 104.636 12.99C104.516 13.17 104.456 13.47 104.486 13.71C104.486 14.16 104.726 14.64 105.116 14.79C105.326 14.91 106.106 14.79 106.256 14.7C106.586 14.55 106.886 14.04 106.886 13.5ZM108.596 29.25C107.996 29.19 107.786 29.13 107.486 29.04C107.066 28.89 106.856 28.62 106.856 27.99C106.826 26.55 106.826 24.42 106.826 22.8C106.826 20.97 106.856 18.54 106.886 17.73C105.776 18.27 104.186 18.54 103.316 18.63C103.286 18.69 103.286 19.02 103.316 19.08C103.856 19.23 104.246 19.32 104.516 19.65C104.696 19.89 104.696 20.07 104.696 20.25C104.726 20.76 104.726 21.81 104.726 22.98C104.726 24.63 104.726 27.03 104.666 27.78C104.636 28.62 104.486 28.86 104.126 29.01C103.826 29.16 103.376 29.22 102.956 29.25C102.896 29.31 102.896 29.67 102.956 29.73C103.466 29.73 104.516 29.64 105.746 29.64C106.706 29.64 107.876 29.73 108.506 29.73C108.596 29.7 108.596 29.34 108.596 29.25Z" fill="#F3F1EF"/>
<path d="M109.433 29.25C109.373 29.34 109.373 29.67 109.433 29.73C109.913 29.73 110.423 29.64 112.163 29.64C113.693 29.64 114.533 29.73 115.043 29.73C115.073 29.64 115.103 29.31 115.073 29.25C114.593 29.19 114.083 29.1 113.813 28.98C113.453 28.86 113.303 28.65 113.273 27.78C113.213 26.46 113.213 23.55 113.213 21.3C113.213 20.67 113.303 20.43 113.513 20.22C114.233 19.56 115.073 19.23 115.943 19.23C116.843 19.23 117.383 19.5 117.773 19.89C118.343 20.4 118.553 21.3 118.643 21.81C118.793 22.83 118.763 26.82 118.703 28.14C118.673 28.59 118.553 28.92 118.073 29.07C117.893 29.13 117.473 29.19 116.933 29.25C116.873 29.31 116.873 29.67 116.933 29.73C117.563 29.7 118.433 29.64 119.873 29.64C121.373 29.64 122.063 29.73 122.483 29.73C122.573 29.67 122.603 29.34 122.573 29.25C122.033 29.19 121.673 29.1 121.283 28.92C120.983 28.83 120.893 28.59 120.893 28.23C120.863 27.03 120.863 24.27 120.863 22.71C120.863 21.27 120.683 20.13 120.143 19.29C119.543 18.33 118.673 17.76 117.473 17.76C116.543 17.76 115.163 18.27 113.333 19.74C113.273 19.77 113.213 19.71 113.213 19.62C113.243 19.11 113.273 18.45 113.333 17.85C113.333 17.79 113.273 17.73 113.243 17.73C112.463 18.21 110.903 18.72 109.733 18.87C109.643 18.9 109.613 19.23 109.643 19.29C110.813 19.62 110.993 19.83 111.053 20.19C111.083 20.4 111.113 21.48 111.113 22.98C111.113 24.72 111.143 26.79 111.053 27.84C111.023 28.41 110.903 28.89 110.483 29.04C110.183 29.16 109.823 29.22 109.433 29.25Z" fill="#F3F1EF"/>
<path d="M129.801 21.87C129.801 22.29 129.831 22.68 129.801 23.04C129.801 23.1 129.681 23.28 129.621 23.31C128.601 23.85 124.881 24.84 124.071 25.32C123.921 25.62 123.741 26.52 123.741 26.76C123.741 27.81 124.131 28.74 124.731 29.34C125.151 29.76 125.691 30 126.261 30C126.861 30 128.301 29.31 129.591 28.44C129.621 28.41 129.711 28.44 129.711 28.5C129.741 28.71 129.831 29.1 129.921 29.28C130.191 29.76 130.581 30 131.331 30C132.021 30 132.981 29.7 133.671 28.92C133.731 28.86 133.791 28.41 133.791 28.32C133.431 28.44 133.251 28.47 132.771 28.47C131.901 28.47 131.691 27.69 131.691 27.15C131.691 26.04 131.781 23.79 131.781 22.2C131.781 21.27 131.661 20.04 131.151 19.26C130.551 18.3 129.621 17.76 128.421 17.76C127.641 17.76 125.841 18.51 124.611 19.47C124.461 19.62 124.071 20.58 124.071 20.91C124.071 21.15 124.551 21.54 124.641 21.45C124.971 20.37 125.541 19.5 125.841 19.29C126.081 19.14 126.441 19.02 126.921 19.02C127.911 19.02 128.751 19.41 129.291 20.16C129.621 20.61 129.801 21.3 129.801 21.87ZM129.771 23.97C129.771 24.48 129.741 26.46 129.711 27.39C129.711 27.69 129.591 27.9 129.441 28.02C128.931 28.32 128.301 28.47 127.881 28.47C126.651 28.47 125.811 27.54 125.811 26.28C125.811 26.01 125.931 25.44 126.021 25.35C126.381 24.99 128.301 24.36 129.681 23.91C129.711 23.88 129.771 23.94 129.771 23.97Z" fill="#F3F1EF"/>
<path d="M145.616 21.93C145.946 22.05 146.456 22.08 146.936 22.08C148.076 22.08 149.006 21.84 149.996 21.33C151.526 20.55 152.996 18.9 152.966 16.23C152.936 14.31 152.096 13.08 151.136 12.33C150.026 11.49 148.316 11.28 147.326 11.28C145.676 11.28 144.536 11.34 142.976 11.34C141.596 11.34 140.156 11.25 139.586 11.25C139.526 11.28 139.496 11.64 139.526 11.7C140.126 11.76 140.576 11.85 140.966 11.94C141.716 12.12 141.836 12.63 141.866 13.62C141.926 14.55 141.926 17.97 141.926 20.19C141.926 24.48 141.866 26.34 141.806 27.3C141.746 28.83 141.446 28.89 140.816 29.04C140.456 29.13 139.946 29.19 139.406 29.25C139.316 29.31 139.346 29.67 139.436 29.73C140.156 29.73 141.746 29.64 143.096 29.64C144.296 29.64 146.096 29.73 146.846 29.73C146.906 29.7 146.936 29.31 146.816 29.25C146.336 29.19 145.796 29.13 145.376 29.04C144.506 28.86 144.266 28.65 144.236 27.18C144.146 24.96 144.206 21.36 144.206 19.53C144.206 15.51 144.266 13.17 144.296 12.45C144.326 12.24 144.416 12.09 144.506 12.06C144.716 11.97 145.316 11.94 145.616 11.94C149.186 11.94 150.476 14.16 150.476 16.92C150.506 18.72 150.116 20.1 148.736 20.94C148.136 21.27 147.566 21.42 146.636 21.42C146.006 21.42 145.706 21.36 145.406 21.33C145.376 21.33 145.316 21.45 145.316 21.48C145.346 21.54 145.496 21.84 145.616 21.93Z" fill="#F3F1EF"/>
<path d="M161.134 17.76C160.564 17.76 160.054 18.03 159.604 18.39C158.914 18.96 158.344 19.65 157.834 20.34C157.804 20.37 157.714 20.34 157.714 20.31C157.714 19.74 157.714 18.36 157.744 17.82C157.744 17.79 157.654 17.73 157.624 17.73C156.844 18.21 155.134 18.72 154.234 18.81C154.174 18.84 154.144 19.11 154.144 19.2C155.494 19.53 155.584 20.04 155.614 20.34C155.674 20.73 155.674 21.69 155.674 22.86C155.674 25.11 155.644 27.69 155.554 28.2C155.524 28.74 155.344 28.92 155.074 29.04C154.804 29.13 154.324 29.22 153.964 29.25C153.904 29.34 153.904 29.67 153.964 29.73C154.474 29.7 156.034 29.64 156.844 29.64C157.984 29.64 159.454 29.73 159.874 29.73C159.964 29.67 159.994 29.34 159.934 29.25C159.424 29.22 158.944 29.16 158.374 29.01C157.984 28.86 157.834 28.56 157.804 27.99C157.744 27.39 157.714 23.88 157.714 22.17C157.714 21.72 157.864 21.21 157.984 20.97C158.404 20.28 158.884 19.74 159.514 19.74C160.084 19.74 160.774 20.04 161.254 20.55C161.284 20.55 161.494 20.46 161.494 20.46C161.794 20.1 162.334 19.17 162.394 18.84C162.424 18.72 162.424 18.45 162.394 18.39C162.154 18 161.674 17.76 161.134 17.76Z" fill="#F3F1EF"/>
<path d="M172.748 27.06C171.668 28.08 170.618 28.32 169.478 28.32C168.218 28.32 167.078 27.9 166.178 26.79C165.518 25.98 165.098 24.66 165.068 23.49C165.068 23.34 165.128 23.16 165.248 23.16C167.558 23.1 171.728 22.86 172.898 22.47C172.988 22.44 173.048 22.17 173.018 22.08C172.748 22.05 172.688 21.93 172.658 21.84C172.418 20.4 171.488 17.76 168.698 17.76C167.918 17.76 166.448 18.18 165.638 18.72C164.048 19.71 163.058 21.54 163.058 23.97C163.058 25.59 163.478 27.33 164.618 28.56C165.428 29.46 166.628 30 168.128 30C169.598 30 171.368 29.22 172.808 27.66C172.838 27.6 172.898 27.3 172.868 27.15C172.868 27.09 172.778 27.06 172.748 27.06ZM167.738 18.54C169.478 18.54 170.318 20.43 170.498 21.96C170.498 22.08 170.378 22.17 170.318 22.2C169.688 22.35 166.058 22.47 165.248 22.41C165.218 22.41 165.158 22.32 165.158 22.23C165.278 19.83 166.388 18.54 167.738 18.54Z" fill="#F3F1EF"/>
<path d="M174.03 29.25C173.97 29.34 173.97 29.7 174.03 29.73C174.69 29.73 176.13 29.64 176.85 29.64C178.2 29.64 179.22 29.73 180.03 29.73C180.09 29.67 180.12 29.31 180.09 29.25C179.4 29.19 179.19 29.13 178.8 29.04C178.23 28.92 177.96 28.59 177.93 27.87C177.87 26.4 177.9 22.65 177.87 19.53C177.87 19.5 177.96 19.29 177.99 19.29C178.47 19.26 180.06 19.32 180.66 19.32C180.69 18.99 180.81 18.39 180.9 18.09C180.57 18.12 179.61 18.15 178.02 18.18C177.96 18.18 177.9 18.03 177.9 18C177.87 17.82 177.87 17.16 177.87 16.98C177.9 14.46 177.99 11.85 178.98 10.89C179.34 10.56 179.76 10.38 180.24 10.38C181.35 10.38 182.4 11.31 182.88 11.79C182.94 11.82 183.06 11.82 183.12 11.76C183.33 11.61 184.02 10.59 184.11 10.32V10.08C183.87 9.57 183.03 9 181.86 9C181.23 9 180.12 9.42 179.19 10.08C176.58 11.94 175.83 14.31 175.83 18.03C175.83 18.09 175.77 18.18 175.71 18.21C175.53 18.33 174.87 18.57 174.42 18.63C174.33 18.75 174.21 19.08 174.21 19.23L175.68 19.29C175.74 19.29 175.8 19.47 175.8 19.53C175.77 22.95 175.77 26.34 175.74 27.93C175.74 28.53 175.62 28.89 175.11 29.07C174.87 29.13 174.51 29.19 174.03 29.25Z" fill="#F3F1EF"/>
<path d="M191.263 27.06C190.183 28.08 189.133 28.32 187.993 28.32C186.733 28.32 185.593 27.9 184.693 26.79C184.033 25.98 183.613 24.66 183.583 23.49C183.583 23.34 183.643 23.16 183.763 23.16C186.073 23.1 190.243 22.86 191.413 22.47C191.503 22.44 191.563 22.17 191.533 22.08C191.263 22.05 191.203 21.93 191.173 21.84C190.933 20.4 190.003 17.76 187.213 17.76C186.433 17.76 184.963 18.18 184.153 18.72C182.563 19.71 181.573 21.54 181.573 23.97C181.573 25.59 181.993 27.33 183.133 28.56C183.943 29.46 185.143 30 186.643 30C188.113 30 189.883 29.22 191.323 27.66C191.353 27.6 191.413 27.3 191.383 27.15C191.383 27.09 191.293 27.06 191.263 27.06ZM186.253 18.54C187.993 18.54 188.833 20.43 189.013 21.96C189.013 22.08 188.893 22.17 188.833 22.2C188.203 22.35 184.573 22.47 183.763 22.41C183.733 22.41 183.673 22.32 183.673 22.23C183.793 19.83 184.903 18.54 186.253 18.54Z" fill="#F3F1EF"/>
<path d="M199.718 17.76C199.148 17.76 198.638 18.03 198.188 18.39C197.498 18.96 196.928 19.65 196.418 20.34C196.388 20.37 196.298 20.34 196.298 20.31C196.298 19.74 196.298 18.36 196.328 17.82C196.328 17.79 196.238 17.73 196.208 17.73C195.428 18.21 193.718 18.72 192.818 18.81C192.758 18.84 192.728 19.11 192.728 19.2C194.078 19.53 194.168 20.04 194.198 20.34C194.258 20.73 194.258 21.69 194.258 22.86C194.258 25.11 194.228 27.69 194.138 28.2C194.108 28.74 193.928 28.92 193.658 29.04C193.388 29.13 192.908 29.22 192.548 29.25C192.488 29.34 192.488 29.67 192.548 29.73C193.058 29.7 194.618 29.64 195.428 29.64C196.568 29.64 198.038 29.73 198.458 29.73C198.548 29.67 198.578 29.34 198.518 29.25C198.008 29.22 197.528 29.16 196.958 29.01C196.568 28.86 196.418 28.56 196.388 27.99C196.328 27.39 196.298 23.88 196.298 22.17C196.298 21.72 196.448 21.21 196.568 20.97C196.988 20.28 197.468 19.74 198.098 19.74C198.668 19.74 199.358 20.04 199.838 20.55C199.868 20.55 200.078 20.46 200.078 20.46C200.378 20.1 200.918 19.17 200.978 18.84C201.008 18.72 201.008 18.45 200.978 18.39C200.738 18 200.258 17.76 199.718 17.76Z" fill="#F3F1EF"/>
<path d="M205.616 13.5C205.616 13.32 205.556 12.99 205.376 12.81C205.286 12.72 204.956 12.54 204.566 12.54C204.146 12.54 203.576 12.75 203.366 12.99C203.246 13.17 203.186 13.47 203.216 13.71C203.216 14.16 203.456 14.64 203.846 14.79C204.056 14.91 204.836 14.79 204.986 14.7C205.316 14.55 205.616 14.04 205.616 13.5ZM207.326 29.25C206.726 29.19 206.516 29.13 206.216 29.04C205.796 28.89 205.586 28.62 205.586 27.99C205.556 26.55 205.556 24.42 205.556 22.8C205.556 20.97 205.586 18.54 205.616 17.73C204.506 18.27 202.916 18.54 202.046 18.63C202.016 18.69 202.016 19.02 202.046 19.08C202.586 19.23 202.976 19.32 203.246 19.65C203.426 19.89 203.426 20.07 203.426 20.25C203.456 20.76 203.456 21.81 203.456 22.98C203.456 24.63 203.456 27.03 203.396 27.78C203.366 28.62 203.216 28.86 202.856 29.01C202.556 29.16 202.106 29.22 201.686 29.25C201.626 29.31 201.626 29.67 201.686 29.73C202.196 29.73 203.246 29.64 204.476 29.64C205.436 29.64 206.606 29.73 207.236 29.73C207.326 29.7 207.326 29.34 207.326 29.25Z" fill="#F3F1EF"/>
<path d="M214.913 19.32C214.943 18.96 215.063 18.39 215.153 18.06C214.793 18.12 213.383 18.18 211.913 18.18C211.853 18.18 211.763 18.06 211.763 18C211.763 15.87 211.853 14.67 211.943 14.25C211.853 14.22 211.673 14.16 211.583 14.19C211.343 14.55 210.263 15.45 209.693 15.69V18.06C209.693 18.09 209.663 18.21 209.603 18.24C209.393 18.33 208.673 18.42 208.313 18.48C208.283 18.57 208.073 19.08 208.073 19.2C208.493 19.23 209.333 19.26 209.573 19.32C209.663 19.35 209.693 19.44 209.693 19.53C209.693 20.73 209.663 23.7 209.663 25.29C209.663 27.21 209.693 27.99 210.053 28.71C210.503 29.64 211.433 29.97 212.393 29.97C213.293 29.97 214.433 29.61 215.153 28.65C215.183 28.56 215.243 28.17 215.213 28.14C214.763 28.44 214.313 28.62 213.563 28.62C212.813 28.62 212.213 28.26 211.973 27.57C211.853 27.3 211.793 26.73 211.763 25.77C211.733 24.45 211.763 21.18 211.763 19.47C211.763 19.41 211.853 19.29 211.913 19.29C212.843 19.29 213.983 19.32 214.913 19.32Z" fill="#F3F1EF"/>
<path d="M222.38 21.87C222.38 22.29 222.41 22.68 222.38 23.04C222.38 23.1 222.259 23.28 222.199 23.31C221.179 23.85 217.46 24.84 216.65 25.32C216.5 25.62 216.32 26.52 216.32 26.76C216.32 27.81 216.709 28.74 217.309 29.34C217.729 29.76 218.27 30 218.84 30C219.44 30 220.88 29.31 222.169 28.44C222.199 28.41 222.29 28.44 222.29 28.5C222.32 28.71 222.41 29.1 222.499 29.28C222.77 29.76 223.16 30 223.91 30C224.6 30 225.559 29.7 226.249 28.92C226.309 28.86 226.37 28.41 226.37 28.32C226.01 28.44 225.829 28.47 225.35 28.47C224.48 28.47 224.27 27.69 224.27 27.15C224.27 26.04 224.359 23.79 224.359 22.2C224.359 21.27 224.24 20.04 223.73 19.26C223.13 18.3 222.199 17.76 220.999 17.76C220.219 17.76 218.419 18.51 217.189 19.47C217.04 19.62 216.65 20.58 216.65 20.91C216.65 21.15 217.13 21.54 217.219 21.45C217.549 20.37 218.119 19.5 218.419 19.29C218.66 19.14 219.02 19.02 219.499 19.02C220.49 19.02 221.33 19.41 221.87 20.16C222.2 20.61 222.38 21.3 222.38 21.87ZM222.35 23.97C222.35 24.48 222.32 26.46 222.29 27.39C222.29 27.69 222.169 27.9 222.02 28.02C221.51 28.32 220.88 28.47 220.46 28.47C219.23 28.47 218.389 27.54 218.389 26.28C218.389 26.01 218.51 25.44 218.6 25.35C218.96 24.99 220.88 24.36 222.26 23.91C222.29 23.88 222.35 23.94 222.35 23.97Z" fill="#F3F1EF"/>
</svg>
