<svg xmlns="http://www.w3.org/2000/svg" fill="none" viewBox="0 0 435 77"><defs/><path fill="#CA6D38" d="M0 0h34.128V34.13H0z"/><path fill="#454545" d="M0 42.737h34.128v34.129H0zM42.737 0h34.129v34.128H42.737z"/><path fill="#CA6D38" d="M42.737 42.737h34.129v34.129H42.737z"/><path fill="#454545" d="M145.545 30.266c0 .23.922.115 1.095-.116.058-2.42.634-6.687 1.038-8.301-2.71-.23-6.457-1.095-10.665-1.095-4.958 0-8.763.98-11.819 2.651-6.226 3.344-8.993 9.34-8.993 15.623 0 12.164 7.264 18.967 19.659 18.967 3.574 0 6.629-.692 8.301-1.21 1.326-.692 3.574-4.843 4.324-7.668-.058-.23-.692-.519-.865-.461-1.268 2.248-2.248 3.805-3.747 5.304-2.191 2.075-5.131 2.306-6.86 2.306-9.801 0-15.623-7.034-15.623-17.756 0-10.32 5.188-16.43 13.662-16.43 2.941 0 5.247.345 7.264 1.383 1.96.98 2.71 2.421 3.229 6.803zm3.76 5.938c.98.115 2.018.23 2.479.46.692.289.75.98.807 2.018.116 2.595.058 8.59.058 11.3 0 3.92 1.095 7.667 6.514 7.667 1.787 0 4.266-.865 7.437-3.632.173-.115.346.058.346.173 0 .98-.058 2.594 0 3.286 0 .288.173.461.346.461 1.326-.519 4.958-1.73 7.033-2.306.173-.115.115-.864.115-.98-.749.058-.98.116-1.787.116-1.21 0-1.614-.404-1.614-2.825l-.058-11.415c0-2.421.058-5.015.231-6.11-1.441.345-5.823.864-8.936.864-.173.115-.23.807-.115.923 1.557.173 2.825.288 3.632.518.922.289 1.038 1.096 1.095 1.672.116 2.94.173 11.991.058 13.087-.058.634-.288 1.325-.692 1.614-1.153.922-2.479 1.672-4.497 1.672-2.997 0-4.266-1.672-4.727-3.517-.288-1.153-.288-3.632-.288-6.11 0-8.418.115-9.859.288-10.781-1.499.461-5.246.922-7.552.922-.115.058-.23.75-.173.923zm46.643 16.833c.115-.173.173-.865.173-1.095 0-.115-.115-.173-.173-.173-1.787 1.902-4.266 2.652-6.169 2.652-2.536 0-4.727-.75-6.514-3.113-1.383-1.672-2.133-4.266-2.133-7.322 0-4.093 2.133-8.013 6.226-8.013 2.94 0 5.016 1.902 6.053 2.998.116.057.346.057.519 0 .519-.23 1.384-1.268 1.73-2.018.115-.173.115-.519.115-.692-.231-.634-1.211-1.21-1.672-1.441-1.095-.461-2.191-.692-4.208-.692-2.133 0-5.246 1.095-7.264 2.306-3.747 2.19-5.534 5.938-5.534 9.916 0 2.825.749 5.534 2.248 7.552 1.845 2.479 4.151 3.747 7.667 3.747 2.422 0 5.938-.98 8.936-4.612zm9.448-27.095c0-.346-.116-.98-.462-1.326-.173-.173-.807-.519-1.556-.519-.807 0-1.903.404-2.306.865-.231.346-.346.922-.288 1.384 0 .864.461 1.787 1.21 2.075.404.23 1.903 0 2.191-.173.634-.288 1.211-1.268 1.211-2.306zm3.286 30.266c-1.153-.115-1.557-.23-2.133-.404-.808-.288-1.211-.807-1.211-2.017-.058-2.768-.058-6.86-.058-9.974 0-3.516.058-8.186.116-9.742-2.133 1.037-5.189 1.556-6.861 1.729-.057.115-.057.75 0 .865 1.038.288 1.787.461 2.306 1.095.346.461.346.807.346 1.153.058.98.058 2.998.058 5.246 0 3.17 0 7.783-.115 9.224-.058 1.614-.346 2.075-1.038 2.364-.577.288-1.441.403-2.248.46-.116.116-.116.808 0 .923.98 0 2.997-.173 5.361-.173 1.845 0 4.093.173 5.304.173.173-.057.173-.75.173-.922zm1.607 0c-.115.173-.115.807 0 .922.923 0 1.903-.173 5.247-.173 2.94 0 4.554.173 5.534.173.058-.173.115-.807.058-.922-.923-.115-1.903-.288-2.422-.519-.692-.23-.98-.634-1.037-2.306-.116-2.537-.116-8.129-.116-12.452 0-1.21.173-1.672.577-2.076 1.383-1.268 2.998-1.902 4.669-1.902 1.73 0 2.767.519 3.517 1.268 1.095.98 1.499 2.71 1.672 3.69.288 1.96.23 9.627.115 12.164-.058.865-.288 1.499-1.211 1.787-.345.115-1.153.23-2.19.346-.116.115-.116.807 0 .922 1.21-.057 2.882-.173 5.649-.173 2.883 0 4.209.173 5.016.173.173-.115.23-.75.173-.922-1.038-.115-1.73-.288-2.479-.634-.577-.173-.75-.634-.75-1.326-.057-2.306-.057-7.61-.057-10.608 0-2.767-.346-4.957-1.384-6.572-1.153-1.844-2.825-2.94-5.131-2.94-1.787 0-4.439.98-7.955 3.805-.115.058-.231-.058-.231-.23.058-.98.116-2.249.231-3.402 0-.115-.115-.23-.173-.23-1.499.922-4.497 1.902-6.745 2.19-.173.058-.231.692-.173.807 2.248.635 2.594 1.038 2.71 1.73.057.403.115 2.479.115 5.361 0 3.344.057 7.322-.115 9.34-.058 1.095-.289 2.017-1.096 2.305-.576.23-1.268.346-2.018.404zm39.142-14.182c0 .807.058 1.557 0 2.248 0 .116-.231.462-.346.52-1.96 1.037-9.108 2.94-10.665 3.862-.288.576-.634 2.306-.634 2.767 0 2.018.749 3.805 1.902 4.958.807.807 1.845 1.268 2.94 1.268 1.153 0 3.921-1.326 6.399-2.998.058-.057.231 0 .231.116.058.403.231 1.153.404 1.499.518.922 1.268 1.383 2.709 1.383 1.326 0 3.171-.576 4.497-2.075.115-.116.23-.98.23-1.153-.692.23-1.037.288-1.96.288-1.672 0-2.075-1.499-2.075-2.537 0-2.133.173-6.456.173-9.512 0-1.787-.231-4.15-1.211-5.65-1.153-1.844-2.94-2.882-5.246-2.882-1.499 0-4.958 1.441-7.321 3.286-.289.289-1.038 2.133-1.038 2.767 0 .462.922 1.211 1.095 1.038.634-2.075 1.73-3.747 2.306-4.15.461-.289 1.153-.52 2.076-.52 1.902 0 3.516.75 4.554 2.191.634.865.98 2.19.98 3.286zm-.058 4.036c0 .98-.057 4.785-.115 6.572 0 .576-.231.98-.519 1.21-.98.577-2.19.865-2.998.865-2.363 0-3.977-1.787-3.977-4.208 0-.52.23-1.615.403-1.788.692-.691 4.382-1.902 7.033-2.767.058-.057.173.058.173.116zm30.448-3.92c.634.23 1.614.288 2.537.288 2.19 0 3.977-.462 5.88-1.442 2.94-1.498 5.765-4.67 5.707-9.8-.058-3.69-1.672-6.053-3.517-7.494-2.133-1.614-5.419-2.018-7.321-2.018-3.171 0-5.361.115-8.359.115-2.652 0-5.419-.173-6.514-.173-.116.058-.173.75-.116.865a21.06 21.06 0 012.767.461c1.442.346 1.672 1.326 1.73 3.229.115 1.787.115 8.359.115 12.625 0 8.244-.115 11.818-.23 13.663-.116 2.94-.692 3.055-1.903 3.343-.692.173-1.672.288-2.709.404-.173.115-.116.807.057.922 1.384 0 4.439-.173 7.034-.173 2.305 0 5.764.173 7.206.173.115-.057.173-.807-.058-.922-.922-.115-1.96-.23-2.767-.404-1.672-.346-2.133-.75-2.191-3.574-.173-4.266-.057-11.184-.057-14.7 0-7.726.115-12.222.173-13.606.057-.403.23-.692.403-.75.404-.172 1.557-.23 2.133-.23 6.86 0 9.339 4.266 9.339 9.57.058 3.459-.692 6.11-3.343 7.725-1.153.634-2.249.922-4.036.922-1.211 0-1.787-.115-2.363-.173-.058 0-.173.231-.173.289.057.115.345.692.576.864zm29.82-8.014c-1.096 0-2.076.52-2.941 1.21-1.326 1.096-2.421 2.422-3.401 3.748-.058.058-.231 0-.231-.058 0-1.095 0-3.747.058-4.785 0-.057-.173-.172-.23-.172-1.499.922-4.785 1.902-6.515 2.075-.115.058-.173.576-.173.75 2.594.633 2.767 1.613 2.825 2.19.115.75.115 2.594.115 4.843 0 4.323-.057 9.281-.23 10.261-.058 1.038-.404 1.384-.923 1.614-.518.173-1.441.346-2.133.404-.115.173-.115.807 0 .922.98-.057 3.978-.173 5.535-.173 2.19 0 5.015.173 5.822.173.173-.115.231-.75.116-.922a14.587 14.587 0 01-2.998-.461c-.75-.289-1.038-.865-1.096-1.96-.115-1.153-.173-7.898-.173-11.184 0-.865.289-1.845.519-2.306.807-1.326 1.73-2.364 2.94-2.364 1.096 0 2.422.576 3.344 1.557.058 0 .461-.173.461-.173.577-.692 1.614-2.48 1.73-3.113.057-.231.057-.75 0-.865-.461-.75-1.384-1.21-2.421-1.21zM331.958 52c-2.075 1.96-4.093 2.422-6.283 2.422-2.422 0-4.612-.807-6.342-2.94-1.268-1.557-2.075-4.093-2.133-6.342 0-.288.115-.634.346-.634 4.439-.115 12.452-.576 14.701-1.326.173-.057.288-.576.23-.75-.519-.057-.634-.288-.692-.46-.461-2.768-2.248-7.84-7.609-7.84-1.499 0-4.324.806-5.88 1.844-3.056 1.902-4.958 5.419-4.958 10.089 0 3.113.807 6.456 2.997 8.82 1.557 1.73 3.863 2.767 6.745 2.767 2.825 0 6.227-1.499 8.994-4.497.057-.115.173-.691.115-.98 0-.115-.173-.173-.231-.173zm-9.627-16.372c3.344 0 4.958 3.632 5.304 6.572 0 .23-.231.404-.346.461-1.211.289-8.186.52-9.743.404-.058 0-.173-.173-.173-.346.231-4.612 2.364-7.09 4.958-7.09zm12.091 20.58c-.115.174-.115.866 0 .923 1.269 0 4.036-.173 5.419-.173 2.595 0 4.555.173 6.111.173.116-.115.173-.807.116-.922-1.326-.115-1.73-.23-2.479-.404-1.096-.23-1.615-.865-1.672-2.248-.116-2.825-.058-10.031-.116-16.026 0-.058.173-.462.231-.462.922-.057 3.978.058 5.131.058.058-.634.288-1.787.461-2.364-.634.058-2.479.116-5.534.173-.116 0-.231-.288-.231-.346-.058-.346-.058-1.614-.058-1.96.058-4.842.231-9.858 2.134-11.702.691-.635 1.498-.98 2.421-.98 2.133 0 4.151 1.787 5.073 2.709.115.058.346.058.461-.058.404-.288 1.73-2.248 1.903-2.767v-.461c-.462-.98-2.076-2.075-4.324-2.075-1.211 0-3.344.807-5.131 2.075-5.015 3.574-6.457 8.129-6.457 15.277 0 .115-.115.288-.23.346-.346.23-1.614.692-2.479.807-.173.23-.404.865-.404 1.153l2.825.115c.115 0 .231.346.231.462-.058 6.571-.058 13.086-.116 16.141 0 1.153-.23 1.845-1.21 2.19-.461.116-1.153.232-2.076.347zM367.539 52c-2.076 1.96-4.093 2.422-6.284 2.422-2.421 0-4.612-.807-6.341-2.94-1.269-1.557-2.076-4.093-2.134-6.342 0-.288.116-.634.346-.634 4.439-.115 12.453-.576 14.701-1.326.173-.057.288-.576.23-.75-.518-.057-.634-.288-.691-.46-.461-2.768-2.249-7.84-7.61-7.84-1.499 0-4.324.806-5.88 1.844-3.056 1.902-4.958 5.419-4.958 10.089 0 3.113.807 6.456 2.998 8.82 1.556 1.73 3.862 2.767 6.745 2.767 2.825 0 6.226-1.499 8.993-4.497.058-.115.173-.691.115-.98 0-.115-.173-.173-.23-.173zm-9.628-16.372c3.344 0 4.958 3.632 5.304 6.572 0 .23-.231.404-.346.461-1.211.289-8.186.52-9.743.404-.057 0-.173-.173-.173-.346.231-4.612 2.364-7.09 4.958-7.09zm25.874-1.499c-1.095 0-2.075.52-2.94 1.21-1.326 1.096-2.421 2.422-3.401 3.748-.058.058-.231 0-.231-.058 0-1.095 0-3.747.058-4.785 0-.057-.173-.172-.231-.172-1.499.922-4.785 1.902-6.514 2.075-.116.058-.173.576-.173.75 2.594.633 2.767 1.613 2.824 2.19.116.75.116 2.594.116 4.843 0 4.323-.058 9.281-.231 10.261-.057 1.038-.403 1.384-.922 1.614-.519.173-1.441.346-2.133.404-.116.173-.116.807 0 .922.98-.057 3.978-.173 5.534-.173 2.191 0 5.016.173 5.823.173.173-.115.23-.75.115-.922a14.597 14.597 0 01-2.998-.461c-.749-.289-1.037-.865-1.095-1.96-.115-1.153-.173-7.898-.173-11.184 0-.865.288-1.845.519-2.306.807-1.326 1.729-2.364 2.94-2.364 1.095 0 2.421.576 3.344 1.557.057 0 .461-.173.461-.173.576-.692 1.614-2.48 1.729-3.113.058-.231.058-.75 0-.865-.461-.75-1.383-1.21-2.421-1.21zm11.335-8.186c0-.346-.116-.98-.461-1.326-.173-.173-.808-.519-1.557-.519-.807 0-1.902.404-2.306.865-.231.346-.346.922-.288 1.384 0 .864.461 1.787 1.21 2.075.404.23 1.903 0 2.191-.173.634-.288 1.211-1.268 1.211-2.306zm3.286 30.266c-1.153-.115-1.557-.23-2.133-.404-.807-.288-1.211-.807-1.211-2.017-.058-2.768-.058-6.86-.058-9.974 0-3.516.058-8.186.116-9.742-2.133 1.037-5.189 1.556-6.861 1.729-.057.115-.057.75 0 .865 1.038.288 1.788.461 2.306 1.095.346.461.346.807.346 1.153.058.98.058 2.998.058 5.246 0 3.17 0 7.783-.115 9.224-.058 1.614-.346 2.075-1.038 2.364-.576.288-1.441.403-2.248.46-.116.116-.116.808 0 .923.98 0 2.997-.173 5.361-.173 1.845 0 4.093.173 5.304.173.173-.057.173-.75.173-.922zm14.579-19.082c.057-.692.288-1.787.461-2.421-.692.115-3.401.23-6.226.23-.116 0-.289-.23-.289-.346 0-4.093.173-6.399.346-7.206-.173-.057-.518-.173-.691-.115-.462.692-2.537 2.421-3.632 2.882v4.555c0 .057-.058.288-.173.346-.404.173-1.787.345-2.479.46-.058.174-.461 1.154-.461 1.384.807.058 2.421.116 2.882.231.173.058.231.23.231.404 0 2.305-.058 8.013-.058 11.068 0 3.69.058 5.189.749 6.572.865 1.787 2.652 2.421 4.497 2.421 1.73 0 3.92-.691 5.304-2.536.057-.173.173-.922.115-.98-.865.576-1.729.922-3.171.922-1.441 0-2.594-.692-3.055-2.017-.231-.52-.346-1.615-.404-3.46-.057-2.536 0-8.82 0-12.106 0-.115.173-.346.289-.346 1.787 0 3.978.058 5.765.058zm14.348 4.9c0 .807.057 1.557 0 2.248 0 .116-.231.462-.346.52-1.96 1.037-9.109 2.94-10.665 3.862-.289.576-.635 2.306-.635 2.767 0 2.018.75 3.805 1.903 4.958.807.807 1.845 1.268 2.94 1.268 1.153 0 3.92-1.326 6.399-2.998.058-.057.231 0 .231.116.057.403.23 1.153.403 1.499.519.922 1.268 1.383 2.71 1.383 1.326 0 3.17-.576 4.496-2.075.116-.116.231-.98.231-1.153-.692.23-1.038.288-1.96.288-1.672 0-2.076-1.499-2.076-2.537 0-2.133.173-6.456.173-9.512 0-1.787-.23-4.15-1.21-5.65-1.153-1.844-2.94-2.882-5.246-2.882-1.499 0-4.958 1.441-7.322 3.286-.288.289-1.037 2.133-1.037 2.767 0 .462.922 1.211 1.095 1.038.634-2.075 1.729-3.747 2.306-4.15.461-.289 1.153-.52 2.075-.52 1.903 0 3.517.75 4.554 2.191.635.865.981 2.19.981 3.286zm-.058 4.036c0 .98-.058 4.785-.115 6.572 0 .576-.231.98-.519 1.21-.98.577-2.191.865-2.998.865-2.364 0-3.978-1.787-3.978-4.208 0-.52.231-1.615.404-1.788.691-.691 4.381-1.902 7.033-2.767.058-.057.173.058.173.116z"/></svg>