<svg width="435" height="77" viewBox="0 0 435 77" fill="none" xmlns="http://www.w3.org/2000/svg">
<rect y="0.000488281" width="34.1283" height="34.1283" fill="#CA6D38"/>
<rect y="42.7373" width="34.1283" height="34.1283" fill="#454545"/>
<rect x="42.7373" width="34.1283" height="34.1283" fill="#454545"/>
<rect x="42.7373" y="42.7373" width="34.1283" height="34.1283" fill="#CA6D38"/>
<path d="M145.545 30.2657C145.545 30.4963 146.467 30.381 146.64 30.1504C146.698 27.7292 147.274 23.4631 147.678 21.849C144.968 21.6184 141.221 20.7536 137.013 20.7536C132.055 20.7536 128.25 21.7337 125.194 23.4055C118.968 26.7491 116.201 32.7446 116.201 39.0284C116.201 51.1924 123.465 57.9949 135.86 57.9949C139.434 57.9949 142.489 57.3032 144.161 56.7843C145.487 56.0925 147.735 51.9418 148.485 49.117C148.427 48.8864 147.793 48.5981 147.62 48.6558C146.352 50.9041 145.372 52.4606 143.873 53.9595C141.682 56.0349 138.742 56.2655 137.013 56.2655C127.212 56.2655 121.39 49.2323 121.39 38.5095C121.39 28.1904 126.578 22.0796 135.052 22.0796C137.993 22.0796 140.299 22.4254 142.316 23.4631C144.276 24.4432 145.026 25.8844 145.545 30.2657Z" fill="#454545"/>
<path d="M149.305 36.2036C150.285 36.3189 151.323 36.4342 151.784 36.6648C152.476 36.953 152.534 37.6448 152.591 38.6825C152.707 41.2767 152.649 47.2722 152.649 49.9817C152.649 53.9019 153.744 57.6491 159.163 57.6491C160.95 57.6491 163.429 56.7843 166.6 54.0172C166.773 53.9019 166.946 54.0748 166.946 54.1901C166.946 55.1701 166.888 56.7843 166.946 57.4761C166.946 57.7644 167.119 57.9373 167.292 57.9373C168.618 57.4185 172.25 56.2078 174.325 55.6313C174.498 55.516 174.44 54.7666 174.44 54.6513C173.691 54.7089 173.46 54.7666 172.653 54.7666C171.443 54.7666 171.039 54.3631 171.039 51.9418L170.981 40.5273C170.981 38.106 171.039 35.5118 171.212 34.4165C169.771 34.7624 165.389 35.2812 162.276 35.2812C162.103 35.3965 162.046 36.0883 162.161 36.2036C163.718 36.3765 164.986 36.4918 165.793 36.7224C166.715 37.0107 166.831 37.8178 166.888 38.3942C167.004 41.3344 167.061 50.3853 166.946 51.4806C166.888 52.1147 166.658 52.8065 166.254 53.0948C165.101 54.0172 163.775 54.7666 161.757 54.7666C158.76 54.7666 157.491 53.0948 157.03 51.25C156.742 50.097 156.742 47.6181 156.742 45.1392C156.742 36.7224 156.857 35.2812 157.03 34.3588C155.531 34.82 151.784 35.2812 149.478 35.2812C149.363 35.3388 149.248 36.0306 149.305 36.2036Z" fill="#454545"/>
<path d="M195.948 53.0371C196.063 52.8642 196.121 52.1724 196.121 51.9418C196.121 51.8265 196.006 51.7688 195.948 51.7688C194.161 53.6713 191.682 54.4207 189.779 54.4207C187.243 54.4207 185.052 53.6713 183.265 51.3077C181.882 49.6358 181.132 47.0416 181.132 43.9862C181.132 39.8931 183.265 35.973 187.358 35.973C190.298 35.973 192.374 37.8754 193.411 38.9707C193.527 39.0284 193.757 39.0284 193.93 38.9707C194.449 38.7401 195.314 37.7025 195.66 36.953C195.775 36.7801 195.775 36.4342 195.775 36.2612C195.544 35.6271 194.564 35.0506 194.103 34.82C193.008 34.3588 191.912 34.1282 189.895 34.1282C187.762 34.1282 184.649 35.2235 182.631 36.4342C178.884 38.6248 177.097 42.372 177.097 46.3498C177.097 49.1746 177.846 51.8841 179.345 53.9019C181.19 56.3808 183.496 57.6491 187.012 57.6491C189.434 57.6491 192.95 56.669 195.948 53.0371Z" fill="#454545"/>
<path d="M205.396 25.942C205.396 25.5961 205.28 24.962 204.934 24.6161C204.761 24.4432 204.127 24.0973 203.378 24.0973C202.571 24.0973 201.475 24.5008 201.072 24.962C200.841 25.3079 200.726 25.8844 200.784 26.3456C200.784 27.2103 201.245 28.1327 201.994 28.421C202.398 28.6516 203.897 28.421 204.185 28.248C204.819 27.9598 205.396 26.9797 205.396 25.942ZM208.682 56.2078C207.529 56.0925 207.125 55.9772 206.549 55.8043C205.741 55.516 205.338 54.9972 205.338 53.7866C205.28 51.0194 205.28 46.9263 205.28 43.8133C205.28 40.2967 205.338 35.6271 205.396 34.0706C203.263 35.1082 200.207 35.6271 198.535 35.8C198.478 35.9153 198.478 36.5495 198.535 36.6648C199.573 36.953 200.322 37.126 200.841 37.7601C201.187 38.2213 201.187 38.5672 201.187 38.9131C201.245 39.8931 201.245 41.9108 201.245 44.1592C201.245 47.3299 201.245 51.9418 201.13 53.383C201.072 54.9972 200.784 55.4584 200.092 55.7466C199.515 56.0349 198.651 56.1502 197.844 56.2078C197.728 56.3231 197.728 57.0149 197.844 57.1302C198.824 57.1302 200.841 56.9573 203.205 56.9573C205.05 56.9573 207.298 57.1302 208.509 57.1302C208.682 57.0726 208.682 56.3808 208.682 56.2078Z" fill="#454545"/>
<path d="M210.289 56.2078C210.174 56.3808 210.174 57.0149 210.289 57.1302C211.212 57.1302 212.192 56.9573 215.536 56.9573C218.476 56.9573 220.09 57.1302 221.07 57.1302C221.128 56.9573 221.185 56.3231 221.128 56.2078C220.205 56.0925 219.225 55.9196 218.706 55.689C218.014 55.4584 217.726 55.0548 217.669 53.383C217.553 50.8465 217.553 45.2545 217.553 40.9308C217.553 39.7202 217.726 39.259 218.13 38.8554C219.513 37.5872 221.128 36.953 222.799 36.953C224.529 36.953 225.566 37.4719 226.316 38.2213C227.411 39.2013 227.815 40.9308 227.988 41.9108C228.276 43.8709 228.218 51.5382 228.103 54.0748C228.045 54.9395 227.815 55.5737 226.892 55.8619C226.547 55.9772 225.739 56.0925 224.702 56.2078C224.586 56.3231 224.586 57.0149 224.702 57.1302C225.912 57.0726 227.584 56.9573 230.351 56.9573C233.234 56.9573 234.56 57.1302 235.367 57.1302C235.54 57.0149 235.597 56.3808 235.54 56.2078C234.502 56.0925 233.81 55.9196 233.061 55.5737C232.484 55.4007 232.311 54.9395 232.311 54.2478C232.254 51.9418 232.254 46.6381 232.254 43.6403C232.254 40.8732 231.908 38.6825 230.87 37.0683C229.717 35.2236 228.045 34.1282 225.739 34.1282C223.952 34.1282 221.3 35.1083 217.784 37.9331C217.669 37.9907 217.553 37.8754 217.553 37.7025C217.611 36.7224 217.669 35.4541 217.784 34.3012C217.784 34.1859 217.669 34.0706 217.611 34.0706C216.112 34.993 213.114 35.973 210.866 36.2612C210.693 36.3189 210.635 36.953 210.693 37.0683C212.941 37.7025 213.287 38.106 213.403 38.7978C213.46 39.2013 213.518 41.2767 213.518 44.1592C213.518 47.5028 213.575 51.4806 213.403 53.4983C213.345 54.5937 213.114 55.516 212.307 55.8043C211.731 56.0349 211.039 56.1502 210.289 56.2078Z" fill="#454545"/>
<path d="M249.431 42.0261C249.431 42.8332 249.489 43.5827 249.431 44.2745C249.431 44.3898 249.2 44.7357 249.085 44.7933C247.125 45.831 239.977 47.7334 238.42 48.6558C238.132 49.2323 237.786 50.9618 237.786 51.423C237.786 53.4407 238.535 55.2278 239.688 56.3808C240.495 57.1879 241.533 57.6491 242.628 57.6491C243.781 57.6491 246.549 56.3231 249.027 54.6513C249.085 54.5937 249.258 54.6513 249.258 54.7666C249.316 55.1701 249.489 55.9196 249.662 56.2655C250.18 57.1879 250.93 57.6491 252.371 57.6491C253.697 57.6491 255.542 57.0726 256.868 55.5737C256.983 55.4584 257.098 54.5937 257.098 54.4207C256.406 54.6513 256.061 54.709 255.138 54.709C253.466 54.709 253.063 53.2101 253.063 52.1724C253.063 50.0394 253.236 45.7157 253.236 42.6603C253.236 40.8732 253.005 38.5095 252.025 37.0107C250.872 35.1659 249.085 34.1282 246.779 34.1282C245.28 34.1282 241.821 35.5694 239.458 37.4142C239.169 37.7025 238.42 39.5472 238.42 40.1814C238.42 40.6426 239.342 41.392 239.515 41.2191C240.149 39.1437 241.245 37.4719 241.821 37.0683C242.282 36.7801 242.974 36.5495 243.897 36.5495C245.799 36.5495 247.413 37.2989 248.451 38.7401C249.085 39.6049 249.431 40.9308 249.431 42.0261ZM249.373 46.0616C249.373 47.0416 249.316 50.8465 249.258 52.6336C249.258 53.2101 249.027 53.6136 248.739 53.8442C247.759 54.4207 246.549 54.709 245.741 54.709C243.378 54.709 241.764 52.9218 241.764 50.5006C241.764 49.9817 241.994 48.8864 242.167 48.7134C242.859 48.0217 246.549 46.811 249.2 45.9463C249.258 45.8886 249.373 46.0039 249.373 46.0616Z" fill="#454545"/>
<path d="M279.821 42.1414C280.455 42.372 281.435 42.4297 282.358 42.4297C284.548 42.4297 286.335 41.9685 288.238 40.9885C291.178 39.4896 294.003 36.3189 293.945 31.1881C293.887 27.4986 292.273 25.135 290.428 23.6937C288.295 22.0796 285.009 21.676 283.107 21.676C279.936 21.676 277.746 21.7913 274.748 21.7913C272.096 21.7913 269.329 21.6184 268.234 21.6184C268.118 21.676 268.061 22.3678 268.118 22.4831C269.271 22.5984 270.136 22.7713 270.885 22.9443C272.327 23.2902 272.557 24.2702 272.615 26.1726C272.73 27.9598 272.73 34.5318 272.73 38.7978C272.73 47.0416 272.615 50.6159 272.5 52.4606C272.384 55.4007 271.808 55.516 270.597 55.8043C269.905 55.9772 268.925 56.0925 267.888 56.2078C267.715 56.3231 267.772 57.0149 267.945 57.1302C269.329 57.1302 272.384 56.9573 274.979 56.9573C277.284 56.9573 280.743 57.1302 282.185 57.1302C282.3 57.0726 282.358 56.3231 282.127 56.2078C281.205 56.0925 280.167 55.9772 279.36 55.8043C277.688 55.4584 277.227 55.0548 277.169 52.23C276.996 47.964 277.112 41.0461 277.112 37.5295C277.112 29.8045 277.227 25.3079 277.285 23.9243C277.342 23.5208 277.515 23.2325 277.688 23.1749C278.092 23.0019 279.245 22.9443 279.821 22.9443C286.681 22.9443 289.16 27.2103 289.16 32.514C289.218 35.973 288.468 38.6248 285.817 40.239C284.664 40.8732 283.568 41.1614 281.781 41.1614C280.57 41.1614 279.994 41.0461 279.418 40.9885C279.36 40.9885 279.245 41.2191 279.245 41.2767C279.302 41.392 279.59 41.9685 279.821 42.1414Z" fill="#454545"/>
<path d="M309.641 34.1282C308.545 34.1282 307.565 34.6471 306.7 35.3388C305.374 36.4342 304.279 37.7601 303.299 39.086C303.241 39.1437 303.068 39.086 303.068 39.0284C303.068 37.9331 303.068 35.2812 303.126 34.2435C303.126 34.1859 302.953 34.0706 302.896 34.0706C301.397 34.993 298.111 35.973 296.381 36.1459C296.266 36.2036 296.208 36.7224 296.208 36.8954C298.802 37.5295 298.975 38.5095 299.033 39.086C299.148 39.8355 299.148 41.6802 299.148 43.9286C299.148 48.2522 299.091 53.2101 298.918 54.1901C298.86 55.2278 298.514 55.5737 297.995 55.8043C297.477 55.9772 296.554 56.1502 295.862 56.2078C295.747 56.3808 295.747 57.0149 295.862 57.1302C296.842 57.0726 299.84 56.9573 301.397 56.9573C303.587 56.9573 306.412 57.1302 307.219 57.1302C307.392 57.0149 307.45 56.3808 307.335 56.2078C306.355 56.1502 305.432 56.0349 304.337 55.7466C303.587 55.4584 303.299 54.8819 303.241 53.7866C303.126 52.6336 303.068 45.8886 303.068 42.6026C303.068 41.7379 303.357 40.7579 303.587 40.2967C304.394 38.9707 305.317 37.9331 306.527 37.9331C307.623 37.9331 308.949 38.5095 309.871 39.4896C309.929 39.4896 310.332 39.3166 310.332 39.3166C310.909 38.6248 311.946 36.8377 312.062 36.2036C312.119 35.973 312.119 35.4541 312.062 35.3388C311.601 34.5894 310.678 34.1282 309.641 34.1282Z" fill="#454545"/>
<path d="M331.958 51.9994C329.883 53.9595 327.865 54.4207 325.675 54.4207C323.253 54.4207 321.063 53.6136 319.333 51.4806C318.065 49.9241 317.258 47.3875 317.2 45.1392C317.2 44.851 317.315 44.5051 317.546 44.5051C321.985 44.3898 329.998 43.9286 332.247 43.1791C332.42 43.1215 332.535 42.6026 332.477 42.4297C331.958 42.372 331.843 42.1414 331.785 41.9685C331.324 39.2013 329.537 34.1282 324.176 34.1282C322.677 34.1282 319.852 34.9353 318.296 35.973C315.24 37.8754 313.338 41.392 313.338 46.0616C313.338 49.1746 314.145 52.5183 316.335 54.8819C317.892 56.6114 320.198 57.6491 323.08 57.6491C325.905 57.6491 329.307 56.1502 332.074 53.1524C332.131 53.0371 332.247 52.4606 332.189 52.1724C332.189 52.0571 332.016 51.9994 331.958 51.9994ZM322.331 35.6271C325.675 35.6271 327.289 39.259 327.635 42.1991C327.635 42.4297 327.404 42.6026 327.289 42.6603C326.078 42.9485 319.103 43.1791 317.546 43.0638C317.488 43.0638 317.373 42.8909 317.373 42.7179C317.604 38.106 319.737 35.6271 322.331 35.6271Z" fill="#454545"/>
<path d="M334.422 56.2078C334.307 56.3808 334.307 57.0726 334.422 57.1302C335.691 57.1302 338.458 56.9573 339.841 56.9573C342.436 56.9573 344.396 57.1302 345.952 57.1302C346.068 57.0149 346.125 56.3231 346.068 56.2078C344.742 56.0925 344.338 55.9772 343.589 55.8043C342.493 55.5737 341.974 54.9395 341.917 53.556C341.801 50.7312 341.859 43.525 341.801 37.5295C341.801 37.4719 341.974 37.0683 342.032 37.0683C342.954 37.0107 346.01 37.126 347.163 37.126C347.221 36.4918 347.451 35.3388 347.624 34.7624C346.99 34.82 345.145 34.8777 342.09 34.9353C341.974 34.9353 341.859 34.6471 341.859 34.5894C341.801 34.2435 341.801 32.9752 341.801 32.6293C341.859 27.7868 342.032 22.7713 343.935 20.9266C344.626 20.2924 345.433 19.9465 346.356 19.9465C348.489 19.9465 350.507 21.7337 351.429 22.656C351.544 22.7137 351.775 22.7137 351.89 22.5984C352.294 22.3102 353.62 20.3501 353.793 19.8312V19.37C353.331 18.39 351.717 17.2947 349.469 17.2947C348.258 17.2947 346.125 18.1018 344.338 19.37C339.323 22.9443 337.881 27.4986 337.881 34.6471C337.881 34.7624 337.766 34.9353 337.651 34.993C337.305 35.2235 336.037 35.6847 335.172 35.8C334.999 36.0306 334.768 36.6648 334.768 36.953L337.593 37.0683C337.708 37.0683 337.824 37.4142 337.824 37.5295C337.766 44.1015 337.766 50.6159 337.708 53.6713C337.708 54.8242 337.478 55.516 336.498 55.8619C336.037 55.9772 335.345 56.0925 334.422 56.2078Z" fill="#454545"/>
<path d="M367.539 51.9994C365.463 53.9595 363.446 54.4207 361.255 54.4207C358.834 54.4207 356.643 53.6136 354.914 51.4806C353.645 49.9241 352.838 47.3875 352.78 45.1392C352.78 44.851 352.896 44.5051 353.126 44.5051C357.565 44.3898 365.579 43.9286 367.827 43.1791C368 43.1215 368.115 42.6026 368.057 42.4297C367.539 42.372 367.423 42.1414 367.366 41.9685C366.905 39.2013 365.117 34.1282 359.756 34.1282C358.257 34.1282 355.432 34.9353 353.876 35.973C350.82 37.8754 348.918 41.392 348.918 46.0616C348.918 49.1746 349.725 52.5183 351.916 54.8819C353.472 56.6114 355.778 57.6491 358.661 57.6491C361.486 57.6491 364.887 56.1502 367.654 53.1524C367.712 53.0371 367.827 52.4606 367.769 52.1724C367.769 52.0571 367.596 51.9994 367.539 51.9994ZM357.911 35.6271C361.255 35.6271 362.869 39.259 363.215 42.1991C363.215 42.4297 362.984 42.6026 362.869 42.6603C361.658 42.9485 354.683 43.1791 353.126 43.0638C353.069 43.0638 352.953 42.8909 352.953 42.7179C353.184 38.106 355.317 35.6271 357.911 35.6271Z" fill="#454545"/>
<path d="M383.785 34.1282C382.69 34.1282 381.71 34.6471 380.845 35.3388C379.519 36.4342 378.424 37.7601 377.444 39.086C377.386 39.1437 377.213 39.086 377.213 39.0284C377.213 37.9331 377.213 35.2812 377.271 34.2435C377.271 34.1859 377.098 34.0706 377.04 34.0706C375.541 34.993 372.255 35.973 370.526 36.1459C370.41 36.2036 370.353 36.7224 370.353 36.8954C372.947 37.5295 373.12 38.5095 373.177 39.086C373.293 39.8355 373.293 41.6802 373.293 43.9286C373.293 48.2522 373.235 53.2101 373.062 54.1901C373.005 55.2278 372.659 55.5737 372.14 55.8043C371.621 55.9772 370.699 56.1502 370.007 56.2078C369.891 56.3808 369.891 57.0149 370.007 57.1302C370.987 57.0726 373.985 56.9573 375.541 56.9573C377.732 56.9573 380.557 57.1302 381.364 57.1302C381.537 57.0149 381.594 56.3808 381.479 56.2078C380.499 56.1502 379.577 56.0349 378.481 55.7466C377.732 55.4584 377.444 54.8819 377.386 53.7866C377.271 52.6336 377.213 45.8886 377.213 42.6026C377.213 41.7379 377.501 40.7579 377.732 40.2967C378.539 38.9707 379.461 37.9331 380.672 37.9331C381.767 37.9331 383.093 38.5095 384.016 39.4896C384.073 39.4896 384.477 39.3166 384.477 39.3166C385.053 38.6248 386.091 36.8377 386.206 36.2036C386.264 35.973 386.264 35.4541 386.206 35.3388C385.745 34.5894 384.823 34.1282 383.785 34.1282Z" fill="#454545"/>
<path d="M395.12 25.942C395.12 25.5961 395.004 24.962 394.659 24.6161C394.486 24.4432 393.851 24.0973 393.102 24.0973C392.295 24.0973 391.2 24.5008 390.796 24.962C390.565 25.3079 390.45 25.8844 390.508 26.3456C390.508 27.2103 390.969 28.1327 391.718 28.421C392.122 28.6516 393.621 28.421 393.909 28.248C394.543 27.9598 395.12 26.9797 395.12 25.942ZM398.406 56.2078C397.253 56.0925 396.849 55.9772 396.273 55.8043C395.466 55.516 395.062 54.9972 395.062 53.7866C395.004 51.0194 395.004 46.9263 395.004 43.8133C395.004 40.2967 395.062 35.6271 395.12 34.0706C392.987 35.1082 389.931 35.6271 388.259 35.8C388.202 35.9153 388.202 36.5495 388.259 36.6648C389.297 36.953 390.047 37.126 390.565 37.7601C390.911 38.2213 390.911 38.5672 390.911 38.9131C390.969 39.8931 390.969 41.9108 390.969 44.1592C390.969 47.3299 390.969 51.9418 390.854 53.383C390.796 54.9972 390.508 55.4584 389.816 55.7466C389.24 56.0349 388.375 56.1502 387.568 56.2078C387.452 56.3231 387.452 57.0149 387.568 57.1302C388.548 57.1302 390.565 56.9573 392.929 56.9573C394.774 56.9573 397.022 57.1302 398.233 57.1302C398.406 57.0726 398.406 56.3808 398.406 56.2078Z" fill="#454545"/>
<path d="M412.985 37.126C413.042 36.4342 413.273 35.3388 413.446 34.7047C412.754 34.82 410.045 34.9353 407.22 34.9353C407.104 34.9353 406.931 34.7047 406.931 34.5894C406.931 30.4963 407.104 28.1904 407.277 27.3833C407.104 27.3256 406.759 27.2103 406.586 27.268C406.124 27.9598 404.049 29.6892 402.954 30.1504V34.7047C402.954 34.7624 402.896 34.993 402.781 35.0506C402.377 35.2236 400.994 35.3965 400.302 35.5118C400.244 35.6847 399.841 36.6648 399.841 36.8954C400.648 36.953 402.262 37.0107 402.723 37.126C402.896 37.1836 402.954 37.3566 402.954 37.5295C402.954 39.8355 402.896 45.5427 402.896 48.5981C402.896 52.2877 402.954 53.7866 403.645 55.1701C404.51 56.9573 406.297 57.5914 408.142 57.5914C409.872 57.5914 412.062 56.8996 413.446 55.0548C413.503 54.8819 413.619 54.1325 413.561 54.0748C412.696 54.6513 411.832 54.9972 410.39 54.9972C408.949 54.9972 407.796 54.3054 407.335 52.9795C407.104 52.4606 406.989 51.3653 406.931 49.5205C406.874 46.984 406.931 40.7002 406.931 37.4142C406.931 37.2989 407.104 37.0683 407.22 37.0683C409.007 37.0683 411.198 37.126 412.985 37.126Z" fill="#454545"/>
<path d="M427.333 42.0261C427.333 42.8332 427.39 43.5827 427.333 44.2745C427.333 44.3898 427.102 44.7357 426.987 44.7933C425.027 45.831 417.878 47.7334 416.322 48.6558C416.033 49.2323 415.687 50.9618 415.687 51.423C415.687 53.4407 416.437 55.2278 417.59 56.3808C418.397 57.1879 419.435 57.6491 420.53 57.6491C421.683 57.6491 424.45 56.3231 426.929 54.6513C426.987 54.5937 427.16 54.6513 427.16 54.7666C427.217 55.1701 427.39 55.9196 427.563 56.2655C428.082 57.1879 428.831 57.6491 430.273 57.6491C431.599 57.6491 433.443 57.0726 434.769 55.5737C434.885 55.4584 435 54.5937 435 54.4207C434.308 54.6513 433.962 54.709 433.04 54.709C431.368 54.709 430.964 53.2101 430.964 52.1724C430.964 50.0394 431.137 45.7157 431.137 42.6603C431.137 40.8732 430.907 38.5095 429.927 37.0107C428.774 35.1659 426.987 34.1282 424.681 34.1282C423.182 34.1282 419.723 35.5694 417.359 37.4142C417.071 37.7025 416.322 39.5472 416.322 40.1814C416.322 40.6426 417.244 41.392 417.417 41.2191C418.051 39.1437 419.146 37.4719 419.723 37.0683C420.184 36.7801 420.876 36.5495 421.798 36.5495C423.701 36.5495 425.315 37.2989 426.352 38.7401C426.987 39.6049 427.333 40.9308 427.333 42.0261ZM427.275 46.0616C427.275 47.0416 427.217 50.8465 427.16 52.6336C427.16 53.2101 426.929 53.6136 426.641 53.8442C425.661 54.4207 424.45 54.709 423.643 54.709C421.279 54.709 419.665 52.9218 419.665 50.5006C419.665 49.9817 419.896 48.8864 420.069 48.7134C420.76 48.0217 424.45 46.811 427.102 45.9463C427.16 45.8886 427.275 46.0039 427.275 46.0616Z" fill="#454545"/>
</svg>
