<svg xmlns="http://www.w3.org/2000/svg" fill="none" viewBox="0 0 435 77"><defs/><path fill="#CA6D38" d="M0 .00048828h34.1283v34.1283H0z"/><path fill="#454545" d="M0 42.7373h34.1283v34.1283H0zM42.7373 0h34.1283v34.1283H42.7373z"/><path fill="#CA6D38" d="M42.7373 42.7373h34.1283v34.1283H42.7373z"/><path fill="#454545" d="M145.545 30.2657c0 .2306.922.1153 1.095-.1153.058-2.4212.634-6.6873 1.038-8.3014-2.71-.2306-6.457-1.0954-10.665-1.0954-4.958 0-8.763.9801-11.819 2.6519-6.226 3.3436-8.993 9.3391-8.993 15.6229 0 12.164 7.264 18.9665 19.659 18.9665 3.574 0 6.629-.6917 8.301-1.2106 1.326-.6918 3.574-4.8425 4.324-7.6673-.058-.2306-.692-.5189-.865-.4612-1.268 2.2483-2.248 3.8048-3.747 5.3037-2.191 2.0754-5.131 2.306-6.86 2.306-9.801 0-15.623-7.0332-15.623-17.756 0-10.3191 5.188-16.4299 13.662-16.4299 2.941 0 5.247.3458 7.264 1.3835 1.96.9801 2.71 2.4213 3.229 6.8026zM149.305 36.2036c.98.1153 2.018.2306 2.479.4612.692.2882.75.98.807 2.0177.116 2.5942.058 8.5897.058 11.2992 0 3.9202 1.095 7.6674 6.514 7.6674 1.787 0 4.266-.8648 7.437-3.6319.173-.1153.346.0576.346.1729 0 .98-.058 2.5942 0 3.286 0 .2883.173.4612.346.4612 1.326-.5188 4.958-1.7295 7.033-2.306.173-.1153.115-.8647.115-.98-.749.0576-.98.1153-1.787.1153-1.21 0-1.614-.4035-1.614-2.8248l-.058-11.4145c0-2.4213.058-5.0155.231-6.1108-1.441.3459-5.823.8647-8.936.8647-.173.1153-.23.8071-.115.9224 1.557.1729 2.825.2882 3.632.5188.922.2883 1.038 1.0954 1.095 1.6718.116 2.9402.173 11.9911.058 13.0864-.058.6341-.288 1.3259-.692 1.6142-1.153.9224-2.479 1.6718-4.497 1.6718-2.997 0-4.266-1.6718-4.727-3.5166-.288-1.153-.288-3.6319-.288-6.1108 0-8.4168.115-9.858.288-10.7804-1.499.4612-5.246.9224-7.552.9224-.115.0576-.23.7494-.173.9224zM195.948 53.0371c.115-.1729.173-.8647.173-1.0953 0-.1153-.115-.173-.173-.173-1.787 1.9025-4.266 2.6519-6.169 2.6519-2.536 0-4.727-.7494-6.514-3.113-1.383-1.6719-2.133-4.2661-2.133-7.3215 0-4.0931 2.133-8.0132 6.226-8.0132 2.94 0 5.016 1.9024 6.053 2.9977.116.0577.346.0577.519 0 .519-.2306 1.384-1.2682 1.73-2.0177.115-.1729.115-.5188.115-.6918-.231-.6341-1.211-1.2106-1.672-1.4412-1.095-.4612-2.191-.6918-4.208-.6918-2.133 0-5.246 1.0953-7.264 2.306-3.747 2.1906-5.534 5.9378-5.534 9.9156 0 2.8248.749 5.5343 2.248 7.5521 1.845 2.4789 4.151 3.7472 7.667 3.7472 2.422 0 5.938-.9801 8.936-4.612zM205.396 25.942c0-.3459-.116-.98-.462-1.3259-.173-.1729-.807-.5188-1.556-.5188-.807 0-1.903.4035-2.306.8647-.231.3459-.346.9224-.288 1.3836 0 .8647.461 1.7871 1.21 2.0754.404.2306 1.903 0 2.191-.173.634-.2882 1.211-1.2683 1.211-2.306zm3.286 30.2658c-1.153-.1153-1.557-.2306-2.133-.4035-.808-.2883-1.211-.8071-1.211-2.0177-.058-2.7672-.058-6.8603-.058-9.9733 0-3.5166.058-8.1862.116-9.7427-2.133 1.0376-5.189 1.5565-6.861 1.7294-.057.1153-.057.7495 0 .8648 1.038.2882 1.787.4612 2.306 1.0953.346.4612.346.8071.346 1.153.058.98.058 2.9977.058 5.2461 0 3.1707 0 7.7826-.115 9.2238-.058 1.6142-.346 2.0754-1.038 2.3636-.577.2883-1.441.4036-2.248.4612-.116.1153-.116.8071 0 .9224.98 0 2.997-.1729 5.361-.1729 1.845 0 4.093.1729 5.304.1729.173-.0576.173-.7494.173-.9224zM210.289 56.2078c-.115.173-.115.8071 0 .9224.923 0 1.903-.1729 5.247-.1729 2.94 0 4.554.1729 5.534.1729.058-.1729.115-.8071.058-.9224-.923-.1153-1.903-.2882-2.422-.5188-.692-.2306-.98-.6342-1.037-2.306-.116-2.5365-.116-8.1285-.116-12.4522 0-1.2106.173-1.6718.577-2.0754 1.383-1.2682 2.998-1.9024 4.669-1.9024 1.73 0 2.767.5189 3.517 1.2683 1.095.98 1.499 2.7095 1.672 3.6895.288 1.9601.23 9.6274.115 12.164-.058.8647-.288 1.4989-1.211 1.7871-.345.1153-1.153.2306-2.19.3459-.116.1153-.116.8071 0 .9224 1.21-.0576 2.882-.1729 5.649-.1729 2.883 0 4.209.1729 5.016.1729.173-.1153.23-.7494.173-.9224-1.038-.1153-1.73-.2882-2.479-.6341-.577-.173-.75-.6342-.75-1.3259-.057-2.306-.057-7.6097-.057-10.6075 0-2.7671-.346-4.9578-1.384-6.572-1.153-1.8447-2.825-2.9401-5.131-2.9401-1.787 0-4.439.9801-7.955 3.8049-.115.0576-.231-.0577-.231-.2306.058-.9801.116-2.2484.231-3.4013 0-.1153-.115-.2306-.173-.2306-1.499.9224-4.497 1.9024-6.745 2.1906-.173.0577-.231.6918-.173.8071 2.248.6342 2.594 1.0377 2.71 1.7295.057.4035.115 2.4789.115 5.3614 0 3.3436.057 7.3214-.115 9.3391-.058 1.0954-.289 2.0177-1.096 2.306-.576.2306-1.268.3459-2.018.4035zM249.431 42.0261c0 .8071.058 1.5566 0 2.2484 0 .1153-.231.4612-.346.5188-1.96 1.0377-9.108 2.9401-10.665 3.8625-.288.5765-.634 2.306-.634 2.7672 0 2.0177.749 3.8048 1.902 4.9578.807.8071 1.845 1.2683 2.94 1.2683 1.153 0 3.921-1.326 6.399-2.9978.058-.0576.231 0 .231.1153.058.4035.231 1.153.404 1.4989.518.9224 1.268 1.3836 2.709 1.3836 1.326 0 3.171-.5765 4.497-2.0754.115-.1153.23-.98.23-1.153-.692.2306-1.037.2883-1.96.2883-1.672 0-2.075-1.4989-2.075-2.5366 0-2.133.173-6.4567.173-9.5121 0-1.7871-.231-4.1508-1.211-5.6496-1.153-1.8448-2.94-2.8825-5.246-2.8825-1.499 0-4.958 1.4412-7.321 3.286-.289.2883-1.038 2.133-1.038 2.7672 0 .4612.922 1.2106 1.095 1.0377.634-2.0754 1.73-3.7472 2.306-4.1508.461-.2882 1.153-.5188 2.076-.5188 1.902 0 3.516.7494 4.554 2.1906.634.8648.98 2.1907.98 3.286zm-.058 4.0355c0 .98-.057 4.7849-.115 6.572 0 .5765-.231.98-.519 1.2106-.98.5765-2.19.8648-2.998.8648-2.363 0-3.977-1.7872-3.977-4.2084 0-.5189.23-1.6142.403-1.7872.692-.6917 4.382-1.9024 7.033-2.7671.058-.0577.173.0576.173.1153zM279.821 42.1414c.634.2306 1.614.2883 2.537.2883 2.19 0 3.977-.4612 5.88-1.4412 2.94-1.4989 5.765-4.6696 5.707-9.8004-.058-3.6895-1.672-6.0531-3.517-7.4944-2.133-1.6141-5.419-2.0177-7.321-2.0177-3.171 0-5.361.1153-8.359.1153-2.652 0-5.419-.1729-6.514-.1729-.116.0576-.173.7494-.116.8647 1.153.1153 2.018.2882 2.767.4612 1.442.3459 1.672 1.3259 1.73 3.2283.115 1.7872.115 8.3592.115 12.6252 0 8.2438-.115 11.8181-.23 13.6628-.116 2.9401-.692 3.0554-1.903 3.3437-.692.1729-1.672.2882-2.709.4035-.173.1153-.116.8071.057.9224 1.384 0 4.439-.1729 7.034-.1729 2.305 0 5.764.1729 7.206.1729.115-.0576.173-.8071-.058-.9224-.922-.1153-1.96-.2306-2.767-.4035-1.672-.3459-2.133-.7495-2.191-3.5743-.173-4.266-.057-11.1839-.057-14.7005 0-7.725.115-12.2216.173-13.6052.057-.4035.23-.6918.403-.7494.404-.173 1.557-.2306 2.133-.2306 6.86 0 9.339 4.266 9.339 9.5697.058 3.459-.692 6.1108-3.343 7.725-1.153.6342-2.249.9224-4.036.9224-1.211 0-1.787-.1153-2.363-.1729-.058 0-.173.2306-.173.2882.057.1153.345.6918.576.8647zM309.641 34.1282c-1.096 0-2.076.5189-2.941 1.2106-1.326 1.0954-2.421 2.4213-3.401 3.7472-.058.0577-.231 0-.231-.0576 0-1.0953 0-3.7472.058-4.7849 0-.0576-.173-.1729-.23-.1729-1.499.9224-4.785 1.9024-6.515 2.0753-.115.0577-.173.5765-.173.7495 2.594.6341 2.767 1.6141 2.825 2.1906.115.7495.115 2.5942.115 4.8426 0 4.3236-.057 9.2815-.23 10.2615-.058 1.0377-.404 1.3836-.923 1.6142-.518.1729-1.441.3459-2.133.4035-.115.173-.115.8071 0 .9224.98-.0576 3.978-.1729 5.535-.1729 2.19 0 5.015.1729 5.822.1729.173-.1153.231-.7494.116-.9224-.98-.0576-1.903-.1729-2.998-.4612-.75-.2882-1.038-.8647-1.096-1.96-.115-1.153-.173-7.898-.173-11.184 0-.8647.289-1.8447.519-2.3059.807-1.326 1.73-2.3636 2.94-2.3636 1.096 0 2.422.5764 3.344 1.5565.058 0 .461-.173.461-.173.577-.6918 1.614-2.4789 1.73-3.113.057-.2306.057-.7495 0-.8648-.461-.7494-1.384-1.2106-2.421-1.2106zM331.958 51.9994c-2.075 1.9601-4.093 2.4213-6.283 2.4213-2.422 0-4.612-.8071-6.342-2.9401-1.268-1.5565-2.075-4.0931-2.133-6.3414 0-.2882.115-.6341.346-.6341 4.439-.1153 12.452-.5765 14.701-1.326.173-.0576.288-.5765.23-.7494-.519-.0577-.634-.2883-.692-.4612-.461-2.7672-2.248-7.8403-7.609-7.8403-1.499 0-4.324.8071-5.88 1.8448-3.056 1.9024-4.958 5.419-4.958 10.0886 0 3.113.807 6.4567 2.997 8.8203 1.557 1.7295 3.863 2.7672 6.745 2.7672 2.825 0 6.227-1.4989 8.994-4.4967.057-.1153.173-.6918.115-.98 0-.1153-.173-.173-.231-.173zm-9.627-16.3723c3.344 0 4.958 3.6319 5.304 6.572 0 .2306-.231.4035-.346.4612-1.211.2882-8.186.5188-9.743.4035-.058 0-.173-.1729-.173-.3459.231-4.6119 2.364-7.0908 4.958-7.0908zM334.422 56.2078c-.115.173-.115.8648 0 .9224 1.269 0 4.036-.1729 5.419-.1729 2.595 0 4.555.1729 6.111.1729.116-.1153.173-.8071.116-.9224-1.326-.1153-1.73-.2306-2.479-.4035-1.096-.2306-1.615-.8648-1.672-2.2483-.116-2.8248-.058-10.031-.116-16.0265 0-.0576.173-.4612.231-.4612.922-.0576 3.978.0577 5.131.0577.058-.6342.288-1.7872.461-2.3636-.634.0576-2.479.1153-5.534.1729-.116 0-.231-.2882-.231-.3459-.058-.3459-.058-1.6142-.058-1.9601.058-4.8425.231-9.858 2.134-11.7027.691-.6342 1.498-.9801 2.421-.9801 2.133 0 4.151 1.7872 5.073 2.7095.115.0577.346.0577.461-.0576.404-.2882 1.73-2.2483 1.903-2.7672V19.37c-.462-.98-2.076-2.0753-4.324-2.0753-1.211 0-3.344.8071-5.131 2.0753-5.015 3.5743-6.457 8.1286-6.457 15.2771 0 .1153-.115.2882-.23.3459-.346.2305-1.614.6917-2.479.807-.173.2306-.404.8648-.404 1.153l2.825.1153c.115 0 .231.3459.231.4612-.058 6.572-.058 13.0864-.116 16.1418 0 1.1529-.23 1.8447-1.21 2.1906-.461.1153-1.153.2306-2.076.3459zM367.539 51.9994c-2.076 1.9601-4.093 2.4213-6.284 2.4213-2.421 0-4.612-.8071-6.341-2.9401-1.269-1.5565-2.076-4.0931-2.134-6.3414 0-.2882.116-.6341.346-.6341 4.439-.1153 12.453-.5765 14.701-1.326.173-.0576.288-.5765.23-.7494-.518-.0577-.634-.2883-.691-.4612-.461-2.7672-2.249-7.8403-7.61-7.8403-1.499 0-4.324.8071-5.88 1.8448-3.056 1.9024-4.958 5.419-4.958 10.0886 0 3.113.807 6.4567 2.998 8.8203 1.556 1.7295 3.862 2.7672 6.745 2.7672 2.825 0 6.226-1.4989 8.993-4.4967.058-.1153.173-.6918.115-.98 0-.1153-.173-.173-.23-.173zm-9.628-16.3723c3.344 0 4.958 3.6319 5.304 6.572 0 .2306-.231.4035-.346.4612-1.211.2882-8.186.5188-9.743.4035-.057 0-.173-.1729-.173-.3459.231-4.6119 2.364-7.0908 4.958-7.0908zM383.785 34.1282c-1.095 0-2.075.5189-2.94 1.2106-1.326 1.0954-2.421 2.4213-3.401 3.7472-.058.0577-.231 0-.231-.0576 0-1.0953 0-3.7472.058-4.7849 0-.0576-.173-.1729-.231-.1729-1.499.9224-4.785 1.9024-6.514 2.0753-.116.0577-.173.5765-.173.7495 2.594.6341 2.767 1.6141 2.824 2.1906.116.7495.116 2.5942.116 4.8426 0 4.3236-.058 9.2815-.231 10.2615-.057 1.0377-.403 1.3836-.922 1.6142-.519.1729-1.441.3459-2.133.4035-.116.173-.116.8071 0 .9224.98-.0576 3.978-.1729 5.534-.1729 2.191 0 5.016.1729 5.823.1729.173-.1153.23-.7494.115-.9224-.98-.0576-1.902-.1729-2.998-.4612-.749-.2882-1.037-.8647-1.095-1.96-.115-1.153-.173-7.898-.173-11.184 0-.8647.288-1.8447.519-2.3059.807-1.326 1.729-2.3636 2.94-2.3636 1.095 0 2.421.5764 3.344 1.5565.057 0 .461-.173.461-.173.576-.6918 1.614-2.4789 1.729-3.113.058-.2306.058-.7495 0-.8648-.461-.7494-1.383-1.2106-2.421-1.2106zM395.12 25.942c0-.3459-.116-.98-.461-1.3259-.173-.1729-.808-.5188-1.557-.5188-.807 0-1.902.4035-2.306.8647-.231.3459-.346.9224-.288 1.3836 0 .8647.461 1.7871 1.21 2.0754.404.2306 1.903 0 2.191-.173.634-.2882 1.211-1.2683 1.211-2.306zm3.286 30.2658c-1.153-.1153-1.557-.2306-2.133-.4035-.807-.2883-1.211-.8071-1.211-2.0177-.058-2.7672-.058-6.8603-.058-9.9733 0-3.5166.058-8.1862.116-9.7427-2.133 1.0376-5.189 1.5565-6.861 1.7294-.057.1153-.057.7495 0 .8648 1.038.2882 1.788.4612 2.306 1.0953.346.4612.346.8071.346 1.153.058.98.058 2.9977.058 5.2461 0 3.1707 0 7.7826-.115 9.2238-.058 1.6142-.346 2.0754-1.038 2.3636-.576.2883-1.441.4036-2.248.4612-.116.1153-.116.8071 0 .9224.98 0 2.997-.1729 5.361-.1729 1.845 0 4.093.1729 5.304.1729.173-.0576.173-.7494.173-.9224zM412.985 37.126c.057-.6918.288-1.7872.461-2.4213-.692.1153-3.401.2306-6.226.2306-.116 0-.289-.2306-.289-.3459 0-4.0931.173-6.399.346-7.2061-.173-.0577-.518-.173-.691-.1153-.462.6918-2.537 2.4212-3.632 2.8824v4.5543c0 .0577-.058.2883-.173.3459-.404.173-1.787.3459-2.479.4612-.058.1729-.461 1.153-.461 1.3836.807.0576 2.421.1153 2.882.2306.173.0576.231.2306.231.4035 0 2.306-.058 8.0132-.058 11.0686 0 3.6896.058 5.1885.749 6.572.865 1.7872 2.652 2.4213 4.497 2.4213 1.73 0 3.92-.6918 5.304-2.5366.057-.1729.173-.9223.115-.98-.865.5765-1.729.9224-3.171.9224-1.441 0-2.594-.6918-3.055-2.0177-.231-.5189-.346-1.6142-.404-3.459-.057-2.5365 0-8.8203 0-12.1063 0-.1153.173-.3459.289-.3459 1.787 0 3.978.0577 5.765.0577zM427.333 42.0261c0 .8071.057 1.5566 0 2.2484 0 .1153-.231.4612-.346.5188-1.96 1.0377-9.109 2.9401-10.665 3.8625-.289.5765-.635 2.306-.635 2.7672 0 2.0177.75 3.8048 1.903 4.9578.807.8071 1.845 1.2683 2.94 1.2683 1.153 0 3.92-1.326 6.399-2.9978.058-.0576.231 0 .231.1153.057.4035.23 1.153.403 1.4989.519.9224 1.268 1.3836 2.71 1.3836 1.326 0 3.17-.5765 4.496-2.0754.116-.1153.231-.98.231-1.153-.692.2306-1.038.2883-1.96.2883-1.672 0-2.076-1.4989-2.076-2.5366 0-2.133.173-6.4567.173-9.5121 0-1.7871-.23-4.1508-1.21-5.6496-1.153-1.8448-2.94-2.8825-5.246-2.8825-1.499 0-4.958 1.4412-7.322 3.286-.288.2883-1.037 2.133-1.037 2.7672 0 .4612.922 1.2106 1.095 1.0377.634-2.0754 1.729-3.7472 2.306-4.1508.461-.2882 1.153-.5188 2.075-.5188 1.903 0 3.517.7494 4.554 2.1906.635.8648.981 2.1907.981 3.286zm-.058 4.0355c0 .98-.058 4.7849-.115 6.572 0 .5765-.231.98-.519 1.2106-.98.5765-2.191.8648-2.998.8648-2.364 0-3.978-1.7872-3.978-4.2084 0-.5189.231-1.6142.404-1.7872.691-.6917 4.381-1.9024 7.033-2.7671.058-.0577.173.0576.173.1153z"/></svg>