<svg xmlns="http://www.w3.org/2000/svg" fill="none" viewBox="0 0 227 40"><defs/><path fill="#CA6D38" d="M0 0h17.76v17.76H0z"/><path fill="#454545" d="M0 22.24h17.76V40H0zM22.24 0H40v17.76H22.24z"/><path fill="#CA6D38" d="M22.24 22.24H40V40H22.24z"/><path fill="#F3F1EF" d="M75.74 15.75c0 .12.48.06.57-.06.03-1.26.33-3.48.54-4.32-1.41-.12-3.36-.57-5.55-.57-2.58 0-4.56.51-6.15 1.38-3.24 1.74-4.68 4.86-4.68 8.13 0 6.33 3.78 9.87 10.23 9.87 1.86 0 3.45-.36 4.32-.63.69-.36 1.86-2.52 2.25-3.99-.03-.12-.36-.27-.45-.24-.66 1.17-1.17 1.98-1.95 2.76-1.14 1.08-2.67 1.2-3.57 1.2-5.1 0-8.13-3.66-8.13-9.24 0-5.37 2.7-8.55 7.11-8.55 1.53 0 2.73.18 3.78.72 1.02.51 1.41 1.26 1.68 3.54zM77.697 18.84c.51.06 1.05.12 1.29.24.36.15.39.51.42 1.05.06 1.35.03 4.47.03 5.88 0 2.04.57 3.99 3.39 3.99.93 0 2.22-.45 3.87-1.89.09-.06.18.03.18.09 0 .51-.03 1.35 0 1.71 0 .15.09.24.18.24.69-.27 2.58-.9 3.66-1.2.09-.06.06-.45.06-.51-.39.03-.51.06-.93.06-.63 0-.84-.21-.84-1.47l-.03-5.94c0-1.26.03-2.61.12-3.18-.75.18-3.03.45-4.65.45-.09.06-.12.42-.06.48.81.09 1.47.15 1.89.27.48.15.54.57.57.87.06 1.53.09 6.24.03 6.81-.03.33-.15.69-.36.84-.6.48-1.29.87-2.34.87-1.56 0-2.22-.87-2.46-1.83-.15-.6-.15-1.89-.15-3.18 0-4.38.06-5.13.15-5.61-.78.24-2.73.48-3.93.48-.06.03-.12.39-.09.48zM101.969 27.6c.06-.09.09-.45.09-.57 0-.06-.06-.09-.09-.09-.93.99-2.2197 1.38-3.2097 1.38-1.32 0-2.46-.39-3.39-1.62-.72-.87-1.11-2.22-1.11-3.81 0-2.13 1.11-4.17 3.24-4.17 1.53 0 2.6097.99 3.1497 1.56.06.03.18.03.27 0 .27-.12.72-.66.9-1.05.06-.09.06-.27.06-.36-.12-.33-.63-.63-.87-.75-.57-.24-1.1397-.36-2.1897-.36-1.11 0-2.73.57-3.78 1.2-1.95 1.14-2.88 3.09-2.88 5.16 0 1.47.39 2.88 1.17 3.93.96 1.29 2.16 1.95 3.99 1.95 1.26 0 3.0897-.51 4.6497-2.4zM106.886 13.5c0-.18-.06-.51-.24-.69-.09-.09-.42-.27-.81-.27-.42 0-.99.21-1.2.45-.12.18-.18.48-.15.72 0 .45.24.93.63 1.08.21.12.99 0 1.14-.09.33-.15.63-.66.63-1.2zm1.71 15.75c-.6-.06-.81-.12-1.11-.21-.42-.15-.63-.42-.63-1.05-.03-1.44-.03-3.57-.03-5.19 0-1.83.03-4.26.06-5.07-1.11.54-2.7.81-3.57.9-.03.06-.03.39 0 .45.54.15.93.24 1.2.57.18.24.18.42.18.6.03.51.03 1.56.03 2.73 0 1.65 0 4.05-.06 4.8-.03.84-.18 1.08-.54 1.23-.3.15-.75.21-1.17.24-.06.06-.06.42 0 .48.51 0 1.56-.09 2.79-.09.96 0 2.13.09 2.76.09.09-.03.09-.39.09-.48zM109.433 29.25c-.06.09-.06.42 0 .48.48 0 .99-.09 2.73-.09 1.53 0 2.37.09 2.88.09.03-.09.06-.42.03-.48-.48-.06-.99-.15-1.26-.27-.36-.12-.51-.33-.54-1.2-.06-1.32-.06-4.23-.06-6.48 0-.63.09-.87.3-1.08.72-.66 1.56-.99 2.43-.99.9 0 1.44.27 1.83.66.57.51.78 1.41.87 1.92.15 1.02.12 5.01.06 6.33-.03.45-.15.78-.63.93-.18.06-.6.12-1.14.18-.06.06-.06.42 0 .48.63-.03 1.5-.09 2.94-.09 1.5 0 2.19.09 2.61.09.09-.06.12-.39.09-.48-.54-.06-.9-.15-1.29-.33-.3-.09-.39-.33-.39-.69-.03-1.2-.03-3.96-.03-5.52 0-1.44-.18-2.58-.72-3.42-.6-.96-1.47-1.53-2.67-1.53-.93 0-2.31.51-4.14 1.98-.06.03-.12-.03-.12-.12.03-.51.06-1.17.12-1.77 0-.06-.06-.12-.09-.12-.78.48-2.34.99-3.51 1.14-.09.03-.12.36-.09.42 1.17.33 1.35.54 1.41.9.03.21.06 1.29.06 2.79 0 1.74.03 3.81-.06 4.86-.03.57-.15 1.05-.57 1.2-.3.12-.66.18-1.05.21zM129.801 21.87c0 .42.03.81 0 1.17 0 .06-.12.24-.18.27-1.02.54-4.74 1.53-5.55 2.01-.15.3-.33 1.2-.33 1.44 0 1.05.39 1.98.99 2.58.42.42.96.66 1.53.66.6 0 2.04-.69 3.33-1.56.03-.03.12 0 .12.06.03.21.12.6.21.78.27.48.66.72 1.41.72.69 0 1.65-.3 2.34-1.08.06-.06.12-.51.12-.6-.36.12-.54.15-1.02.15-.87 0-1.08-.78-1.08-1.32 0-1.11.09-3.36.09-4.95 0-.93-.12-2.16-.63-2.94-.6-.96-1.53-1.5-2.73-1.5-.78 0-2.58.75-3.81 1.71-.15.15-.54 1.11-.54 1.44 0 .24.48.63.57.54.33-1.08.9-1.95 1.2-2.16.24-.15.6-.27 1.08-.27.99 0 1.83.39 2.37 1.14.33.45.51 1.14.51 1.71zm-.03 2.1c0 .51-.03 2.49-.06 3.42 0 .3-.12.51-.27.63-.51.3-1.14.45-1.56.45-1.23 0-2.07-.93-2.07-2.19 0-.27.12-.84.21-.93.36-.36 2.28-.99 3.66-1.44.03-.03.09.03.09.06zM145.616 21.93c.33.12.84.15 1.32.15 1.14 0 2.07-.24 3.06-.75 1.53-.78 3-2.43 2.97-5.1-.03-1.92-.87-3.15-1.83-3.9-1.11-.84-2.82-1.05-3.81-1.05-1.65 0-2.79.06-4.35.06-1.38 0-2.82-.09-3.39-.09-.06.03-.09.39-.06.45.6.06 1.05.15 1.44.24.75.18.87.69.9 1.68.06.93.06 4.35.06 6.57 0 4.29-.06 6.15-.12 7.11-.06 1.53-.36 1.59-.99 1.74-.36.09-.87.15-1.41.21-.09.06-.06.42.03.48.72 0 2.31-.09 3.66-.09 1.2 0 3 .09 3.75.09.06-.03.09-.42-.03-.48-.48-.06-1.02-.12-1.44-.21-.87-.18-1.11-.39-1.14-1.86-.09-2.22-.03-5.82-.03-7.65 0-4.02.06-6.36.09-7.08.03-.21.12-.36.21-.39.21-.09.81-.12 1.11-.12 3.57 0 4.86 2.22 4.86 4.98.03 1.8-.36 3.18-1.74 4.02-.6.33-1.17.48-2.1.48-.63 0-.93-.06-1.23-.09-.03 0-.09.12-.09.15.03.06.18.36.3.45zM161.134 17.76c-.57 0-1.08.27-1.53.63-.69.57-1.26 1.26-1.77 1.95-.03.03-.12 0-.12-.03 0-.57 0-1.95.03-2.49 0-.03-.09-.09-.12-.09-.78.48-2.49.99-3.39 1.08-.06.03-.09.3-.09.39 1.35.33 1.44.84 1.47 1.14.06.39.06 1.35.06 2.52 0 2.25-.03 4.83-.12 5.34-.03.54-.21.72-.48.84-.27.09-.75.18-1.11.21-.06.09-.06.42 0 .48.51-.03 2.07-.09 2.88-.09 1.14 0 2.61.09 3.03.09.09-.06.12-.39.06-.48-.51-.03-.99-.09-1.56-.24-.39-.15-.54-.45-.57-1.02-.06-.6-.09-4.11-.09-5.82 0-.45.15-.96.27-1.2.42-.69.9-1.23 1.53-1.23.57 0 1.26.3 1.74.81.03 0 .24-.09.24-.09.3-.36.84-1.29.9-1.62.03-.12.03-.39 0-.45-.24-.39-.72-.63-1.26-.63zM172.748 27.06c-1.08 1.02-2.13 1.26-3.27 1.26-1.26 0-2.4-.42-3.3-1.53-.66-.81-1.08-2.13-1.11-3.3 0-.15.06-.33.18-.33 2.31-.06 6.48-.3 7.65-.69.09-.03.15-.3.12-.39-.27-.03-.33-.15-.36-.24-.24-1.44-1.17-4.08-3.96-4.08-.78 0-2.25.42-3.06.96-1.59.99-2.58 2.82-2.58 5.25 0 1.62.42 3.36 1.56 4.59.81.9 2.01 1.44 3.51 1.44 1.47 0 3.24-.78 4.68-2.34.03-.06.09-.36.06-.51 0-.06-.09-.09-.12-.09zm-5.01-8.52c1.74 0 2.58 1.89 2.76 3.42 0 .12-.12.21-.18.24-.63.15-4.26.27-5.07.21-.03 0-.09-.09-.09-.18.12-2.4 1.23-3.69 2.58-3.69zM174.03 29.25c-.06.09-.06.45 0 .48.66 0 2.1-.09 2.82-.09 1.35 0 2.37.09 3.18.09.06-.06.09-.42.06-.48-.69-.06-.9-.12-1.29-.21-.57-.12-.84-.45-.87-1.17-.06-1.47-.03-5.22-.06-8.34 0-.03.09-.24.12-.24.48-.03 2.07.03 2.67.03.03-.33.15-.93.24-1.23-.33.03-1.29.06-2.88.09-.06 0-.12-.15-.12-.18-.03-.18-.03-.84-.03-1.02.03-2.52.12-5.13 1.11-6.09.36-.33.78-.51 1.26-.51 1.11 0 2.16.93 2.64 1.41.06.03.18.03.24-.03.21-.15.9-1.17.99-1.44v-.24c-.24-.51-1.08-1.08-2.25-1.08-.63 0-1.74.42-2.67 1.08-2.61 1.86-3.36 4.23-3.36 7.95 0 .06-.06.15-.12.18-.18.12-.84.36-1.29.42-.09.12-.21.45-.21.6l1.47.06c.06 0 .12.18.12.24-.03 3.42-.03 6.81-.06 8.4 0 .6-.12.96-.63 1.14-.24.06-.6.12-1.08.18zM191.263 27.06c-1.08 1.02-2.13 1.26-3.27 1.26-1.26 0-2.4-.42-3.3-1.53-.66-.81-1.08-2.13-1.11-3.3 0-.15.06-.33.18-.33 2.31-.06 6.48-.3 7.65-.69.09-.03.15-.3.12-.39-.27-.03-.33-.15-.36-.24-.24-1.44-1.17-4.08-3.96-4.08-.78 0-2.25.42-3.06.96-1.59.99-2.58 2.82-2.58 5.25 0 1.62.42 3.36 1.56 4.59.81.9 2.01 1.44 3.51 1.44 1.47 0 3.24-.78 4.68-2.34.03-.06.09-.36.06-.51 0-.06-.09-.09-.12-.09zm-5.01-8.52c1.74 0 2.58 1.89 2.76 3.42 0 .12-.12.21-.18.24-.63.15-4.26.27-5.07.21-.03 0-.09-.09-.09-.18.12-2.4 1.23-3.69 2.58-3.69zM199.718 17.76c-.57 0-1.08.27-1.53.63-.69.57-1.26 1.26-1.77 1.95-.03.03-.12 0-.12-.03 0-.57 0-1.95.03-2.49 0-.03-.09-.09-.12-.09-.78.48-2.49.99-3.39 1.08-.06.03-.09.3-.09.39 1.35.33 1.44.84 1.47 1.14.06.39.06 1.35.06 2.52 0 2.25-.03 4.83-.12 5.34-.03.54-.21.72-.48.84-.27.09-.75.18-1.11.21-.06.09-.06.42 0 .48.51-.03 2.07-.09 2.88-.09 1.14 0 2.61.09 3.03.09.09-.06.12-.39.06-.48-.51-.03-.99-.09-1.56-.24-.39-.15-.54-.45-.57-1.02-.06-.6-.09-4.11-.09-5.82 0-.45.15-.96.27-1.2.42-.69.9-1.23 1.53-1.23.57 0 1.26.3 1.74.81.03 0 .24-.09.24-.09.3-.36.84-1.29.9-1.62.03-.12.03-.39 0-.45-.24-.39-.72-.63-1.26-.63zM205.616 13.5c0-.18-.06-.51-.24-.69-.09-.09-.42-.27-.81-.27-.42 0-.99.21-1.2.45-.12.18-.18.48-.15.72 0 .45.24.93.63 1.08.21.12.99 0 1.14-.09.33-.15.63-.66.63-1.2zm1.71 15.75c-.6-.06-.81-.12-1.11-.21-.42-.15-.63-.42-.63-1.05-.03-1.44-.03-3.57-.03-5.19 0-1.83.03-4.26.06-5.07-1.11.54-2.7.81-3.57.9-.03.06-.03.39 0 .45.54.15.93.24 1.2.57.18.24.18.42.18.6.03.51.03 1.56.03 2.73 0 1.65 0 4.05-.06 4.8-.03.84-.18 1.08-.54 1.23-.3.15-.75.21-1.17.24-.06.06-.06.42 0 .48.51 0 1.56-.09 2.79-.09.96 0 2.13.09 2.76.09.09-.03.09-.39.09-.48zM214.913 19.32c.03-.36.15-.93.24-1.26-.36.06-1.77.12-3.24.12-.06 0-.15-.12-.15-.18 0-2.13.09-3.33.18-3.75-.09-.03-.27-.09-.36-.06-.24.36-1.32 1.26-1.89 1.5v2.37c0 .03-.03.15-.09.18-.21.09-.93.18-1.29.24-.03.09-.24.6-.24.72.42.03 1.26.06 1.5.12.09.03.12.12.12.21 0 1.2-.03 4.17-.03 5.76 0 1.92.03 2.7.39 3.42.45.93 1.38 1.26 2.34 1.26.9 0 2.04-.36 2.76-1.32.03-.09.09-.48.06-.51-.45.3-.9.48-1.65.48-.75 0-1.35-.36-1.59-1.05-.12-.27-.18-.84-.21-1.8-.03-1.32 0-4.59 0-6.3 0-.06.09-.18.15-.18.93 0 2.07.03 3 .03zM222.38 21.87c0 .42.03.81 0 1.17 0 .06-.121.24-.181.27-1.02.54-4.739 1.53-5.549 2.01-.15.3-.33 1.2-.33 1.44 0 1.05.389 1.98.989 2.58.42.42.961.66 1.531.66.6 0 2.04-.69 3.329-1.56.03-.03.121 0 .121.06.03.21.12.6.209.78.271.48.661.72 1.411.72.69 0 1.649-.3 2.339-1.08.06-.06.121-.51.121-.6-.36.12-.541.15-1.02.15-.87 0-1.08-.78-1.08-1.32 0-1.11.089-3.36.089-4.95 0-.93-.119-2.16-.629-2.94-.6-.96-1.531-1.5-2.731-1.5-.78 0-2.58.75-3.81 1.71-.149.15-.539 1.11-.539 1.44 0 .24.48.63.569.54.33-1.08.9-1.95 1.2-2.16.241-.15.601-.27 1.08-.27.991 0 1.831.39 2.371 1.14.33.45.51 1.14.51 1.71zm-.03 2.1c0 .51-.03 2.49-.06 3.42 0 .3-.121.51-.27.63-.51.3-1.14.45-1.56.45-1.23 0-2.071-.93-2.071-2.19 0-.27.121-.84.211-.93.36-.36 2.28-.99 3.66-1.44.03-.03.09.03.09.06z"/></svg>